RobotoFlex-opsz8-wght1000.ufo
<glyph name="exclam" format="2">
	<unicode hex="0021"/>
	<advance width="763"/>
	<outline>
		<contour>
			<point x="186" y="141.64" type="qcurve" smooth="yes"/>
			<point x="186" y="209.24"/>
			<point x="286.9" y="305.28"/>
			<point x="381.34" y="305.28" type="qcurve" smooth="yes"/>
			<point x="475.78" y="305.28"/>
			<point x="576.68" y="209.24"/>
			<point x="576.68" y="141.64" type="qcurve" smooth="yes"/>
			<point x="576.68" y="74.04"/>
			<point x="475.78" y="-22"/>
			<point x="381.34" y="-22" type="qcurve" smooth="yes"/>
			<point x="286.9" y="-22"/>
			<point x="186" y="74.04"/>
		</contour>
		<contour>
			<point x="243.58" y="465.8" type="line"/>
			<point x="216.28" y="1456" type="line"/>
			<point x="546.4" y="1456" type="line"/>
			<point x="519.1" y="465.8" type="line"/>
		</contour>
	</outline>
</glyph>
<glyph name="quotedbl" format="2">
	<unicode hex="0022"/>
	<advance width="937"/>
	<outline>
		<contour>
			<point x="122.38" y="814.72" type="line"/>
			<point x="100" y="1277.84" type="line"/>
			<point x="100" y="1456" type="line"/>
			<point x="368.56" y="1456" type="line"/>
			<point x="368.56" y="1277.84" type="line"/>
			<point x="346.18" y="814.72" type="line"/>
		</contour>
		<contour>
			<point x="590.94" y="814.72" type="line"/>
			<point x="568.56" y="1277.84" type="line"/>
			<point x="568.56" y="1456" type="line"/>
			<point x="837.12" y="1456" type="line"/>
			<point x="837.12" y="1277.84" type="line"/>
			<point x="814.74" y="814.72" type="line"/>
		</contour>
	</outline>
</glyph>
<glyph name="dollar" format="2">
  <advance width="1529"/>
  <unicode hex="0024"/>
  <outline>
    <contour>
      <point x="167.2518987341772" y="440.68455696202534" type="qcurve" smooth="yes"/>
      <point x="167.2518987341772" y="453.0" type="line"/>
      <point x="511.5605063291138" y="453.0" type="line"/>
      <point x="511.5605063291138" y="440.53455696202536" type="line" smooth="yes"/>
      <point x="511.5605063291138" y="329.51101265822786"/>
      <point x="657.656835443038" y="231.02354430379745"/>
      <point x="786.853164556962" y="231.02354430379745" type="qcurve" smooth="yes"/>
      <point x="919.199493670886" y="231.02354430379745"/>
      <point x="1056.0881012658228" y="323.2918987341772"/>
      <point x="1056.0881012658228" y="413.5" type="qcurve" smooth="yes"/>
      <point x="1056.0881012658228" y="498.55037974683546"/>
      <point x="956.6770886075949" y="569.3212658227849"/>
      <point x="692.7943037974684" y="614.4253164556962" type="qcurve" smooth="yes"/>
      <point x="425.2806329113924" y="658.0025316455697"/>
      <point x="189.25189873417722" y="856.9687341772152"/>
      <point x="189.25189873417722" y="1039.2886075949368" type="qcurve" smooth="yes"/>
      <point x="189.25189873417722" y="1226.4430379746836"/>
      <point x="507.91999999999996" y="1456.0"/>
      <point x="778.853164556962" y="1456.0" type="qcurve" smooth="yes"/>
      <point x="1053.4708860759492" y="1456.0"/>
      <point x="1378.2967088607595" y="1212.6275949367089"/>
      <point x="1378.2967088607595" y="1021.1577215189874" type="qcurve" smooth="yes"/>
      <point x="1378.2967088607595" y="1009.0" type="line"/>
      <point x="1028.9381012658228" y="1009.0" type="line"/>
      <point x="1028.9381012658228" y="1021.1577215189874" type="line" smooth="yes"/>
      <point x="1028.9381012658228" y="1114.7158227848101"/>
      <point x="906.7417721518988" y="1229.1577215189873"/>
      <point x="778.853164556962" y="1229.1577215189873" type="qcurve" smooth="yes"/>
      <point x="651.8145569620253" y="1229.1577215189873"/>
      <point x="537.7759493670886" y="1142.338987341772"/>
      <point x="537.7759493670886" y="1059.7886075949368" type="qcurve" smooth="yes"/>
      <point x="537.7759493670886" y="979.8959493670886"/>
      <point x="632.706075949367" y="921.4213924050633"/>
      <point x="891.069746835443" y="877.9096202531646" type="qcurve" smooth="yes"/>
      <point x="1162.2143037974683" y="831.5055696202533"/>
      <point x="1404.612151898734" y="624.3275949367089"/>
      <point x="1404.612151898734" y="431.5" type="qcurve" smooth="yes"/>
      <point x="1404.612151898734" y="234.03012658227846"/>
      <point x="1068.6286075949367" y="0.9463291139240502"/>
      <point x="786.853164556962" y="0.9463291139240502" type="qcurve" smooth="yes"/>
      <point x="507.393164556962" y="0.9463291139240502"/>
      <point x="167.2518987341772" y="225.8992405063291"/>
    </contour>
    <contour>
      <point x="651.8975949367089" y="-146.84556962025317" type="line"/>
      <point x="651.8975949367089" y="728.0" type="line"/>
      <point x="917.6050632911392" y="728.0" type="line"/>
      <point x="917.6050632911392" y="121.57721518987341" type="line"/>
      <point x="932.5513924050632" y="113.15443037974683" type="line"/>
      <point x="932.5513924050632" y="-146.84556962025317" type="line"/>
    </contour>
    <contour>
      <point x="647.6894936708861" y="728.0" type="line"/>
      <point x="647.6894936708861" y="1321.1106329113925" type="line"/>
      <point x="632.743164556962" y="1331.1106329113925" type="line"/>
      <point x="632.743164556962" y="1618.9967088607596" type="line"/>
      <point x="912.2469620253164" y="1618.9967088607596" type="line"/>
      <point x="912.2469620253164" y="728.0" type="line"/>
    </contour>
  </outline>
</glyph>
<glyph name="ampersand" format="2">
	<unicode hex="0026"/>
	<advance width="1470"/>
	<outline>
		<contour>
			<point x="80" y="380" type="qcurve" smooth="yes"/>
			<point x="80" y="546.22"/>
			<point x="302.9" y="755.74"/>
			<point x="471.78" y="849.88" type="qcurve" smooth="yes"/>
			<point x="704.18" y="966.14" type="line" smooth="yes"/>
			<point x="775.32" y="1008"/>
			<point x="821.64" y="1079.96"/>
			<point x="821.64" y="1132.8" type="qcurve" smooth="yes"/>
			<point x="821.64" y="1199.86"/>
			<point x="748.94" y="1267.04"/>
			<point x="677.16" y="1267.04" type="qcurve" smooth="yes"/>
			<point x="605.42" y="1267.04"/>
			<point x="526.12" y="1189.36"/>
			<point x="526.12" y="1122.8" type="qcurve" smooth="yes"/>
			<point x="526.12" y="1062.78"/>
			<point x="594.5" y="955.96"/>
			<point x="676.08" y="855.8" type="qcurve" smooth="yes"/>
			<point x="1446.32" y="0" type="line"/>
			<point x="1085.5" y="0" type="line"/>
			<point x="456.12" y="702.12" type="line" smooth="yes"/>
			<point x="322.26" y="842.78"/>
			<point x="205.68" y="1022.8"/>
			<point x="205.68" y="1122.8" type="qcurve" smooth="yes"/>
			<point x="205.68" y="1287.92"/>
			<point x="473.38" y="1486"/>
			<point x="677.16" y="1486" type="qcurve" smooth="yes"/>
			<point x="880.8" y="1486"/>
			<point x="1132.84" y="1298.72"/>
			<point x="1132.84" y="1142.96" type="qcurve" smooth="yes"/>
			<point x="1132.84" y="1019.7"/>
			<point x="1008.66" y="857.64"/>
			<point x="884.2" y="792.48" type="qcurve" smooth="yes"/>
			<point x="648.4" y="674.8" type="line" smooth="yes"/>
			<point x="523.4364228906" y="601.4894754429"/>
			<point x="408.32" y="476.98"/>
			<point x="408.32" y="392.4" type="qcurve" smooth="yes"/>
			<point x="408.32" y="304.1"/>
			<point x="524.52" y="198.96"/>
			<point x="621.74" y="198.96" type="qcurve" smooth="yes"/>
			<point x="793.44" y="198.96"/>
			<point x="1042.52" y="451"/>
			<point x="1042.52" y="674" type="qcurve"/>
			<point x="1352.28" y="674" type="line"/>
			<point x="1352.28" y="380"/>
			<point x="931.8" y="-20"/>
			<point x="621.74" y="-20" type="qcurve" smooth="yes"/>
			<point x="363.04" y="-20"/>
			<point x="80" y="213.8"/>
		</contour>
	</outline>
</glyph>
<glyph name="quotesingle" format="2">
	<unicode hex="0027"/>
	<advance width="499"/>
	<outline>
		<contour>
			<point x="137.3" y="814.72" type="line"/>
			<point x="100" y="1277.84" type="line"/>
			<point x="100" y="1456" type="line"/>
			<point x="398.4" y="1456" type="line"/>
			<point x="398.4" y="1277.84" type="line"/>
			<point x="361.1" y="814.72" type="line"/>
		</contour>
	</outline>
</glyph>
<glyph name="parenright" format="2">
  <advance width="842"/>
  <unicode hex="0029"/>
  <outline>
    <contour>
      <point x="81.9" y="-436.0" type="qcurve"/>
      <point x="81.9" y="-217.55443037974683" type="line"/>
      <point x="196.4013924050633" y="-147.69443037974682"/>
      <point x="375.75" y="173.19518987341772"/>
      <point x="375.75" y="508.0" type="qcurve" smooth="yes"/>
      <point x="375.75" y="532.0" type="line" smooth="yes"/>
      <point x="375.75" y="848.4967088607594"/>
      <point x="195.50139240506329" y="1185.5944303797469"/>
      <point x="81.9" y="1257.4044303797468" type="qcurve"/>
      <point x="81.9" y="1476.0" type="line"/>
      <point x="350.2518987341772" y="1366.74"/>
      <point x="720.9196202531645" y="909.873164556962"/>
      <point x="720.9196202531645" y="525.0" type="qcurve" smooth="yes"/>
      <point x="720.9196202531645" y="515.0" type="line" smooth="yes"/>
      <point x="720.9196202531645" y="107.89556962025318"/>
      <point x="352.5018987341772" y="-327.19"/>
    </contour>
  </outline>
</glyph>
<glyph name="asterisk" format="2">
	<unicode hex="002A"/>
	<advance width="1192"/>
	<outline>
		<contour>
			<point x="58" y="999.12" type="line"/>
			<point x="154.72" y="1269.06" type="line"/>
			<point x="472.7" y="1129.38" type="line"/>
			<point x="439.48" y="1476" type="line"/>
			<point x="752.48" y="1476" type="line"/>
			<point x="719.26" y="1129.38" type="line"/>
			<point x="1037.24" y="1269.06" type="line"/>
			<point x="1133.96" y="999.12" type="line"/>
			<point x="795.78" y="924.2" type="line"/>
			<point x="1025.22" y="663.76" type="line"/>
			<point x="772" y="497.2" type="line"/>
			<point x="595.98" y="798.42" type="line"/>
			<point x="419.96" y="497.2" type="line"/>
			<point x="166.74" y="663.76" type="line"/>
			<point x="396.18" y="924.2" type="line"/>
		</contour>
	</outline>
</glyph>
<glyph name="comma" format="2">
  <advance width="703"/>
  <unicode hex="002C"/>
  <outline>
    <contour>
      <point x="81.05696202531647" y="-240.54" type="line"/>
      <point x="144.6227848101266" y="-166.66"/>
      <point x="207.0" y="-5.9499999999999975"/>
      <point x="207.0" y="99.64" type="qcurve" smooth="yes"/>
      <point x="207.0" y="322.94000000000005" type="line"/>
      <point x="517.302911392405" y="322.94000000000005" type="line"/>
      <point x="517.5429113924051" y="99.64" type="line" smooth="yes"/>
      <point x="517.5429113924051" y="-38.61"/>
      <point x="378.07860759493667" y="-269.08"/>
      <point x="262.75835443037977" y="-353.68" type="qcurve"/>
    </contour>
  </outline>
</glyph>
<glyph name="slash" format="2">
  <advance width="615"/>
  <unicode hex="002F"/>
  <outline>
    <contour>
      <point x="-102.7" y="-125.0" type="line"/>
      <point x="440.59000000000003" y="1456.0" type="line"/>
      <point x="718.0221518987341" y="1456.0" type="line"/>
      <point x="175.07215189873415" y="-125.0" type="line"/>
    </contour>
  </outline>
</glyph>
<glyph name="two" format="2">
  <advance width="1193"/>
  <unicode hex="0032"/>
  <outline>
    <contour>
      <point x="27.84177215189875" y="0.0" type="line"/>
      <point x="27.84177215189875" y="203.35000000000002" type="line"/>
      <point x="619.5683544303797" y="775.45" type="line" smooth="yes"/>
      <point x="703.3224050632912" y="857.55"/>
      <point x="769.6" y="1002.5"/>
      <point x="769.6" y="1077.4" type="qcurve" smooth="yes"/>
      <point x="769.6" y="1159.3"/>
      <point x="675.15" y="1241.65"/>
      <point x="593.5" y="1241.65" type="qcurve" smooth="yes"/>
      <point x="510.84999999999997" y="1242.65"/>
      <point x="408.7" y="1126.4"/>
      <point x="395.7" y="1001.55" type="qcurve" smooth="yes"/>
      <point x="395.7" y="991.55" type="line"/>
      <point x="28.987341772151915" y="991.55" type="line"/>
      <point x="28.987341772151915" y="1001.55" type="line" smooth="yes"/>
      <point x="28.987341772151915" y="1225.05"/>
      <point x="351.5477215189874" y="1486.0"/>
      <point x="596.65" y="1486.0" type="qcurve" smooth="yes"/>
      <point x="850.7177215189873" y="1486.0"/>
      <point x="1135.662658227848" y="1262.2"/>
      <point x="1135.662658227848" y="1087.55" type="qcurve" smooth="yes"/>
      <point x="1135.662658227848" y="958.95"/>
      <point x="1010.7854430379746" y="740.55"/>
      <point x="886.3196202531645" y="621.3" type="qcurve" smooth="yes"/>
      <point x="515.173670886076" y="260.07278481012656" type="line"/>
      <point x="1172.3082278481013" y="260.07278481012656" type="line"/>
      <point x="1172.3082278481013" y="0.0" type="line"/>
    </contour>
  </outline>
</glyph>
<glyph name="three" format="2">
  <advance width="1193"/>
  <unicode hex="0033"/>
  <outline>
    <contour>
      <point x="20.856455696202545" y="413.45" type="qcurve" smooth="yes"/>
      <point x="20.856455696202545" y="423.45" type="line"/>
      <point x="387.5" y="423.45" type="line"/>
      <point x="387.5" y="413.45" type="line" smooth="yes"/>
      <point x="387.5" y="317.3"/>
      <point x="492.65" y="211.45"/>
      <point x="606.8" y="211.45" type="qcurve" smooth="yes"/>
      <point x="690.1" y="211.45"/>
      <point x="816.5" y="318.6"/>
      <point x="816.5" y="428.45" type="qcurve" smooth="yes"/>
      <point x="816.5" y="533.1"/>
      <point x="671.95" y="638.75"/>
      <point x="571.8" y="638.75" type="qcurve" smooth="yes"/>
      <point x="396.3355696202532" y="638.75" type="line"/>
      <point x="396.3355696202532" y="873.5" type="line"/>
      <point x="562.8" y="873.5" type="line" smooth="yes"/>
      <point x="650.95" y="873.5"/>
      <point x="774.5" y="976.75"/>
      <point x="774.5" y="1068.45" type="qcurve" smooth="yes"/>
      <point x="774.5" y="1160.0"/>
      <point x="669.95" y="1244.55"/>
      <point x="606.8" y="1244.55" type="qcurve" smooth="yes"/>
      <point x="514.496329113924" y="1244.55"/>
      <point x="424.5" y="1152.7"/>
      <point x="424.5" y="1066.55" type="qcurve" smooth="yes"/>
      <point x="424.5" y="1056.55" type="line"/>
      <point x="57.856455696202545" y="1056.55" type="line"/>
      <point x="57.856455696202545" y="1066.55" type="line" smooth="yes"/>
      <point x="57.856455696202545" y="1238.05"/>
      <point x="355.24159528350873" y="1486.0"/>
      <point x="606.8" y="1486.0" type="qcurve" smooth="yes"/>
      <point x="894.9538677918442" y="1486.0"/>
      <point x="1140.4972151898735" y="1262.1"/>
      <point x="1140.4972151898735" y="1086.35" type="qcurve" smooth="yes"/>
      <point x="1140.4972151898735" y="989.8"/>
      <point x="1027.9691050008357" y="820.6"/>
      <point x="904.2810126582278" y="766.0" type="qcurve"/>
      <point x="904.2810126582278" y="762.0" type="line"/>
      <point x="1032.972273508459" y="727.7"/>
      <point x="1186.1817721518987" y="547.9"/>
      <point x="1186.1817721518987" y="413.65" type="qcurve" smooth="yes"/>
      <point x="1186.1817721518987" y="206.9"/>
      <point x="842.6598598179678" y="-30.0"/>
      <point x="606.8" y="-30.0" type="qcurve" smooth="yes"/>
      <point x="306.9358709814023" y="-30.0"/>
      <point x="20.856455696202545" y="220.95"/>
    </contour>
  </outline>
</glyph>
<glyph name="seven" format="2">
  <advance width="1193"/>
  <unicode hex="0037"/>
  <outline>
    <contour>
      <point x="215.01911392405063" y="0.0" type="line"/>
      <point x="744.6094936708861" y="1159.503164556962" type="line"/>
      <point x="40.5" y="1159.503164556962" type="line"/>
      <point x="40.5" y="1456.0" type="line"/>
      <point x="1110.4845569620252" y="1456.0" type="line"/>
      <point x="1110.4845569620252" y="1241.8" type="line"/>
      <point x="580.5" y="0.0" type="line"/>
    </contour>
  </outline>
</glyph>
<glyph name="eight" format="2">
	<unicode hex="0038"/>
	<advance width="1193"/>
	<outline>
		<contour>
			<point x="56" y="396" type="qcurve" smooth="yes"/>
			<point x="56" y="526"/>
			<point x="206" y="709"/>
			<point x="331" y="753" type="qcurve"/>
			<point x="331" y="757" type="line"/>
			<point x="226" y="795"/>
			<point x="103" y="967"/>
			<point x="103" y="1102" type="qcurve" smooth="yes"/>
			<point x="103" y="1267"/>
			<point x="376" y="1486"/>
			<point x="601" y="1486" type="qcurve" smooth="yes"/>
			<point x="826" y="1486"/>
			<point x="1090" y="1265"/>
			<point x="1090" y="1104" type="qcurve" smooth="yes"/>
			<point x="1090" y="967"/>
			<point x="962" y="798"/>
			<point x="862" y="757" type="qcurve"/>
			<point x="862" y="753" type="line"/>
			<point x="988" y="709"/>
			<point x="1137" y="526"/>
			<point x="1137" y="396" type="qcurve" smooth="yes"/>
			<point x="1137" y="198"/>
			<point x="846" y="-30"/>
			<point x="601" y="-30" type="qcurve" smooth="yes"/>
			<point x="355" y="-30"/>
			<point x="56" y="198"/>
		</contour>
		<contour>
			<point x="386" y="408" type="qcurve" smooth="yes"/>
			<point x="386" y="311"/>
			<point x="486" y="191"/>
			<point x="601" y="191" type="qcurve" smooth="yes"/>
			<point x="716" y="191"/>
			<point x="807" y="311"/>
			<point x="807" y="408" type="qcurve" smooth="yes"/>
			<point x="807" y="509"/>
			<point x="716" y="634"/>
			<point x="601" y="634" type="qcurve" smooth="yes"/>
			<point x="486" y="634"/>
			<point x="386" y="509"/>
		</contour>
		<contour>
			<point x="424" y="1065" type="qcurve" smooth="yes"/>
			<point x="424" y="973"/>
			<point x="505" y="856"/>
			<point x="601" y="856" type="qcurve" smooth="yes"/>
			<point x="697" y="856"/>
			<point x="770" y="973"/>
			<point x="770" y="1065" type="qcurve" smooth="yes"/>
			<point x="770" y="1152"/>
			<point x="697" y="1265"/>
			<point x="601" y="1265" type="qcurve" smooth="yes"/>
			<point x="505" y="1265"/>
			<point x="424" y="1152"/>
		</contour>
	</outline>
</glyph>
<glyph name="colon" format="2">
	<unicode hex="003A"/>
	<advance width="743"/>
	<outline>
		<contour>
			<point x="176" y="151.64" type="qcurve" smooth="yes"/>
			<point x="176" y="223.1257142857"/>
			<point x="276.6" y="325.28"/>
			<point x="370.96" y="325.28" type="qcurve" smooth="yes"/>
			<point x="465.32" y="325.28"/>
			<point x="566.92" y="223.1257142857"/>
			<point x="566.92" y="151.64" type="qcurve" smooth="yes"/>
			<point x="566.92" y="79.9109677419"/>
			<point x="465.78" y="-22"/>
			<point x="371.34" y="-22" type="qcurve" smooth="yes"/>
			<point x="276.9" y="-22"/>
			<point x="176" y="79.9109677419"/>
		</contour>
		<contour>
			<point x="176" y="967.16" type="qcurve" smooth="yes"/>
			<point x="176" y="1038.897574347"/>
			<point x="276.9" y="1140.48"/>
			<point x="371.34" y="1140.48" type="qcurve" smooth="yes"/>
			<point x="465.78" y="1140.48"/>
			<point x="566.92" y="1038.897574347"/>
			<point x="566.92" y="967.16" type="qcurve" smooth="yes"/>
			<point x="566.92" y="894.7314285714"/>
			<point x="465.32" y="793.52"/>
			<point x="370.96" y="793.52" type="qcurve" smooth="yes"/>
			<point x="276.6" y="793.52"/>
			<point x="176" y="894.7314285714"/>
		</contour>
	</outline>
</glyph>
<glyph name="less" format="2">
  <advance width="1369"/>
  <unicode hex="003C"/>
  <outline>
    <contour>
      <point x="1156.6648101265823" y="132.2154430379747" type="line"/>
      <point x="177.04708860759493" y="524.2154430379746" type="line"/>
      <point x="177.04708860759493" y="829.0154430379747" type="line"/>
      <point x="1156.6648101265823" y="1221.0154430379748" type="line"/>
      <point x="1156.6648101265823" y="847.5040506329113" type="line"/>
      <point x="671.2560759493671" y="676.0768354430379" type="line"/>
      <point x="1156.6648101265823" y="502.6496202531645" type="line"/>
    </contour>
  </outline>
</glyph>
<glyph name="equal" format="2">
  <advance width="1369"/>
  <unicode hex="003D"/>
  <outline>
    <contour>
      <point x="223.98683544303796" y="301.2194936708861" type="line"/>
      <point x="223.98683544303796" y="612.2808860759493" type="line"/>
      <point x="1145.040506329114" y="612.2808860759493" type="line"/>
      <point x="1145.040506329114" y="301.2194936708861" type="line"/>
    </contour>
    <contour>
      <point x="223.98683544303796" y="725.4889873417721" type="line"/>
      <point x="223.98683544303796" y="1037.5503797468355" type="line"/>
      <point x="1145.040506329114" y="1037.5503797468355" type="line"/>
      <point x="1145.040506329114" y="725.4889873417721" type="line"/>
    </contour>
  </outline>
</glyph>
<glyph name="question" format="2">
  <advance width="1309"/>
  <unicode hex="003F"/>
  <outline>
    <contour>
      <point x="388.2291139240506" y="147.78999999999996" type="qcurve" smooth="yes"/>
      <point x="388.2291139240506" y="217.79000000000002"/>
      <point x="498.926582278481" y="317.42999999999995"/>
      <point x="602.3908860759495" y="317.42999999999995" type="qcurve" smooth="yes"/>
      <point x="706.0051898734176" y="317.42999999999995"/>
      <point x="816.552658227848" y="217.79000000000002"/>
      <point x="816.552658227848" y="147.78999999999996" type="qcurve" smooth="yes"/>
      <point x="816.552658227848" y="77.64000000000001"/>
      <point x="706.0051898734176" y="-22.0"/>
      <point x="602.3908860759495" y="-22.0" type="qcurve" smooth="yes"/>
      <point x="498.926582278481" y="-22.0"/>
      <point x="388.2291139240506" y="77.64000000000001"/>
    </contour>
    <contour>
      <point x="92.79" y="1042.2" type="line"/>
      <point x="92.79" y="1076.25" type="line" smooth="yes"/>
      <point x="92.79" y="1265.71"/>
      <point x="388.0958227848101" y="1476.0"/>
      <point x="638.9112658227848" y="1476.0" type="qcurve" smooth="yes"/>
      <point x="894.7144303797468" y="1476.0"/>
      <point x="1181.767088607595" y="1255.71"/>
      <point x="1181.767088607595" y="1071.4" type="qcurve" smooth="yes"/>
      <point x="1181.767088607595" y="938.1400000000001"/>
      <point x="1066.0237974683546" y="750.9499999999999"/>
      <point x="951.4186075949367" y="685.23" type="qcurve" smooth="yes"/>
      <point x="846.1237974683544" y="623.6800000000001"/>
      <point x="782.7189873417722" y="508.89"/>
      <point x="782.7189873417722" y="445.1" type="qcurve" smooth="yes"/>
      <point x="782.7189873417722" y="435.1" type="line"/>
      <point x="416.54544303797474" y="435.1" type="line"/>
      <point x="416.54544303797474" y="445.1" type="line" smooth="yes"/>
      <point x="416.54544303797474" y="565.72"/>
      <point x="514.496075949367" y="732.81"/>
      <point x="628.1113924050633" y="812.03" type="qcurve" smooth="yes"/>
      <point x="738.0948101265823" y="878.54"/>
      <point x="813.9435443037975" y="979.8599999999999"/>
      <point x="813.9435443037975" y="1067.5" type="qcurve" smooth="yes"/>
      <point x="813.9435443037975" y="1155.6100000000001"/>
      <point x="726.4712658227847" y="1244.99"/>
      <point x="639.8112658227849" y="1244.99" type="qcurve" smooth="yes"/>
      <point x="553.4112658227848" y="1244.99"/>
      <point x="458.19126582278477" y="1158.06"/>
      <point x="458.19126582278477" y="1076.25" type="qcurve" smooth="yes"/>
      <point x="458.1912658227849" y="1042.2" type="line"/>
    </contour>
  </outline>
</glyph>
<glyph name="at" format="2">
	<unicode hex="0040"/>
	<advance width="2388"/>
	<outline>
		<contour>
			<point x="688.78" y="400" type="qcurve" smooth="yes"/>
			<point x="688.78" y="680"/>
			<point x="1019.6314285714" y="1052"/>
			<point x="1233" y="1052" type="qcurve" smooth="yes"/>
			<point x="1315.02" y="1052"/>
			<point x="1452.6" y="985"/>
			<point x="1498.02" y="946" type="qcurve"/>
			<point x="1694.4" y="946" type="line"/>
			<point x="1584.6" y="350" type="line" smooth="yes"/>
			<point x="1568.3656844462" y="252.6251992213"/>
			<point x="1631.6551724138" y="175.68"/>
			<point x="1694.2" y="175.68" type="qcurve" smooth="yes"/>
			<point x="1813.2763317511" y="175.68"/>
			<point x="1963.04" y="437.98"/>
			<point x="1963.04" y="650" type="qcurve" smooth="yes"/>
			<point x="1963.04" y="899.54"/>
			<point x="1579.4746368715" y="1277.92"/>
			<point x="1233" y="1277.92" type="qcurve" smooth="yes"/>
			<point x="889.939" y="1277.92"/>
			<point x="426.28" y="798.3"/>
			<point x="426.28" y="460" type="qcurve" smooth="yes"/>
			<point x="426.28" y="124.8"/>
			<point x="835.0942857143" y="-237.92"/>
			<point x="1141.5" y="-237.92" type="qcurve" smooth="yes"/>
			<point x="1269.6" y="-237.92"/>
			<point x="1446.78" y="-183.92"/>
			<point x="1507.5" y="-147.92" type="qcurve"/>
			<point x="1507.5" y="-356" type="line"/>
			<point x="1443.12" y="-400"/>
			<point x="1269.6" y="-446"/>
			<point x="1141.5" y="-446" type="qcurve" smooth="yes"/>
			<point x="723.54" y="-446"/>
			<point x="114" y="40"/>
			<point x="114" y="460" type="qcurve" smooth="yes"/>
			<point x="114" y="880"/>
			<point x="778.44" y="1486"/>
			<point x="1233" y="1486" type="qcurve" smooth="yes"/>
			<point x="1698.22" y="1486"/>
			<point x="2274.24" y="1000"/>
			<point x="2274.24" y="650" type="qcurve" smooth="yes"/>
			<point x="2274.24" y="360"/>
			<point x="1926.58" y="0"/>
			<point x="1674.7" y="0" type="qcurve" smooth="yes"/>
			<point x="1561.7869733656" y="0"/>
			<point x="1391.4301415863" y="99.095773462"/>
			<point x="1354.22" y="180" type="qcurve"/>
			<point x="1306.702498036" y="97.5496748852"/>
			<point x="1153.2391097923" y="0"/>
			<point x="1068.3" y="0" type="qcurve" smooth="yes"/>
			<point x="894.6148471616" y="0"/>
			<point x="688.78" y="220"/>
		</contour>
		<contour>
			<point x="968.98" y="400" type="qcurve" smooth="yes"/>
			<point x="968.98" y="299.22"/>
			<point x="1043.5660382086" y="195.68"/>
			<point x="1113.72" y="195.68" type="qcurve" smooth="yes"/>
			<point x="1183.0761977186" y="195.68"/>
			<point x="1298.3972530703" y="295.08625179"/>
			<point x="1321.92" y="421" type="qcurve" smooth="yes"/>
			<point x="1388.82" y="820.4" type="line"/>
			<point x="1359.8354174303" y="841.0339908261"/>
			<point x="1282.32" y="862.4"/>
			<point x="1243.72" y="862.4" type="qcurve" smooth="yes"/>
			<point x="1124.7527061294" y="862.4"/>
			<point x="968.98" y="598.92"/>
		</contour>
	</outline>
</glyph>
<glyph name="A" format="2">
  <advance width="1350"/>
  <unicode hex="0041"/>
  <anchor x="675.2469620253164" y="0" name="bottom"/>
  <anchor x="1100.5706329113923" y="0" name="ogonek"/>
  <anchor x="675.2469620253164" y="1456.0" name="top"/>
  <outline>
    <contour>
      <point x="-6.0" y="0.0" type="line"/>
      <point x="466.4054430379747" y="1459.8" type="line"/>
      <point x="878.9094936708861" y="1459.8" type="line"/>
      <point x="1356.2939240506328" y="0.0" type="line"/>
      <point x="973.2808860759494" y="0.0" type="line"/>
      <point x="677.966835443038" y="1011.9399999999999" type="line" smooth="yes"/>
      <point x="665.9091139240508" y="1049.4177215189875"/>
      <point x="647.036835443038" y="1117.34"/>
      <point x="639.4268354430379" y="1153.06" type="qcurve"/>
      <point x="630.9468354430379" y="1153.06" type="line"/>
      <point x="623.496835443038" y="1117.34"/>
      <point x="604.3068354430379" y="1049.26"/>
      <point x="592.406835443038" y="1011.9399999999999" type="qcurve" smooth="yes"/>
      <point x="298.6940506329114" y="0.0" type="line"/>
    </contour>
    <contour>
      <point x="238.90405063291135" y="316.35" type="line"/>
      <point x="324.5908860759494" y="553.4399999999999" type="line"/>
      <point x="986.0281012658228" y="553.4399999999999" type="line"/>
      <point x="1071.729493670886" y="316.35" type="line"/>
    </contour>
  </outline>
</glyph>
<glyph name="B" format="2">
  <advance width="1443"/>
  <unicode hex="0042"/>
  <anchor x="721.5" y="0" name="bottom"/>
  <anchor x="721.5" y="1456" name="top"/>
  <outline>
    <contour>
      <point x="170" y="0" type="line"/>
      <point x="170" y="1456" type="line"/>
      <point x="732.04" y="1456" type="line" smooth="yes"/>
      <point x="999.0349152542" y="1456"/>
      <point x="1304.12" y="1270"/>
      <point x="1304.12" y="1070" type="qcurve" smooth="yes"/>
      <point x="1304.12" y="950"/>
      <point x="1193.055304094" y="796.7058859001"/>
      <point x="1108.64" y="768" type="qcurve"/>
      <point x="1108.64" y="764" type="line"/>
      <point x="1213.0751912097" y="734.9221261935"/>
      <point x="1343.72" y="560"/>
      <point x="1343.72" y="420" type="qcurve" smooth="yes"/>
      <point x="1343.72" y="220"/>
      <point x="1025.3958333333" y="0"/>
      <point x="763.32" y="0" type="qcurve" smooth="yes"/>
    </contour>
    <contour>
      <point x="490.84" y="215.04" type="line"/>
      <point x="763.32" y="215.04" type="line" smooth="yes"/>
      <point x="897.3779310345" y="215.04"/>
      <point x="1022.52" y="333.48"/>
      <point x="1022.52" y="434.88" type="qcurve" smooth="yes"/>
      <point x="1022.52" y="536.28"/>
      <point x="897.3452238522" y="653.96"/>
      <point x="763.32" y="653.96" type="qcurve" smooth="yes"/>
      <point x="490.84" y="653.96" type="line"/>
    </contour>
    <contour>
      <point x="490.84" y="862.04" type="line"/>
      <point x="732.04" y="862.04" type="line" smooth="yes"/>
      <point x="865.5242553191" y="862.04"/>
      <point x="982.92" y="962.48"/>
      <point x="982.92" y="1052.64" type="qcurve" smooth="yes"/>
      <point x="982.92" y="1142.8"/>
      <point x="865.5292411548" y="1240.96"/>
      <point x="732.04" y="1240.96" type="qcurve" smooth="yes"/>
      <point x="490.84" y="1240.96" type="line"/>
    </contour>
  </outline>
</glyph>
<glyph name="F" format="2">
  <advance width="1263"/>
  <unicode hex="0046"/>
  <anchor x="706" y="0" name="bottom"/>
  <anchor x="706" y="1456" name="top"/>
  <outline>
    <contour>
      <point x="170" y="0" type="line"/>
      <point x="170" y="1456" type="line"/>
      <point x="1205" y="1456" type="line"/>
      <point x="1205" y="1229" type="line"/>
      <point x="492" y="1229" type="line"/>
      <point x="492" y="801" type="line"/>
      <point x="1117" y="801" type="line"/>
      <point x="1117" y="574" type="line"/>
      <point x="492" y="574" type="line"/>
      <point x="492" y="0" type="line"/>
    </contour>
  </outline>
</glyph>
<glyph name="G" format="2">
  <advance width="1518"/>
  <unicode hex="0047"/>
  <anchor x="831.0" y="0" name="bottom"/>
  <anchor x="801.0" y="1456" name="top"/>
  <outline>
    <contour>
      <point x="115" y="686.8" type="qcurve" smooth="yes"/>
      <point x="115" y="769.2" type="line" smooth="yes"/>
      <point x="115" y="1107.44"/>
      <point x="506.66" y="1486"/>
      <point x="800.28" y="1486" type="qcurve" smooth="yes"/>
      <point x="1097.9844883303" y="1486"/>
      <point x="1427" y="1219"/>
      <point x="1437.94" y="1021.4" type="qcurve"/>
      <point x="1438.44" y="1011.4" type="line"/>
      <point x="1108.68" y="1011.4" type="line"/>
      <point x="1108.18" y="1021.4" type="line"/>
      <point x="1105" y="1114"/>
      <point x="951.7611816193" y="1253.18"/>
      <point x="800.28" y="1253.18" type="qcurve" smooth="yes"/>
      <point x="645.1414035088" y="1253.18"/>
      <point x="445.12" y="995.2905109489"/>
      <point x="445.12" y="769.2" type="qcurve" smooth="yes"/>
      <point x="445.12" y="686.8" type="line" smooth="yes"/>
      <point x="445.12" y="460.7071532847"/>
      <point x="647.8378584392" y="202.82"/>
      <point x="831.56" y="202.82" type="qcurve" smooth="yes"/>
      <point x="923.6127400468" y="202.82"/>
      <point x="1055.5386419046" y="238.1414677248"/>
      <point x="1117.96" y="278.82" type="qcurve"/>
      <point x="1117.96" y="539" type="line"/>
      <point x="810.76" y="539" type="line"/>
      <point x="810.76" y="766.44" type="line"/>
      <point x="1438.44" y="766.44" type="line"/>
      <point x="1438.44" y="177.2" type="line"/>
      <point x="1354.0661886747" y="98.9917962229"/>
      <point x="1050.1527272727" y="-30"/>
      <point x="831.56" y="-30" type="qcurve" smooth="yes"/>
      <point x="504.06" y="-30"/>
      <point x="115" y="348.5348314607"/>
    </contour>
  </outline>
</glyph>
<glyph name="H" format="2">
  <advance width="1622"/>
  <unicode hex="0048"/>
  <anchor x="811.0" y="0" name="bottom"/>
  <anchor x="811.0" y="1119.0" name="center"/>
  <anchor x="811.0" y="1456" name="top"/>
  <outline>
    <contour>
      <point x="170" y="0" type="line"/>
      <point x="170" y="1456" type="line"/>
      <point x="491.56" y="1456" type="line"/>
      <point x="491.56" y="864.1" type="line"/>
      <point x="1130.36" y="864.1" type="line"/>
      <point x="1130.36" y="1456" type="line"/>
      <point x="1451.92" y="1456" type="line"/>
      <point x="1451.92" y="0" type="line"/>
      <point x="1130.36" y="0" type="line"/>
      <point x="1130.36" y="636.66" type="line"/>
      <point x="491.56" y="636.66" type="line"/>
      <point x="491.56" y="0" type="line"/>
    </contour>
  </outline>
</glyph>
<glyph name="I" format="2">
  <advance width="672"/>
  <unicode hex="0049"/>
  <anchor x="336.0" y="0" name="bottom"/>
  <anchor x="303" y="0" name="ogonek"/>
  <anchor x="336.0" y="1456" name="top"/>
  <outline>
    <contour>
      <point x="175" y="0" type="line"/>
      <point x="175" y="1456" type="line"/>
      <point x="496.56" y="1456" type="line"/>
      <point x="496.56" y="0" type="line"/>
    </contour>
  </outline>
</glyph>
<glyph name="J" format="2">
  <advance width="1326"/>
  <unicode hex="004A"/>
  <anchor x="587.5103797468354" y="0" name="bottom"/>
  <anchor x="1001.326329113924" y="1456.0" name="top"/>
  <outline>
    <contour>
      <point x="25.0" y="481.0" type="qcurve" smooth="yes"/>
      <point x="25.0" y="491.0" type="line"/>
      <point x="380.78000000000003" y="491.0" type="line"/>
      <point x="380.78000000000003" y="481.0" type="line" smooth="yes"/>
      <point x="380.78000000000003" y="347.46000000000004"/>
      <point x="491.09364179100004" y="212.26999999999998"/>
      <point x="598.18" y="212.26999999999998" type="qcurve" smooth="yes"/>
      <point x="705.416358209" y="212.26999999999998"/>
      <point x="815.73" y="367.2996246673"/>
      <point x="815.73" y="510.5" type="qcurve" smooth="yes"/>
      <point x="815.73" y="1456.0" type="line"/>
      <point x="1171.5099999999998" y="1456.0" type="line"/>
      <point x="1171.5099999999998" y="510.5" type="line" smooth="yes"/>
      <point x="1171.5099999999998" y="260.8376923077"/>
      <point x="859.8305063291139" y="-30.0"/>
      <point x="598.18" y="-30.0" type="qcurve" smooth="yes"/>
      <point x="336.679493670886" y="-30.0"/>
      <point x="25.0" y="241.35"/>
    </contour>
  </outline>
</glyph>
<glyph name="L" format="2">
  <advance width="1213"/>
  <unicode hex="004C"/>
  <anchor x="725" y="0" name="bottom"/>
  <anchor x="998" y="810.0" name="center"/>
  <anchor x="413" y="1456" name="top"/>
  <anchor x="749" y="1116" name="topright"/>
  <outline>
    <contour>
      <point x="170" y="0" type="line"/>
      <point x="170" y="1456" type="line"/>
      <point x="491.56" y="1456" type="line"/>
      <point x="491.56" y="227.44" type="line"/>
      <point x="1188.92" y="227.44" type="line"/>
      <point x="1188.92" y="0" type="line"/>
    </contour>
  </outline>
</glyph>
<glyph name="M" format="2">
  <advance width="1873"/>
  <unicode hex="004D"/>
  <anchor x="936.433164556962" y="0" name="bottom"/>
  <anchor x="936.433164556962" y="1456.0" name="top"/>
  <outline>
    <contour>
      <point x="167.6" y="0.0" type="line"/>
      <point x="167.6" y="1456.0" type="line"/>
      <point x="614.817088607595" y="1456.0" type="line"/>
      <point x="889.0136708860759" y="574.2788607594936" type="line" smooth="yes"/>
      <point x="900.8559493670886" y="539.1288607594936"/>
      <point x="921.713670886076" y="470.9788607594936"/>
      <point x="930.5636708860759" y="430.3788607594936" type="qcurve"/>
      <point x="938.4136708860759" y="430.3788607594936" type="line"/>
      <point x="947.4136708860759" y="470.9788607594936"/>
      <point x="967.113670886076" y="539.1288607594936"/>
      <point x="978.113670886076" y="574.2788607594936" type="qcurve" smooth="yes"/>
      <point x="1237.75" y="1456.0" type="line"/>
      <point x="1705.266329113924" y="1456.0" type="line"/>
      <point x="1705.266329113924" y="0.0" type="line"/>
      <point x="1349.8" y="0.0" type="line"/>
      <point x="1349.8" y="911.4886075949368" type="line" smooth="yes"/>
      <point x="1349.8" y="946.7886075949367"/>
      <point x="1353.0308860759494" y="1035.5386075949368"/>
      <point x="1356.0308860759494" y="1070.6886075949367" type="qcurve"/>
      <point x="1345.8" y="1070.6886075949367" type="line"/>
      <point x="1336.95" y="1035.5386075949368"/>
      <point x="1315.25" y="946.7886075949367"/>
      <point x="1304.25" y="911.4886075949368" type="qcurve" smooth="yes"/>
      <point x="1027.05" y="0.0" type="line"/>
      <point x="748.563924050633" y="0.0" type="line"/>
      <point x="464.4" y="916.4077215189874" type="line" smooth="yes"/>
      <point x="453.40772151898733" y="951.8654430379746"/>
      <point x="433.7" y="1040.4577215189875"/>
      <point x="428.7" y="1075.6077215189875" type="qcurve"/>
      <point x="417.6191139240506" y="1075.6077215189875" type="line"/>
      <point x="420.6191139240506" y="1040.4577215189875"/>
      <point x="426.7" y="951.7077215189873"/>
      <point x="426.7" y="916.4077215189874" type="qcurve" smooth="yes"/>
      <point x="426.7" y="0.0" type="line"/>
    </contour>
  </outline>
</glyph>
<glyph name="N" format="2">
  <advance width="1536"/>
  <unicode hex="004E"/>
  <anchor x="768.0" y="0" name="bottom"/>
  <anchor x="768.0" y="1456.0" name="top"/>
  <outline>
    <contour>
      <point x="167.6" y="0.0" type="line"/>
      <point x="167.6" y="1456.0" type="line"/>
      <point x="578.1125316455697" y="1456.0" type="line"/>
      <point x="1028.7686075949368" y="568.9354430379747" type="line" smooth="yes"/>
      <point x="1044.6108860759496" y="538.9354430379747"/>
      <point x="1071.4108860759495" y="461.2854430379746"/>
      <point x="1081.7263291139243" y="428.18544303797466" type="qcurve"/>
      <point x="1089.6917721518987" y="428.18544303797466" type="line"/>
      <point x="1085.918607594937" y="463.4854430379746"/>
      <point x="1082.3108860759494" y="568.4854430379746"/>
      <point x="1082.3108860759494" y="603.9354430379747" type="qcurve" smooth="yes"/>
      <point x="1082.3108860759494" y="1456.0" type="line"/>
      <point x="1367.88" y="1456.0" type="line"/>
      <point x="1367.88" y="0.0" type="line"/>
      <point x="961.3182278481013" y="0.0" type="line"/>
      <point x="503.6222784810126" y="877.3462025316456" type="line" smooth="yes"/>
      <point x="486.6222784810126" y="907.5039240506329"/>
      <point x="464.5222784810127" y="969.9962025316456"/>
      <point x="454.8222784810127" y="1003.0962025316456" type="qcurve"/>
      <point x="446.6991139240506" y="1003.0962025316456" type="line"/>
      <point x="450.47227848101267" y="967.6462025316456"/>
      <point x="454.39544303797464" y="892.6462025316456"/>
      <point x="454.39544303797464" y="857.3462025316456" type="qcurve" smooth="yes"/>
      <point x="454.39544303797464" y="0.0" type="line"/>
    </contour>
  </outline>
</glyph>
<glyph name="P" format="2">
  <advance width="1398"/>
  <unicode hex="0050"/>
  <anchor x="699.0" y="0" name="bottom"/>
  <anchor x="699.0" y="1456" name="top"/>
  <outline>
    <contour>
      <point x="170" y="0" type="line"/>
      <point x="170" y="1456" type="line"/>
      <point x="730.92" y="1456" type="line" smooth="yes"/>
      <point x="1016.4817236514" y="1456"/>
      <point x="1323.32" y="1198.26"/>
      <point x="1323.32" y="982.76" type="qcurve" smooth="yes"/>
      <point x="1323.32" y="767.26"/>
      <point x="1016.4817236514" y="505.52"/>
      <point x="730.92" y="505.52" type="qcurve" smooth="yes"/>
      <point x="491.56" y="505.52" type="line"/>
      <point x="491.56" y="0" type="line"/>
    </contour>
    <contour>
      <point x="491.56" y="732.96" type="line"/>
      <point x="730.92" y="732.96" type="line" smooth="yes"/>
      <point x="881.3466433973" y="732.96"/>
      <point x="1001.76" y="878.26"/>
      <point x="1001.76" y="982.76" type="qcurve" smooth="yes"/>
      <point x="1001.76" y="1087.26"/>
      <point x="881.3466433973" y="1228.56"/>
      <point x="730.92" y="1228.56" type="qcurve" smooth="yes"/>
      <point x="491.56" y="1228.56" type="line"/>
    </contour>
  </outline>
</glyph>
<glyph name="S" format="2">
  <advance width="1390"/>
  <unicode hex="0053"/>
  <anchor x="695.0" y="0" name="bottom"/>
  <anchor x="695.0" y="1456" name="top"/>
  <outline>
    <contour>
      <point x="90" y="419" type="qcurve" smooth="yes"/>
      <point x="90" y="441" type="line"/>
      <point x="411.92" y="441" type="line"/>
      <point x="411.92" y="419" type="line" smooth="yes"/>
      <point x="411.92" y="311.5"/>
      <point x="565.42" y="202.5"/>
      <point x="703.42" y="202.5" type="qcurve" smooth="yes"/>
      <point x="841.42" y="202.5"/>
      <point x="988.42" y="305.5"/>
      <point x="988.42" y="389" type="qcurve" smooth="yes"/>
      <point x="988.42" y="474.5"/>
      <point x="865.68" y="560"/>
      <point x="612.32" y="615" type="qcurve" smooth="yes"/>
      <point x="358.96" y="671"/>
      <point x="114.02" y="877.5"/>
      <point x="114.02" y="1063" type="qcurve" smooth="yes"/>
      <point x="114.02" y="1244"/>
      <point x="421.92" y="1486"/>
      <point x="694.42" y="1486" type="qcurve" smooth="yes"/>
      <point x="965.94" y="1486"/>
      <point x="1284.34" y="1228.5"/>
      <point x="1284.34" y="1043" type="qcurve" smooth="yes"/>
      <point x="1284.34" y="1021" type="line"/>
      <point x="963.42" y="1021" type="line"/>
      <point x="963.42" y="1043" type="line" smooth="yes"/>
      <point x="963.42" y="1137.5"/>
      <point x="828.42" y="1253.5"/>
      <point x="694.42" y="1253.5" type="qcurve" smooth="yes"/>
      <point x="562.42" y="1253.5"/>
      <point x="435.42" y="1162.5"/>
      <point x="435.42" y="1097" type="qcurve" smooth="yes"/>
      <point x="435.42" y="1006.5"/>
      <point x="547.2" y="931"/>
      <point x="773.52" y="882" type="qcurve" smooth="yes"/>
      <point x="1033.84" y="824"/>
      <point x="1309.82" y="602.5"/>
      <point x="1309.82" y="407" type="qcurve" smooth="yes"/>
      <point x="1309.82" y="216"/>
      <point x="982.68" y="-30"/>
      <point x="703.42" y="-30" type="qcurve" smooth="yes"/>
      <point x="426.38" y="-30"/>
      <point x="90" y="210.5"/>
    </contour>
  </outline>
</glyph>
<glyph name="T" format="2">
  <advance width="1293"/>
  <unicode hex="0054"/>
  <anchor x="646.5" y="0" name="bottom"/>
  <anchor x="646.5" y="728.0" name="center"/>
  <anchor x="646.5" y="1456" name="top"/>
  <outline>
    <contour>
      <point x="24" y="1228.56" type="line"/>
      <point x="24" y="1456" type="line"/>
      <point x="1268.68" y="1456" type="line"/>
      <point x="1268.68" y="1228.56" type="line"/>
      <point x="807.12" y="1228.56" type="line"/>
      <point x="807.12" y="0" type="line"/>
      <point x="485.56" y="0" type="line"/>
      <point x="485.56" y="1228.56" type="line"/>
    </contour>
  </outline>
</glyph>
<glyph name="U" format="2">
  <advance width="1536"/>
  <unicode hex="0055"/>
  <anchor x="768.0" y="0" name="bottom"/>
  <anchor x="922" y="0" name="ogonek"/>
  <anchor x="768.0" y="1456" name="top"/>
  <anchor x="1280" y="1456" name="topright"/>
  <outline>
    <contour>
      <point x="155" y="549.92" type="qcurve" smooth="yes"/>
      <point x="155" y="1456" type="line"/>
      <point x="476.56" y="1456" type="line"/>
      <point x="476.56" y="549.92" type="line" smooth="yes"/>
      <point x="476.56" y="375.8723809524"/>
      <point x="632.1540811456" y="205.92"/>
      <point x="767.68" y="205.92" type="qcurve" smooth="yes"/>
      <point x="903.0275894988" y="205.92"/>
      <point x="1058.8" y="376.3723809524"/>
      <point x="1058.8" y="549.92" type="qcurve" smooth="yes"/>
      <point x="1058.8" y="1456" type="line"/>
      <point x="1380.36" y="1456" type="line"/>
      <point x="1380.36" y="549.92" type="line" smooth="yes"/>
      <point x="1380.36" y="260.2725368249"/>
      <point x="1028.6" y="-30"/>
      <point x="767.68" y="-30" type="qcurve" smooth="yes"/>
      <point x="506.76" y="-30"/>
      <point x="155" y="260.2725368249"/>
    </contour>
  </outline>
</glyph>
<glyph name="V" format="2">
  <advance width="1283"/>
  <unicode hex="0056"/>
  <anchor x="641.5" y="0" name="bottom"/>
  <anchor x="641.5" y="1456" name="top"/>
  <outline>
    <contour>
      <point x="0" y="1456" type="line"/>
      <point x="340.18" y="1456" type="line"/>
      <point x="624.06" y="446.52" type="line" smooth="yes"/>
      <point x="635.32" y="410.3"/>
      <point x="652" y="341"/>
      <point x="659.54" y="305.4" type="qcurve"/>
      <point x="669.86" y="305.4" type="line"/>
      <point x="677" y="341"/>
      <point x="694.24" y="410.3"/>
      <point x="705.5" y="446.52" type="qcurve" smooth="yes"/>
      <point x="990.1" y="1456" type="line"/>
      <point x="1283.42" y="1456" type="line"/>
      <point x="827.66" y="-3.8" type="line"/>
      <point x="455.76" y="-3.8" type="line"/>
    </contour>
  </outline>
</glyph>
<glyph name="W" format="2">
  <advance width="1987"/>
  <unicode hex="0057"/>
  <anchor x="993.5" y="0" name="bottom"/>
  <anchor x="993.5" y="1456" name="top"/>
  <outline>
    <contour>
      <point x="363.56" y="-3.8" type="line"/>
      <point x="50" y="1456" type="line"/>
      <point x="374.56" y="1456" type="line"/>
      <point x="564" y="451" type="line" smooth="yes"/>
      <point x="571" y="414"/>
      <point x="582" y="349"/>
      <point x="585" y="312" type="qcurve"/>
      <point x="597" y="312" type="line"/>
      <point x="600" y="349"/>
      <point x="609" y="414"/>
      <point x="617" y="451" type="qcurve" smooth="yes"/>
      <point x="824.36" y="1456" type="line"/>
      <point x="1218.04" y="1456" type="line"/>
      <point x="1432" y="452" type="line" smooth="yes"/>
      <point x="1440" y="415"/>
      <point x="1447" y="349"/>
      <point x="1450" y="313" type="qcurve"/>
      <point x="1463" y="313" type="line"/>
      <point x="1466" y="350"/>
      <point x="1473" y="415"/>
      <point x="1480" y="452" type="qcurve" smooth="yes"/>
      <point x="1668.64" y="1456" type="line"/>
      <point x="1936.28" y="1456" type="line"/>
      <point x="1622.88" y="-3.8" type="line"/>
      <point x="1239.52" y="-3.8" type="line"/>
      <point x="1024" y="996" type="line" smooth="yes"/>
      <point x="1016" y="1033"/>
      <point x="1005" y="1104"/>
      <point x="1000" y="1139" type="qcurve"/>
      <point x="988" y="1139" type="line"/>
      <point x="983" y="1104"/>
      <point x="971" y="1035"/>
      <point x="963" y="998" type="qcurve" smooth="yes"/>
      <point x="746.24" y="-2" type="line"/>
    </contour>
  </outline>
</glyph>
<glyph name="X" format="2">
  <advance width="1268"/>
  <unicode hex="0058"/>
  <anchor x="634.0" y="0" name="bottom"/>
  <anchor x="634.0" y="1456" name="top"/>
  <outline>
    <contour>
      <point x="25" y="0" type="line"/>
      <point x="487.68" y="806" type="line"/>
      <point x="581.98" y="806" type="line"/>
      <point x="932.44" y="1456" type="line"/>
      <point x="1220.24" y="1456" type="line"/>
      <point x="779.84" y="670" type="line"/>
      <point x="685.04" y="670" type="line"/>
      <point x="312.8" y="0" type="line"/>
    </contour>
    <contour>
      <point x="47.28" y="1456" type="line"/>
      <point x="420.4" y="1456" type="line"/>
      <point x="770.86" y="806" type="line"/>
      <point x="779.84" y="806" type="line"/>
      <point x="1242.52" y="0" type="line"/>
      <point x="868.9" y="0" type="line"/>
      <point x="496.16" y="670" type="line"/>
      <point x="487.68" y="670" type="line"/>
    </contour>
  </outline>
</glyph>
<glyph name="Y" format="2">
  <advance width="1322"/>
  <unicode hex="0059"/>
  <anchor x="664.453417721519" y="0" name="bottom"/>
  <anchor x="698.8093670886076" y="1456.0" name="top"/>
  <outline>
    <contour>
      <point x="487.897088607595" y="0.0" type="line"/>
      <point x="487.897088607595" y="493.79113924050637" type="line"/>
      <point x="10.350000000000001" y="1456.0" type="line"/>
      <point x="410.2362025316455" y="1456.0" type="line"/>
      <point x="645.7516455696202" y="928.85" type="line" smooth="yes"/>
      <point x="659.7593670886076" y="898.8422784810126"/>
      <point x="684.3016455696202" y="835.7727848101266"/>
      <point x="696.1516455696202" y="804.8496202531645" type="qcurve"/>
      <point x="706.1516455696202" y="804.8496202531645" type="line"/>
      <point x="718.0016455696202" y="835.7727848101266"/>
      <point x="742.0784810126581" y="899.1654430379747"/>
      <point x="756.0784810126581" y="929.1654430379747" type="qcurve" smooth="yes"/>
      <point x="991.6362025316455" y="1456.0" type="line"/>
      <point x="1312.3016455696204" y="1456.0" type="line"/>
      <point x="843.117088607595" y="504.6" type="line"/>
      <point x="843.117088607595" y="0.0" type="line"/>
    </contour>
  </outline>
</glyph>
<glyph name="bracketleft" format="2">
  <advance width="744"/>
  <unicode hex="005B"/>
  <outline>
    <contour>
      <point x="141.75" y="-310.0" type="line"/>
      <point x="141.75" y="1456.0" type="line"/>
      <point x="731.3868354430379" y="1456.0" type="line"/>
      <point x="731.3868354430379" y="1225.6" type="line"/>
      <point x="487.29683544303793" y="1225.6" type="line"/>
      <point x="487.29683544303793" y="-79.6" type="line"/>
      <point x="731.3868354430379" y="-79.6" type="line"/>
      <point x="731.3868354430379" y="-310.0" type="line"/>
    </contour>
  </outline>
</glyph>
<glyph name="backslash" format="2">
  <advance width="615"/>
  <unicode hex="005C"/>
  <outline>
    <contour>
      <point x="-103.6" y="1456.0" type="line"/>
      <point x="175.3321518987342" y="1456.0" type="line"/>
      <point x="718.7321518987342" y="-125.0" type="line"/>
      <point x="440.14" y="-125.0" type="line"/>
    </contour>
  </outline>
</glyph>
<glyph name="grave" format="2">
  <advance width="1024"/>
  <unicode hex="0060"/>
  <outline>
    <contour>
      <point x="555" y="1279" type="line"/>
      <point x="246" y="1566" type="line"/>
      <point x="487" y="1767" type="line"/>
      <point x="741" y="1419" type="line"/>
    </contour>
  </outline>
</glyph>
<glyph name="c" format="2">
  <advance width="1273"/>
  <unicode hex="0063"/>
  <anchor x="668" y="0" name="bottom"/>
  <anchor x="668" y="1116" name="top"/>
  <outline>
    <contour>
      <point x="85" y="542" type="qcurve" smooth="yes"/>
      <point x="85" y="574" type="line" smooth="yes"/>
      <point x="85" y="826"/>
      <point x="395" y="1146"/>
      <point x="667" y="1146" type="qcurve" smooth="yes"/>
      <point x="927" y="1146"/>
      <point x="1195" y="897"/>
      <point x="1195" y="743" type="qcurve" smooth="yes"/>
      <point x="1195" y="738" type="line"/>
      <point x="884" y="738" type="line"/>
      <point x="884" y="743" type="line" smooth="yes"/>
      <point x="884" y="816"/>
      <point x="781" y="927"/>
      <point x="667" y="927" type="qcurve" smooth="yes"/>
      <point x="533" y="927"/>
      <point x="406" y="722"/>
      <point x="406" y="574" type="qcurve" smooth="yes"/>
      <point x="406" y="542" type="line" smooth="yes"/>
      <point x="406" y="394"/>
      <point x="533" y="189"/>
      <point x="667" y="189" type="qcurve" smooth="yes"/>
      <point x="781" y="189"/>
      <point x="884" y="300"/>
      <point x="884" y="373" type="qcurve" smooth="yes"/>
      <point x="884" y="378" type="line"/>
      <point x="1195" y="378" type="line"/>
      <point x="1195" y="373" type="line" smooth="yes"/>
      <point x="1195" y="219"/>
      <point x="927" y="-30"/>
      <point x="667" y="-30" type="qcurve" smooth="yes"/>
      <point x="395" y="-30"/>
      <point x="85" y="290"/>
    </contour>
  </outline>
</glyph>
<glyph name="e" format="2">
  <advance width="1251"/>
  <unicode hex="0065"/>
  <anchor x="677" y="0" name="bottom"/>
  <anchor x="874" y="0" name="ogonek"/>
  <anchor x="650" y="1116" name="top"/>
  <outline>
    <contour>
      <point x="85" y="541.9" type="qcurve" smooth="yes"/>
      <point x="85" y="573.9" type="line" smooth="yes"/>
      <point x="85" y="825.8964939024"/>
      <point x="395.1" y="1145.8"/>
      <point x="649.36" y="1145.8" type="qcurve" smooth="yes"/>
      <point x="907.88" y="1145.8"/>
      <point x="1187.12" y="846.4"/>
      <point x="1187.12" y="591.9" type="qcurve" smooth="yes"/>
      <point x="1187.12" y="477.46" type="line"/>
      <point x="309.46" y="477.46" type="line"/>
      <point x="309.46" y="682.5" type="line"/>
      <point x="875.42" y="682.5" type="line"/>
      <point x="874" y="640" type="line"/>
      <point x="875" y="768"/>
      <point x="765" y="933"/>
      <point x="641" y="933" type="qcurve" smooth="yes"/>
      <point x="525" y="933"/>
      <point x="394.7" y="725.0117460317"/>
      <point x="394.7" y="573.9" type="qcurve" smooth="yes"/>
      <point x="394.7" y="541.9" type="line" smooth="yes"/>
      <point x="394.7" y="390.9187113402"/>
      <point x="532.6002375487" y="182.76"/>
      <point x="677.12" y="182.76" type="qcurve" smooth="yes"/>
      <point x="771.4861406387" y="182.76"/>
      <point x="907.84" y="272.08"/>
      <point x="949.7" y="332.8" type="qcurve"/>
      <point x="1155.04" y="175" type="line"/>
      <point x="1104.56" y="96.28"/>
      <point x="852.34" y="-30"/>
      <point x="677.12" y="-30" type="qcurve" smooth="yes"/>
      <point x="391" y="-30"/>
      <point x="85" y="289.8403703704"/>
    </contour>
  </outline>
</glyph>
<glyph name="f" format="2">
  <advance width="684"/>
  <unicode hex="0066"/>
  <anchor x="342.0" y="0" name="bottom"/>
  <anchor x="342.0" y="1556" name="top"/>
  <outline>
    <contour>
      <point x="177.2" y="0" type="line"/>
      <point x="177.2" y="1131.6" type="line" smooth="yes"/>
      <point x="177.2" y="1339.1080898876"/>
      <point x="424.7201139484" y="1556"/>
      <point x="638.52" y="1556" type="qcurve" smooth="yes"/>
      <point x="667.94" y="1556"/>
      <point x="729.12" y="1548"/>
      <point x="756.88" y="1540" type="qcurve"/>
      <point x="747.74" y="1325.52" type="line"/>
      <point x="727.62" y="1329.52"/>
      <point x="681.24" y="1335.52"/>
      <point x="656.64" y="1335.52" type="qcurve" smooth="yes"/>
      <point x="576.8525851319" y="1335.52"/>
      <point x="489.48" y="1233.56"/>
      <point x="489.48" y="1131.6" type="qcurve" smooth="yes"/>
      <point x="489.48" y="1019.22" type="line"/>
      <point x="489.48" y="997.22" type="line"/>
      <point x="489.48" y="0" type="line"/>
    </contour>
    <contour>
      <point x="25" y="900.64" type="line"/>
      <point x="25" y="1115.8" type="line"/>
      <point x="310.92" y="1115.8" type="line"/>
      <point x="354.12" y="1115.8" type="line"/>
      <point x="694.04" y="1115.8" type="line"/>
      <point x="694.04" y="900.64" type="line"/>
    </contour>
  </outline>
</glyph>
<glyph name="g" format="2">
  <advance width="1409"/>
  <unicode hex="0067"/>
  <anchor x="704.2622784810127" y="-416.0" name="bottom"/>
  <anchor x="704.2622784810127" y="1115.8" name="top"/>
  <outline>
    <contour>
      <point x="158.54886075949364" y="-281.75" type="qcurve"/>
      <point x="273.1320253164557" y="-73.6" type="line"/>
      <point x="336.09297263077724" y="-125.37256874939999"/>
      <point x="540.9540787623177" y="-204.99"/>
      <point x="661.9068354430378" y="-204.99" type="qcurve" smooth="yes"/>
      <point x="780.9493314580747" y="-204.99"/>
      <point x="918.3554430379746" y="-57.31999999999999"/>
      <point x="918.3554430379746" y="76.35" type="qcurve" smooth="yes"/>
      <point x="918.3554430379746" y="111.25" type="line"/>
      <point x="875.46" y="48.41"/>
      <point x="710.8346835443037" y="-20.0"/>
      <point x="598.306582278481" y="-20.0" type="qcurve" smooth="yes"/>
      <point x="364.1118987341772" y="-20.0"/>
      <point x="82.75" y="298.0566037736"/>
      <point x="82.75" y="541.9" type="qcurve" smooth="yes"/>
      <point x="82.75" y="573.9" type="line" smooth="yes"/>
      <point x="82.75" y="817.573374613"/>
      <point x="364.2618987341772" y="1135.8"/>
      <point x="598.4565822784809" y="1135.8" type="qcurve" smooth="yes"/>
      <point x="710.8246835443039" y="1135.8"/>
      <point x="885.5877215189873" y="1054.1100000000001"/>
      <point x="921.8654430379746" y="991.55" type="qcurve"/>
      <point x="926.4154430379747" y="991.55" type="line"/>
      <point x="933.7454430379746" y="1115.8" type="line"/>
      <point x="1263.9245569620255" y="1115.8" type="line"/>
      <point x="1263.9245569620255" y="76.35" type="line" smooth="yes"/>
      <point x="1263.9245569620255" y="-171.13000000000002"/>
      <point x="932.6505063291139" y="-436.0"/>
      <point x="671.6054430379746" y="-436.0" type="qcurve" smooth="yes"/>
      <point x="512.7365822784809" y="-436.0"/>
      <point x="241.80696202531644" y="-348.15999999999997"/>
    </contour>
    <contour>
      <point x="438.4854430379746" y="541.9" type="line" smooth="yes"/>
      <point x="438.4854430379746" y="403.5973544974"/>
      <point x="560.4154430379747" y="215.20999999999998"/>
      <point x="687.9554430379746" y="215.20999999999998" type="qcurve" smooth="yes"/>
      <point x="771.9654430379746" y="215.20999999999998"/>
      <point x="891.3754430379746" y="313.18"/>
      <point x="918.3554430379746" y="376.56" type="qcurve"/>
      <point x="918.3554430379746" y="739.24" type="line"/>
      <point x="891.0654430379747" y="804.87"/>
      <point x="771.9654430379746" y="900.59"/>
      <point x="688.1054430379746" y="900.59" type="qcurve" smooth="yes"/>
      <point x="560.4154430379747" y="900.59"/>
      <point x="438.4854430379746" y="712.1538461537999"/>
      <point x="438.4854430379746" y="573.9" type="qcurve" smooth="yes"/>
    </contour>
  </outline>
</glyph>
<glyph name="h" format="2">
  <advance width="1329"/>
  <unicode hex="0068"/>
  <anchor x="664.5" y="0" name="bottom"/>
  <anchor x="401" y="1310.0" name="center"/>
  <anchor x="304" y="1537" name="top"/>
  <outline>
    <contour>
      <point x="148" y="0" type="line"/>
      <point x="148" y="1536" type="line"/>
      <point x="460.28" y="1536" type="line"/>
      <point x="460.28" y="984.8" type="line"/>
      <point x="513.8" y="1060.84"/>
      <point x="683.08" y="1135.8"/>
      <point x="784.54" y="1135.8" type="qcurve" smooth="yes"/>
      <point x="970.46" y="1135.8"/>
      <point x="1190.68" y="922.2"/>
      <point x="1190.68" y="671.12" type="qcurve" smooth="yes"/>
      <point x="1190.68" y="0" type="line"/>
      <point x="878.4" y="0" type="line"/>
      <point x="878.4" y="673.12" type="line" smooth="yes"/>
      <point x="878.4" y="799.76"/>
      <point x="780.74" y="909.12"/>
      <point x="690.7" y="909.12" type="qcurve" smooth="yes"/>
      <point x="612.4" y="909.12"/>
      <point x="495.74" y="816.02"/>
      <point x="460.28" y="742.52" type="qcurve"/>
      <point x="460.28" y="0" type="line"/>
    </contour>
  </outline>
</glyph>
<glyph name="i" format="2">
  <advance width="626"/>
  <unicode hex="0069"/>
  <anchor x="313.0" y="0" name="bottom"/>
  <anchor x="313.0" y="1115.8" name="top"/>
  <anchor x="259" y="0" name="ogonek"/>
  <outline>
    <contour>
      <point x="157" y="0" type="line"/>
      <point x="157" y="1115.8" type="line"/>
      <point x="469.28" y="1115.8" type="line"/>
      <point x="469.28" y="0" type="line"/>
    </contour>
    <contour>
      <point x="136.08" y="1390.72" type="qcurve" smooth="yes"/>
      <point x="136.08" y="1461.32"/>
      <point x="228.0508108108" y="1555.12"/>
      <point x="313.16" y="1555.12" type="qcurve" smooth="yes"/>
      <point x="398.2691891892" y="1555.12"/>
      <point x="490.24" y="1460.32"/>
      <point x="490.24" y="1390.72" type="qcurve" smooth="yes"/>
      <point x="490.24" y="1320.12"/>
      <point x="398.2691891892" y="1226.32"/>
      <point x="313.16" y="1226.32" type="qcurve" smooth="yes"/>
      <point x="228.0508108108" y="1226.32"/>
      <point x="136.08" y="1320.12"/>
    </contour>
  </outline>
</glyph>
<glyph name="j" format="2">
  <advance width="626"/>
  <unicode hex="006A"/>
  <anchor x="313.0" y="-436" name="bottom"/>
  <anchor x="313.0" y="1115.8" name="top"/>
  <outline>
    <contour>
      <point x="-69.18" y="-410" type="qcurve"/>
      <point x="-69.18" y="-195.52" type="line"/>
      <point x="-50.56" y="-201.52"/>
      <point x="18.26" y="-215.52"/>
      <point x="46.02" y="-215.52" type="qcurve" smooth="yes"/>
      <point x="98.44" y="-215.52"/>
      <point x="157" y="-145.52"/>
      <point x="157" y="-65.52" type="qcurve" smooth="yes"/>
      <point x="157" y="1115.8" type="line"/>
      <point x="469.28" y="1115.8" type="line"/>
      <point x="469.28" y="-90" type="line" smooth="yes"/>
      <point x="469.28" y="-270"/>
      <point x="278.9744262295" y="-436"/>
      <point x="94.36" y="-436" type="qcurve" smooth="yes"/>
      <point x="53.3" y="-436"/>
      <point x="-44.6933300333" y="-419.4260922438"/>
    </contour>
    <contour>
      <point x="136.08" y="1390.72" type="qcurve" smooth="yes"/>
      <point x="136.08" y="1460.32"/>
      <point x="228.0508108108" y="1555.12"/>
      <point x="313.16" y="1555.12" type="qcurve" smooth="yes"/>
      <point x="398.2691891892" y="1555.12"/>
      <point x="490.24" y="1460.32"/>
      <point x="490.24" y="1390.72" type="qcurve" smooth="yes"/>
      <point x="490.24" y="1320.12"/>
      <point x="398.2691891892" y="1226.32"/>
      <point x="313.16" y="1226.32" type="qcurve" smooth="yes"/>
      <point x="228.0508108108" y="1226.32"/>
      <point x="136.08" y="1320.12"/>
    </contour>
  </outline>
</glyph>
<glyph name="k" format="2">
  <advance width="1171"/>
  <unicode hex="006B"/>
  <anchor x="623" y="0" name="bottom"/>
  <anchor x="623" y="1116" name="top"/>
  <outline>
    <contour>
      <point x="148" y="0" type="line"/>
      <point x="148" y="1536" type="line"/>
      <point x="459.96" y="1536" type="line"/>
      <point x="459.96" y="701.94" type="line"/>
      <point x="783" y="1115" type="line"/>
      <point x="1134" y="1115" type="line"/>
      <point x="459.96" y="340.84" type="line"/>
      <point x="459.96" y="0" type="line"/>
    </contour>
    <contour>
      <point x="810" y="0" type="line"/>
      <point x="468" y="536" type="line"/>
      <point x="676" y="769" type="line"/>
      <point x="1187.46" y="0" type="line"/>
    </contour>
  </outline>
</glyph>
<glyph name="l" format="2">
  <advance width="624"/>
  <unicode hex="006C"/>
  <anchor x="312.0" y="0" name="bottom"/>
  <anchor x="312.0" y="728.0" name="center"/>
  <anchor x="312.0" y="1537" name="top"/>
  <anchor x="408" y="1116" name="topright"/>
  <outline>
    <contour>
      <point x="156" y="0" type="line"/>
      <point x="156" y="1536" type="line"/>
      <point x="468" y="1536" type="line"/>
      <point x="468" y="0" type="line"/>
    </contour>
  </outline>
</glyph>
<glyph name="n" format="2">
  <advance width="1378"/>
  <unicode hex="006E"/>
  <anchor x="688.7891139240506" y="0" name="bottom"/>
  <anchor x="688.7891139240506" y="1115.8" name="top"/>
  <outline>
    <contour>
      <point x="145.0" y="0.0" type="line"/>
      <point x="145.0" y="1115.8" type="line"/>
      <point x="475.0291139240506" y="1115.8" type="line"/>
      <point x="482.3591139240507" y="988.9000000000001" type="line"/>
      <point x="487.0591139240507" y="988.9000000000001" type="line"/>
      <point x="539.5522810854127" y="1061.6690044926"/>
      <point x="714.5538519247963" y="1135.95"/>
      <point x="817.3879746835443" y="1135.95" type="qcurve" smooth="yes"/>
      <point x="1010.2180539821861" y="1135.95"/>
      <point x="1242.2582278481013" y="923.4494402036"/>
      <point x="1242.2582278481013" y="668.72" type="qcurve" smooth="yes"/>
      <point x="1242.2582278481013" y="0.0" type="line"/>
      <point x="896.6891139240506" y="0.0" type="line"/>
      <point x="896.6891139240506" y="672.22" type="line" smooth="yes"/>
      <point x="896.6891139240506" y="796.2061702128"/>
      <point x="801.8155192298507" y="899.52"/>
      <point x="714.8391139240507" y="899.52" type="qcurve" smooth="yes"/>
      <point x="640.3608221541507" y="899.52"/>
      <point x="524.5802538138507" y="807.8247861721"/>
      <point x="490.56911392405055" y="735.62" type="qcurve"/>
      <point x="490.56911392405055" y="0.0" type="line"/>
    </contour>
  </outline>
</glyph>
<glyph name="p" format="2">
  <advance width="1409"/>
  <unicode hex="0070"/>
  <anchor x="704.2622784810127" y="0" name="bottom"/>
  <anchor x="704.2622784810127" y="1115.8" name="top"/>
  <outline>
    <contour>
      <point x="145.0" y="-416.0" type="line"/>
      <point x="145.0" y="1115.8" type="line"/>
      <point x="473.97911392405064" y="1115.8" type="line"/>
      <point x="481.30911392405073" y="991.55" type="line"/>
      <point x="486.0091139240507" y="991.55" type="line"/>
      <point x="522.1368354430379" y="1054.1100000000001"/>
      <point x="698.3998734177216" y="1135.8"/>
      <point x="810.7679746835444" y="1135.8" type="qcurve" smooth="yes"/>
      <point x="1044.962658227848" y="1135.8"/>
      <point x="1326.1745569620255" y="817.573374613"/>
      <point x="1326.1745569620255" y="573.9" type="qcurve" smooth="yes"/>
      <point x="1326.1745569620255" y="541.9" type="line" smooth="yes"/>
      <point x="1326.1745569620255" y="298.0566037736"/>
      <point x="1046.462658227848" y="-20.0"/>
      <point x="813.7679746835444" y="-20.0" type="qcurve" smooth="yes"/>
      <point x="701.3898734177214" y="-20.0"/>
      <point x="533.3145569620253" y="48.41"/>
      <point x="490.56911392405055" y="111.25" type="qcurve"/>
      <point x="490.56911392405055" y="-416.0" type="line"/>
    </contour>
    <contour>
      <point x="490.56911392405055" y="376.56" type="line"/>
      <point x="517.3991139240508" y="313.18"/>
      <point x="640.2591139240506" y="215.20999999999998"/>
      <point x="724.2691139240505" y="215.20999999999998" type="qcurve" smooth="yes"/>
      <point x="850.4591139240506" y="215.20999999999998"/>
      <point x="970.2891139240506" y="400.5973544974"/>
      <point x="970.2891139240506" y="541.9" type="qcurve" smooth="yes"/>
      <point x="970.2891139240506" y="573.9" type="line" smooth="yes"/>
      <point x="970.2891139240506" y="715.4538461538"/>
      <point x="850.4591139240506" y="900.59"/>
      <point x="724.2691139240505" y="900.59" type="qcurve" smooth="yes"/>
      <point x="640.2591139240506" y="900.59"/>
      <point x="517.5591139240507" y="802.62"/>
      <point x="490.56911392405055" y="739.24" type="qcurve"/>
    </contour>
  </outline>
</glyph>
<glyph name="q" format="2">
  <advance width="1359"/>
  <unicode hex="0071"/>
  <anchor x="679.5" y="0" name="bottom"/>
  <anchor x="679.5" y="1115.8" name="top"/>
  <outline>
    <contour>
      <point x="85" y="542" type="qcurve" smooth="yes"/>
      <point x="85" y="574" type="line" smooth="yes"/>
      <point x="85" y="818"/>
      <point x="355" y="1136"/>
      <point x="581" y="1136" type="qcurve" smooth="yes"/>
      <point x="694" y="1136"/>
      <point x="866" y="1052"/>
      <point x="903" y="989" type="qcurve"/>
      <point x="907" y="989" type="line"/>
      <point x="915" y="1116" type="line"/>
      <point x="1211" y="1116" type="line"/>
      <point x="1211" y="-416" type="line"/>
      <point x="899" y="-416" type="line"/>
      <point x="899" y="114" type="line"/>
      <point x="899" y="114" type="line"/>
      <point x="855" y="50"/>
      <point x="694" y="-20"/>
      <point x="581" y="-20" type="qcurve" smooth="yes"/>
      <point x="355" y="-20"/>
      <point x="85" y="299"/>
    </contour>
    <contour>
      <point x="406.2" y="541.9" type="line" smooth="yes"/>
      <point x="406.2" y="399.3973544974"/>
      <point x="529.48" y="205.16"/>
      <point x="661.22" y="205.16" type="qcurve" smooth="yes"/>
      <point x="748.98" y="205.16"/>
      <point x="871.24" y="305.38"/>
      <point x="899.12" y="369.96" type="qcurve"/>
      <point x="899.12" y="745.84" type="line"/>
      <point x="871.08" y="810.42"/>
      <point x="748.98" y="910.64"/>
      <point x="661.22" y="910.64" type="qcurve" smooth="yes"/>
      <point x="529.48" y="910.64"/>
      <point x="406.2" y="716.3538461538"/>
      <point x="406.2" y="573.9" type="qcurve" smooth="yes"/>
    </contour>
  </outline>
</glyph>
<glyph name="t" format="2">
  <advance width="738"/>
  <unicode hex="0074"/>
  <anchor x="480.0" y="0" name="bottom"/>
  <anchor x="334.0" y="649.0" name="center"/>
  <anchor x="334.0" y="1312" name="top"/>
  <anchor x="648" y="1116" name="topright"/>
  <outline>
    <contour>
      <point x="0" y="900.64" type="line"/>
      <point x="0" y="1115.8" type="line"/>
      <point x="687.84" y="1115.8" type="line"/>
      <point x="687.84" y="900.64" type="line"/>
    </contour>
    <contour>
      <point x="168.72" y="322" type="qcurve" smooth="yes"/>
      <point x="168.72" y="993.22" type="line"/>
      <point x="168.72" y="1023.22" type="line"/>
      <point x="168.72" y="1312" type="line"/>
      <point x="481" y="1312" type="line"/>
      <point x="481" y="322" type="line" smooth="yes"/>
      <point x="481" y="252"/>
      <point x="528.8684210526" y="192"/>
      <point x="580.66" y="192" type="qcurve" smooth="yes"/>
      <point x="605.0254320988" y="192"/>
      <point x="653.96" y="204.5"/>
      <point x="677.56" y="214" type="qcurve"/>
      <point x="677.56" y="0" type="line"/>
      <point x="653.8498603287" y="-11.9211907444"/>
      <point x="576.7609174312" y="-30"/>
      <point x="530.88" y="-30" type="qcurve" smooth="yes"/>
      <point x="365.8501754386" y="-30"/>
      <point x="168.72" y="139.76"/>
    </contour>
  </outline>
</glyph>
<glyph name="u" format="2">
  <advance width="1378"/>
  <unicode hex="0075"/>
  <anchor x="688.7891139240506" y="0" name="bottom"/>
  <anchor x="1051.238734177215" y="0" name="ogonek"/>
  <anchor x="688.7891139240506" y="1115.8" name="top"/>
  <anchor x="1087.6921518987342" y="1116.0" name="topright"/>
  <outline>
    <contour>
      <point x="135.0" y="451.58" type="qcurve" smooth="yes"/>
      <point x="135.0" y="1115.8" type="line"/>
      <point x="480.56911392405055" y="1115.8" type="line"/>
      <point x="480.56911392405055" y="449.58" type="line" smooth="yes"/>
      <point x="480.56911392405055" y="324.44"/>
      <point x="576.2791139240506" y="216.28000000000003"/>
      <point x="661.6691139240506" y="216.28000000000003" type="qcurve" smooth="yes"/>
      <point x="736.3691139240506" y="216.28000000000003"/>
      <point x="852.5791139240507" y="307.88"/>
      <point x="886.6891139240506" y="380.17999999999995" type="qcurve"/>
      <point x="886.6891139240506" y="1115.8" type="line"/>
      <point x="1232.2582278481013" y="1115.8" type="line"/>
      <point x="1232.2582278481013" y="0.0" type="line"/>
      <point x="902.2291139240507" y="0.0" type="line"/>
      <point x="894.8991139240507" y="126.89999999999999" type="line"/>
      <point x="890.1991139240506" y="126.89999999999999" type="line"/>
      <point x="836.4959493670885" y="51.96"/>
      <point x="659.4729113924051" y="-20.0"/>
      <point x="558.6702531645569" y="-20.0" type="qcurve" smooth="yes"/>
      <point x="366.04873417721524" y="-20.0"/>
      <point x="135.0" y="196.75"/>
    </contour>
  </outline>
</glyph>
<glyph name="w" format="2">
  <advance width="1778"/>
  <unicode hex="0077"/>
  <anchor x="888.8088607594937" y="0" name="bottom"/>
  <anchor x="888.8088607594937" y="1115.8" name="top"/>
  <outline>
    <contour>
      <point x="21.55" y="1116.0" type="line"/>
      <point x="379.83544303797476" y="1116.0" type="line"/>
      <point x="502.80379746835433" y="497.4070886075949" type="line" smooth="yes"/>
      <point x="510.5037974683544" y="457.4070886075949"/>
      <point x="527.6383544303798" y="373.06481012658224"/>
      <point x="533.249746835443" y="335.9037974683544" type="qcurve"/>
      <point x="539.249746835443" y="335.9037974683544" type="line"/>
      <point x="545.4843037974683" y="374.4843037974683"/>
      <point x="562.1611392405063" y="457.4070886075949"/>
      <point x="573.0111392405063" y="497.4070886075949" type="qcurve" smooth="yes"/>
      <point x="730.8177215189874" y="1116.0" type="line"/>
      <point x="1114.1354430379747" y="1116.0" type="line"/>
      <point x="1270.4916455696202" y="498.9843037974683" type="line" smooth="yes"/>
      <point x="1281.183924050633" y="458.9843037974683"/>
      <point x="1300.8148101265824" y="373.5379746835443"/>
      <point x="1307.2070886075949" y="333.6956962025316" type="qcurve"/>
      <point x="1313.2070886075949" y="333.6956962025316" type="line"/>
      <point x="1318.8184810126581" y="373.6956962025316"/>
      <point x="1336.8993670886075" y="458.66886075949367"/>
      <point x="1345.0570886075948" y="498.9843037974683" type="qcurve" smooth="yes"/>
      <point x="1468.1177215189873" y="1116.0" type="line"/>
      <point x="1756.0677215189874" y="1116.0" type="line"/>
      <point x="1478.5677215189874" y="0.0" type="line"/>
      <point x="1099.1573417721518" y="0.0" type="line"/>
      <point x="933.8540506329114" y="640.4675949367088" type="line" smooth="yes"/>
      <point x="924.1158227848101" y="676.5245569620253"/>
      <point x="905.9007594936709" y="750.0579746835442"/>
      <point x="898.3048101265823" y="787.5344303797468" type="qcurve"/>
      <point x="893.4548101265823" y="787.5344303797468" type="line"/>
      <point x="885.543417721519" y="748.9539240506328"/>
      <point x="867.1937974683544" y="677.2091139240506"/>
      <point x="857.9132911392405" y="640.4675949367088" type="qcurve" smooth="yes"/>
      <point x="696.7677215189873" y="0.0" type="line"/>
      <point x="299.05" y="0.0" type="line"/>
    </contour>
  </outline>
</glyph>
<glyph name="y" format="2">
  <advance width="1079"/>
  <unicode hex="0079"/>
  <anchor x="953.1445569620253" y="0" name="bottom"/>
  <anchor x="588.5005063291139" y="1116.0" name="top"/>
  <outline>
    <contour>
      <point x="115.30379746835442" y="-415.85" type="qcurve"/>
      <point x="115.30379746835442" y="-187.45" type="line"/>
      <point x="140.8537974683544" y="-196.45"/>
      <point x="205.15379746835444" y="-205.6"/>
      <point x="236.6537974683544" y="-205.6" type="qcurve" smooth="yes"/>
      <point x="313.2313924050633" y="-205.6"/>
      <point x="434.62" y="-98.48303797468355"/>
      <point x="464.2269620253164" y="10.269113924050634" type="qcurve"/>
      <point x="375.2405063291139" y="9.961392405063291" type="line"/>
      <point x="4.75" y="1116.0" type="line"/>
      <point x="371.61670886075945" y="1116.0" type="line"/>
      <point x="550.9045569620253" y="485.1798734177215" type="line" smooth="yes"/>
      <point x="563.2199999999999" y="444.3298734177215"/>
      <point x="579.2391139240507" y="361.9449367088607"/>
      <point x="586.323670886076" y="319.0254430379747" type="qcurve"/>
      <point x="592.173670886076" y="319.0254430379747" type="line"/>
      <point x="599.1082278481013" y="361.7872151898734"/>
      <point x="616.5391139240506" y="443.07582278481016"/>
      <point x="628.6968354430379" y="484.07582278481016" type="qcurve" smooth="yes"/>
      <point x="805.9037974683544" y="1116.0" type="line"/>
      <point x="1084.8537974683543" y="1116.0" type="line"/>
      <point x="685.9537974683544" y="-140.0" type="line" smooth="yes"/>
      <point x="637.8537974683544" y="-284.6"/>
      <point x="409.6537974683544" y="-436.0"/>
      <point x="254.1037974683544" y="-436.0" type="qcurve" smooth="yes"/>
      <point x="210.9037974683544" y="-436.0"/>
      <point x="144.00379746835443" y="-427.0"/>
    </contour>
  </outline>
</glyph>
<glyph name="z" format="2">
  <advance width="1113"/>
  <unicode hex="007A"/>
  <anchor x="556.5" y="0" name="bottom"/>
  <anchor x="556.5" y="1115.8" name="top"/>
  <outline>
    <contour>
      <point x="70" y="0" type="line"/>
      <point x="70" y="206.68" type="line"/>
      <point x="597.04" y="890.96" type="line"/>
      <point x="77.48" y="890.64" type="line"/>
      <point x="77.48" y="1115.8" type="line"/>
      <point x="1021.86" y="1115.8" type="line"/>
      <point x="1021.86" y="910.26" type="line"/>
      <point x="494.4" y="225.16" type="line"/>
      <point x="1049.62" y="225.16" type="line"/>
      <point x="1049.62" y="0" type="line"/>
    </contour>
  </outline>
</glyph>
<glyph name="braceleft" format="2">
	<unicode hex="007B"/>
	<advance width="800"/>
	<outline>
		<contour>
			<point x="736.72" y="-312" type="line"/>
			<point x="457.58" y="-312"/>
			<point x="170.7" y="-71.92"/>
			<point x="211.64" y="109.4" type="qcurve" smooth="yes"/>
			<point x="251.4" y="309.2" type="line" smooth="yes"/>
			<point x="274.36" y="415.58"/>
			<point x="171.38" y="483.2"/>
			<point x="82.02" y="483.2" type="qcurve"/>
			<point x="82.02" y="664.8" type="line"/>
			<point x="171.38" y="664.8"/>
			<point x="274.36" y="732.42"/>
			<point x="251.4" y="838.8" type="qcurve" smooth="yes"/>
			<point x="211.64" y="1038.6" type="line" smooth="yes"/>
			<point x="170.7" y="1219.92"/>
			<point x="457.58" y="1460"/>
			<point x="736.72" y="1460" type="qcurve"/>
			<point x="736.72" y="1255.72" type="line"/>
			<point x="612.44" y="1255.72"/>
			<point x="496.84" y="1137.56"/>
			<point x="522.28" y="1013.8" type="qcurve" smooth="yes"/>
			<point x="562.04" y="814" type="line" smooth="yes"/>
			<point x="580.66" y="729.2"/>
			<point x="508" y="603.4"/>
			<point x="408.98" y="574" type="qcurve"/>
			<point x="508" y="544.6"/>
			<point x="580.34" y="418.96"/>
			<point x="562.04" y="334" type="qcurve" smooth="yes"/>
			<point x="522.28" y="134.2" type="line" smooth="yes"/>
			<point x="496.84" y="10.44"/>
			<point x="612.44" y="-107.72"/>
			<point x="736.72" y="-107.72" type="qcurve"/>
		</contour>
	</outline>
</glyph>
<glyph name="bar" format="2">
  <advance width="681"/>
  <unicode hex="007C"/>
  <outline>
    <contour>
      <point x="192.13227848101266" y="-416.0" type="line"/>
      <point x="192.13227848101266" y="1376.0" type="line"/>
      <point x="488.42772151898725" y="1376.0" type="line"/>
      <point x="488.42772151898725" y="-416.0" type="line"/>
    </contour>
  </outline>
</glyph>
<glyph name="braceright" format="2">
	<unicode hex="007D"/>
	<advance width="800"/>
	<outline>
		<contour>
			<point x="63.32" y="-312" type="qcurve"/>
			<point x="63.32" y="-107.72" type="line"/>
			<point x="187.6" y="-107.72"/>
			<point x="303.2" y="10.44"/>
			<point x="277.76" y="134.2" type="qcurve" smooth="yes"/>
			<point x="238" y="334" type="line" smooth="yes"/>
			<point x="219.7" y="418.96"/>
			<point x="292.04" y="544.6"/>
			<point x="391.06" y="574" type="qcurve"/>
			<point x="292.04" y="603.4"/>
			<point x="219.7" y="729.04"/>
			<point x="238" y="814" type="qcurve" smooth="yes"/>
			<point x="277.76" y="1013.8" type="line" smooth="yes"/>
			<point x="303.2" y="1137.56"/>
			<point x="187.6" y="1255.72"/>
			<point x="63.32" y="1255.72" type="qcurve"/>
			<point x="63.32" y="1460" type="line"/>
			<point x="342.46" y="1460"/>
			<point x="629.34" y="1219.92"/>
			<point x="588.4" y="1038.6" type="qcurve" smooth="yes"/>
			<point x="548.64" y="838.8" type="line" smooth="yes"/>
			<point x="525.68" y="732.42"/>
			<point x="628.66" y="664.8"/>
			<point x="718.02" y="664.8" type="qcurve"/>
			<point x="718.02" y="483.2" type="line"/>
			<point x="628.66" y="483.2"/>
			<point x="525.68" y="415.58"/>
			<point x="548.64" y="309.2" type="qcurve" smooth="yes"/>
			<point x="588.4" y="109.4" type="line" smooth="yes"/>
			<point x="629.34" y="-71.92"/>
			<point x="342.46" y="-312"/>
		</contour>
	</outline>
</glyph>
<glyph name="asciitilde" format="2">
	<unicode hex="007E"/>
	<advance width="1523"/>
	<outline>
		<contour>
			<point x="218" y="456" type="qcurve"/>
			<point x="218" y="783" type="line"/>
			<point x="273" y="848"/>
			<point x="427" y="921"/>
			<point x="504" y="922" type="qcurve" smooth="yes"/>
			<point x="540" y="923"/>
			<point x="715" y="861"/>
			<point x="785" y="824" type="qcurve" smooth="yes"/>
			<point x="846" y="793"/>
			<point x="1001" y="741"/>
			<point x="1031" y="741" type="qcurve" smooth="yes"/>
			<point x="1106" y="741"/>
			<point x="1253" y="829"/>
			<point x="1308" y="905" type="qcurve"/>
			<point x="1308" y="576" type="line"/>
			<point x="1253" y="510"/>
			<point x="1108" y="437"/>
			<point x="1032" y="437" type="qcurve" smooth="yes"/>
			<point x="992" y="437"/>
			<point x="815" y="500"/>
			<point x="741" y="540" type="qcurve" smooth="yes"/>
			<point x="683" y="571"/>
			<point x="531" y="618"/>
			<point x="504" y="618" type="qcurve" smooth="yes"/>
			<point x="427" y="618"/>
			<point x="273" y="532"/>
		</contour>
	</outline>
</glyph>
<glyph name="exclamdown" format="2">
  <advance width="620"/>
  <unicode hex="00A1"/>
  <outline>
    <contour>
      <point x="439.1" y="1047.0" type="qcurve" smooth="yes"/>
      <point x="439.1" y="995.6"/>
      <point x="372.55" y="922.0"/>
      <point x="310.0" y="922.0" type="qcurve" smooth="yes"/>
      <point x="247.60000000000002" y="922.0"/>
      <point x="180.9" y="995.6"/>
      <point x="180.9" y="1047.0" type="qcurve" smooth="yes"/>
      <point x="180.9" y="1098.55"/>
      <point x="247.60000000000002" y="1172.15"/>
      <point x="310.0" y="1172.15" type="qcurve" smooth="yes"/>
      <point x="372.55" y="1172.15"/>
      <point x="439.1" y="1098.55"/>
    </contour>
    <contour>
      <point x="396.04999999999995" y="740.0" type="line"/>
      <point x="411.79999999999995" y="-306.6" type="line"/>
      <point x="208.2" y="-306.6" type="line"/>
      <point x="224.1" y="740.0" type="line"/>
    </contour>
  </outline>
</glyph>
<glyph name="cent" format="2">
	<unicode hex="00A2"/>
	<advance width="1230"/>
	<outline>
		<contour>
			<point x="667" y="346" type="qcurve" smooth="yes"/>
			<point x="781" y="346"/>
			<point x="884" y="457"/>
			<point x="884" y="535" type="qcurve"/>
			<point x="1195" y="535" type="line"/>
			<point x="1195" y="376"/>
			<point x="927" y="127"/>
			<point x="667" y="127" type="qcurve" smooth="yes"/>
			<point x="395" y="127"/>
			<point x="85" y="447"/>
			<point x="85" y="699" type="qcurve" smooth="yes"/>
			<point x="85" y="731" type="line" smooth="yes"/>
			<point x="85" y="983"/>
			<point x="395" y="1303"/>
			<point x="667" y="1303" type="qcurve" smooth="yes"/>
			<point x="927" y="1303"/>
			<point x="1195" y="1054"/>
			<point x="1195" y="895" type="qcurve"/>
			<point x="884" y="895" type="line"/>
			<point x="884" y="973"/>
			<point x="781" y="1084"/>
			<point x="667" y="1084" type="qcurve" smooth="yes"/>
			<point x="533" y="1084"/>
			<point x="406" y="879"/>
			<point x="406" y="731" type="qcurve" smooth="yes"/>
			<point x="406" y="699" type="line" smooth="yes"/>
			<point x="406" y="551"/>
			<point x="533" y="346"/>
		</contour>
		<contour>
			<point x="562" y="0" type="line"/>
			<point x="562" y="245" type="line"/>
			<point x="569" y="260" type="line"/>
			<point x="569" y="733" type="line"/>
			<point x="719" y="733" type="line"/>
			<point x="719" y="259" type="line"/>
			<point x="724" y="249" type="line"/>
			<point x="724" y="0" type="line"/>
		</contour>
		<contour>
			<point x="569" y="733" type="line"/>
			<point x="569" y="1224" type="line"/>
			<point x="562" y="1235" type="line"/>
			<point x="562" y="1452" type="line"/>
			<point x="724" y="1452" type="line"/>
			<point x="724" y="1235" type="line"/>
			<point x="719" y="1221" type="line"/>
			<point x="719" y="733" type="line"/>
		</contour>
	</outline>
</glyph>
<glyph name="currency" format="2">
  <advance width="1434"/>
  <unicode hex="00A4"/>
  <guideline x="0" y="901.0" angle="0" identifier="bRYxxRaQQf"/>
  <guideline x="0" y="555.0" angle="0" identifier="917FhrihjR"/>
  <outline>
    <contour>
      <point x="421.8" y="744.0" type="qcurve"/>
      <point x="421.8" y="610.3"/>
      <point x="593.15" y="431.65"/>
      <point x="714.0" y="431.65" type="qcurve" smooth="yes"/>
      <point x="833.85" y="431.65"/>
      <point x="1004.2" y="610.3"/>
      <point x="1004.2" y="744.0" type="qcurve" smooth="yes"/>
      <point x="1004.2" y="875.7"/>
      <point x="833.85" y="1054.35"/>
      <point x="714.0" y="1054.35" type="qcurve" smooth="yes"/>
      <point x="593.15" y="1054.35"/>
      <point x="421.8" y="875.7"/>
    </contour>
    <contour>
      <point x="128.0" y="748.0" type="qcurve"/>
      <point x="128.0" y="1002.0"/>
      <point x="477.0" y="1346.0"/>
      <point x="713.0" y="1346.0" type="qcurve" smooth="yes"/>
      <point x="948.0" y="1346.0"/>
      <point x="1297.0" y="1002.0"/>
      <point x="1297.0" y="748.0" type="qcurve" smooth="yes"/>
      <point x="1297.0" y="496.0"/>
      <point x="948.0" y="148.0"/>
      <point x="713.0" y="148.0" type="qcurve" smooth="yes"/>
      <point x="477.0" y="148.0"/>
      <point x="128.0" y="496.0"/>
    </contour>
    <contour>
      <point x="1355.0" y="1285.0" type="line"/>
      <point x="1117.0" y="1043.0" type="line"/>
      <point x="968.0" y="1199.0" type="line"/>
      <point x="1206.0" y="1441.0" type="line"/>
    </contour>
    <contour>
      <point x="433.0" y="317.0" type="line"/>
      <point x="196.0" y="73.0" type="line"/>
      <point x="47.0" y="228.0" type="line"/>
      <point x="285.0" y="470.0" type="line"/>
    </contour>
    <contour>
      <point x="1236.0" y="81.0" type="line"/>
      <point x="999.0" y="324.0" type="line"/>
      <point x="1149.0" y="479.0" type="line"/>
      <point x="1387.0" y="238.0" type="line"/>
    </contour>
    <contour>
      <point x="305.0" y="1059.0" type="line"/>
      <point x="68.0" y="1302.0" type="line"/>
      <point x="216.0" y="1457.0" type="line"/>
      <point x="453.0" y="1213.0" type="line"/>
    </contour>
  </outline>
</glyph>
<glyph name="yen" format="2">
  <advance width="1303"/>
  <unicode hex="00A5"/>
  <outline>
    <contour>
      <point x="75.92354430379747" y="308.0" type="line"/>
      <point x="75.92354430379747" y="474.5" type="line"/>
      <point x="1235.9235443037976" y="474.5" type="line"/>
      <point x="1235.9235443037976" y="308.0" type="line"/>
    </contour>
    <contour>
      <point x="75.92354430379747" y="618.75" type="line"/>
      <point x="75.92354430379747" y="781.0" type="line"/>
      <point x="537.9235443037974" y="781.0" type="line"/>
      <point x="595.9235443037975" y="669.0" type="line"/>
      <point x="716.9235443037975" y="669.0" type="line"/>
      <point x="768.9235443037975" y="781.0" type="line"/>
      <point x="1235.9235443037976" y="781.0" type="line"/>
      <point x="1235.9235443037976" y="618.75" type="line"/>
    </contour>
    <contour>
      <point x="487.1735443037975" y="0.0" type="line"/>
      <point x="487.1735443037975" y="548.0" type="line"/>
      <point x="-13.826455696202533" y="1456.0" type="line"/>
      <point x="334.9235443037974" y="1456.0" type="line"/>
      <point x="582.9235443037975" y="959.5" type="line" smooth="yes"/>
      <point x="597.7735443037975" y="929.5"/>
      <point x="634.7735443037975" y="830.7"/>
      <point x="642.9235443037975" y="791.0" type="qcurve"/>
      <point x="664.9235443037975" y="791.0" type="line"/>
      <point x="674.9235443037975" y="847.0"/>
      <point x="709.0735443037975" y="929.5"/>
      <point x="723.9235443037975" y="959.5" type="qcurve" smooth="yes"/>
      <point x="975.9235443037976" y="1456.0" type="line"/>
      <point x="1316.6735443037976" y="1456.0" type="line"/>
      <point x="815.6735443037975" y="548.0" type="line"/>
      <point x="815.6735443037975" y="0.0" type="line"/>
    </contour>
  </outline>
</glyph>
<glyph name="dieresis" format="2">
  <advance width="1024"/>
  <unicode hex="00A8"/>
  <outline>
    <contour>
      <point x="84.0" y="1438.0" type="qcurve" smooth="yes"/>
      <point x="84.0" y="1506.0"/>
      <point x="176.0" y="1596.0"/>
      <point x="260.0" y="1596.0" type="qcurve" smooth="yes"/>
      <point x="344.0" y="1596.0"/>
      <point x="436.0" y="1506.0"/>
      <point x="436.0" y="1438.0" type="qcurve" smooth="yes"/>
      <point x="436.0" y="1371.0"/>
      <point x="344.0" y="1280.0"/>
      <point x="259.0" y="1280.0" type="qcurve" smooth="yes"/>
      <point x="175.0" y="1280.0"/>
      <point x="84.0" y="1371.0"/>
    </contour>
    <contour>
      <point x="587.0" y="1438.0" type="qcurve" smooth="yes"/>
      <point x="587.0" y="1506.0"/>
      <point x="678.0" y="1596.0"/>
      <point x="763.0" y="1596.0" type="qcurve" smooth="yes"/>
      <point x="848.0" y="1596.0"/>
      <point x="940.0" y="1506.0"/>
      <point x="940.0" y="1438.0" type="qcurve" smooth="yes"/>
      <point x="940.0" y="1371.0"/>
      <point x="848.0" y="1280.0"/>
      <point x="762.0" y="1280.0" type="qcurve" smooth="yes"/>
      <point x="677.0" y="1280.0"/>
      <point x="587.0" y="1371.0"/>
    </contour>
  </outline>
</glyph>
<glyph name="ordfeminine" format="2">
  <advance width="1117"/>
  <unicode hex="00AA"/>
  <guideline x="0" y="1681.0" angle="0" identifier="3CJlALCfkl"/>
  <guideline x="0" y="909.0" angle="0" identifier="Zdl6NZVQAy"/>
  <outline>
    <contour>
      <point x="720.0" y="873.0" type="line"/>
      <point x="720.0" y="830.0"/>
      <point x="738.0" y="739.0"/>
      <point x="772.0" y="707.0" type="qcurve"/>
      <point x="1021.5" y="707.0" type="line"/>
      <point x="1000.5" y="753.0"/>
      <point x="982.5" y="848.0"/>
      <point x="982.5" y="900.0" type="qcurve" smooth="yes"/>
      <point x="982.5" y="1235.0" type="line" smooth="yes"/>
      <point x="982.5" y="1377.0"/>
      <point x="761.0" y="1530.0"/>
      <point x="560.0" y="1530.0" type="qcurve" smooth="yes"/>
      <point x="355.0" y="1530.0"/>
      <point x="131.25" y="1410.0"/>
      <point x="131.85" y="1299.0" type="qcurve" smooth="yes"/>
      <point x="131.85" y="1265.5" type="line"/>
      <point x="395.0" y="1265.5" type="line"/>
      <point x="395.0" y="1281.0" type="line" smooth="yes"/>
      <point x="395.0" y="1316.0"/>
      <point x="473.8" y="1345.5"/>
      <point x="562.5" y="1345.5" type="qcurve" smooth="yes"/>
      <point x="646.5" y="1345.5"/>
      <point x="720.0" y="1293.0"/>
      <point x="720.0" y="1236.0" type="qcurve" smooth="yes"/>
    </contour>
    <contour>
      <point x="764.0" y="1203.0" type="line"/>
      <point x="549.0" y="1203.0" type="line" smooth="yes"/>
      <point x="312.0" y="1203.0"/>
      <point x="96.55" y="1074.0"/>
      <point x="96.55" y="933.0" type="qcurve" smooth="yes"/>
      <point x="96.55" y="817.0"/>
      <point x="282.0" y="692.0"/>
      <point x="451.0" y="692.0" type="qcurve" smooth="yes"/>
      <point x="563.0" y="692.0"/>
      <point x="730.0" y="772.0"/>
      <point x="772.0" y="847.0" type="qcurve"/>
      <point x="746.0" y="1006.0" type="line"/>
      <point x="742.7" y="942.2"/>
      <point x="622.0" y="874.0"/>
      <point x="506.0" y="874.0" type="qcurve" smooth="yes"/>
      <point x="438.0" y="874.0"/>
      <point x="369.35" y="912.5"/>
      <point x="369.35" y="948.0" type="qcurve" smooth="yes"/>
      <point x="369.35" y="999.0"/>
      <point x="452.0" y="1041.1"/>
      <point x="550.0" y="1042.0" type="qcurve" smooth="yes"/>
      <point x="764.0" y="1042.0" type="line"/>
    </contour>
  </outline>
</glyph>
<glyph name="logicalnot" format="2">
  <advance width="1346"/>
  <unicode hex="00AC"/>
  <outline>
    <contour>
      <point x="1158.0" y="873.0" type="line"/>
      <point x="1158.0" y="276.0" type="line"/>
      <point x="785.0" y="276.0" type="line"/>
      <point x="785.0" y="541.0" type="line"/>
      <point x="120.0" y="541.0" type="line"/>
      <point x="120.0" y="873.0" type="line"/>
    </contour>
  </outline>
</glyph>
<glyph name="registered" format="2">
  <advance width="2113"/>
  <unicode hex="00AE"/>
  <outline>
    <contour>
      <point x="50.0" y="685.0" type="qcurve" smooth="yes"/>
      <point x="50.0" y="1064.0"/>
      <point x="616.0" y="1553.0"/>
      <point x="1055.0" y="1553.0" type="qcurve" smooth="yes"/>
      <point x="1495.0" y="1553.0"/>
      <point x="2063.0" y="1064.0"/>
      <point x="2063.0" y="685.0" type="qcurve" smooth="yes"/>
      <point x="2063.0" y="306.0"/>
      <point x="1495.0" y="-184.0"/>
      <point x="1055.0" y="-184.0" type="qcurve" smooth="yes"/>
      <point x="616.0" y="-184.0"/>
      <point x="50.0" y="306.0"/>
    </contour>
    <contour>
      <point x="344.25" y="684.85" type="qcurve" smooth="yes"/>
      <point x="344.25" y="394.25"/>
      <point x="746.1" y="18.85"/>
      <point x="1058.0" y="18.85" type="qcurve" smooth="yes"/>
      <point x="1368.9" y="18.85"/>
      <point x="1769.75" y="394.4"/>
      <point x="1769.75" y="685.0" type="qcurve" smooth="yes"/>
      <point x="1769.75" y="974.45"/>
      <point x="1368.9" y="1349.0"/>
      <point x="1058.0" y="1349.0" type="qcurve" smooth="yes"/>
      <point x="746.1" y="1349.0"/>
      <point x="344.25" y="974.3"/>
    </contour>
    <contour>
      <point x="1057.0" y="551.0" type="line"/>
      <point x="925.0" y="551.0" type="line"/>
      <point x="925.0" y="206.0" type="line"/>
      <point x="653.0" y="206.0" type="line"/>
      <point x="653.0" y="1179.0" type="line"/>
      <point x="1074.0" y="1179.0" type="line" smooth="yes"/>
      <point x="1311.0" y="1179.0"/>
      <point x="1520.0" y="1033.0"/>
      <point x="1520.0" y="871.0" type="qcurve" smooth="yes"/>
      <point x="1520.0" y="778.0"/>
      <point x="1412.0" y="635.0"/>
      <point x="1295.0" y="601.0" type="qcurve"/>
      <point x="1316.0" y="589.0"/>
      <point x="1345.15" y="558.0"/>
      <point x="1357.0" y="536.0" type="qcurve" smooth="yes"/>
      <point x="1548.0" y="233.0" type="line"/>
      <point x="1548.0" y="206.0" type="line"/>
      <point x="1257.0" y="206.0" type="line"/>
    </contour>
    <contour>
      <point x="1074.0" y="973.5" type="qcurve" smooth="yes"/>
      <point x="925.0" y="973.5" type="line"/>
      <point x="925.0" y="754.5" type="line"/>
      <point x="1074.0" y="754.5" type="line" smooth="yes"/>
      <point x="1167.5" y="754.5"/>
      <point x="1248.55" y="807.1"/>
      <point x="1248.55" y="867.65" type="qcurve" smooth="yes"/>
      <point x="1248.55" y="923.65"/>
      <point x="1166.0" y="973.65"/>
    </contour>
  </outline>
</glyph>
<glyph name="macron" format="2">
  <advance width="1024"/>
  <unicode hex="00AF"/>
  <outline>
    <contour>
      <point x="848.0" y="1519.0" type="line"/>
      <point x="848.0" y="1280.0" type="line"/>
      <point x="176.0" y="1280.0" type="line"/>
      <point x="176.0" y="1519.0" type="line"/>
    </contour>
  </outline>
</glyph>
<glyph name="plusminus" format="2">
  <advance width="1346"/>
  <unicode hex="00B1"/>
  <outline>
    <contour>
      <point x="111.0" y="486.5" type="line"/>
      <point x="111.0" y="840.5" type="line"/>
      <point x="1235.0" y="840.5" type="line"/>
      <point x="1235.0" y="486.5" type="line"/>
    </contour>
    <contour>
      <point x="464.5" y="83.0" type="line"/>
      <point x="464.5" y="1235.0" type="line"/>
      <point x="884.5" y="1235.0" type="line"/>
      <point x="884.5" y="83.0" type="line"/>
    </contour>
    <contour>
      <point x="172.0" y="1.0" type="line"/>
      <point x="172.0" y="335.5" type="line"/>
      <point x="1174.0" y="335.5" type="line"/>
      <point x="1174.0" y="1.0" type="line"/>
    </contour>
  </outline>
</glyph>
<glyph name="twosuperior" format="2">
  <advance width="974"/>
  <unicode hex="00B2"/>
  <outline>
    <contour>
      <point x="104.0" y="620.0" type="line"/>
      <point x="104.0" y="769.5" type="line"/>
      <point x="413.5" y="1028.0" type="line" smooth="yes"/>
      <point x="512.15" y="1110.8"/>
      <point x="572.5" y="1180.5"/>
      <point x="572.5" y="1217.25" type="qcurve" smooth="yes"/>
      <point x="572.5" y="1252.05"/>
      <point x="524.0" y="1290.0"/>
      <point x="478.65" y="1290.0" type="qcurve" smooth="yes"/>
      <point x="416.75" y="1290.0"/>
      <point x="354.5" y="1216.0"/>
      <point x="356.65" y="1148.65" type="qcurve"/>
      <point x="78.65" y="1148.65" type="line"/>
      <point x="77.5" y="1310.8"/>
      <point x="284.0" y="1488.2"/>
      <point x="476.5" y="1488.2" type="qcurve" smooth="yes"/>
      <point x="661.5" y="1488.2"/>
      <point x="857.5" y="1353.0"/>
      <point x="857.5" y="1228.0" type="qcurve" smooth="yes"/>
      <point x="857.5" y="1146.0"/>
      <point x="777.25" y="1028.55"/>
      <point x="644.5" y="921.0" type="qcurve" smooth="yes"/>
      <point x="515.45" y="815.75" type="line"/>
      <point x="894.0" y="815.75" type="line"/>
      <point x="894.0" y="620.0" type="line"/>
    </contour>
  </outline>
</glyph>
<glyph name="threesuperior" format="2">
	<unicode hex="00B3"/>
	<advance width="927"/>
	<outline>
		<contour>
			<point x="60" y="910" type="qcurve"/>
			<point x="316" y="910" type="line"/>
			<point x="316" y="859"/>
			<point x="393" y="805"/>
			<point x="465" y="805" type="qcurve" smooth="yes"/>
			<point x="532" y="805"/>
			<point x="593" y="847"/>
			<point x="593" y="893" type="qcurve" smooth="yes"/>
			<point x="593" y="940"/>
			<point x="530" y="975"/>
			<point x="445" y="975" type="qcurve" smooth="yes"/>
			<point x="346" y="975" type="line"/>
			<point x="346" y="1128" type="line"/>
			<point x="445" y="1128" type="line" smooth="yes"/>
			<point x="521" y="1128"/>
			<point x="577" y="1164"/>
			<point x="577" y="1213" type="qcurve" smooth="yes"/>
			<point x="577" y="1255"/>
			<point x="522" y="1293"/>
			<point x="461" y="1293" type="qcurve" smooth="yes"/>
			<point x="398" y="1293"/>
			<point x="330" y="1240"/>
			<point x="330" y="1191" type="qcurve"/>
			<point x="74" y="1191" type="line"/>
			<point x="74" y="1334"/>
			<point x="273" y="1487"/>
			<point x="458" y="1487" type="qcurve" smooth="yes"/>
			<point x="648" y="1487"/>
			<point x="853" y="1360"/>
			<point x="853" y="1241" type="qcurve" smooth="yes"/>
			<point x="853" y="1185"/>
			<point x="768" y="1084"/>
			<point x="688" y="1060" type="qcurve"/>
			<point x="780" y="1035"/>
			<point x="867" y="934"/>
			<point x="867" y="862" type="qcurve" smooth="yes"/>
			<point x="867" y="740"/>
			<point x="656" y="608"/>
			<point x="459" y="608" type="qcurve" smooth="yes"/>
			<point x="267" y="608"/>
			<point x="60" y="764"/>
		</contour>
	</outline>
</glyph>
<glyph name="acute" format="2">
  <advance width="1024"/>
  <unicode hex="00B4"/>
  <outline>
    <contour>
      <point x="272.0" y="1420.0" type="line"/>
      <point x="526.0" y="1768.0" type="line"/>
      <point x="767.0" y="1567.0" type="line"/>
      <point x="458.0" y="1280.0" type="line"/>
    </contour>
  </outline>
</glyph>
<glyph name="micro" format="2">
	<unicode hex="00B5"/>
	<advance width="1321"/>
	<outline>
		<contour>
			<point x="239" y="1116" type="line"/>
			<point x="551" y="1116" type="line"/>
			<point x="421" y="442" type="line" smooth="yes"/>
			<point x="397" y="316"/>
			<point x="478" y="207"/>
			<point x="566" y="207" type="qcurve" smooth="yes"/>
			<point x="635" y="207"/>
			<point x="771" y="296"/>
			<point x="828" y="379" type="qcurve"/>
			<point x="970" y="1116" type="line"/>
			<point x="1282" y="1116" type="line"/>
			<point x="1066" y="0" type="line"/>
			<point x="772" y="0" type="line"/>
			<point x="790" y="135" type="line"/>
			<point x="784" y="135" type="line"/>
			<point x="717" y="67"/>
			<point x="548" y="-20"/>
			<point x="483" y="-20" type="qcurve" smooth="yes"/>
			<point x="440" y="-20"/>
			<point x="359" y="4"/>
			<point x="339" y="22" type="qcurve"/>
			<point x="255" y="-416" type="line"/>
			<point x="-57" y="-416" type="line"/>
		</contour>
	</outline>
</glyph>
<glyph name="paragraph" format="2">
  <advance width="1409"/>
  <unicode hex="00B6"/>
  <guideline x="0" y="901.0" angle="0" identifier="27539Lsr1A"/>
  <guideline x="0" y="555.0" angle="0" identifier="e34wUdCmXR"/>
  <outline>
    <contour>
      <point x="906.5" y="-198.0" type="line"/>
      <point x="665.5" y="-198.0" type="line"/>
      <point x="665.5" y="599.5" type="line"/>
      <point x="560.0" y="599.5" type="line" smooth="yes"/>
      <point x="314.0" y="599.5"/>
      <point x="48.5" y="841.5"/>
      <point x="48.5" y="1026.55" type="qcurve" smooth="yes"/>
      <point x="48.5" y="1212.0"/>
      <point x="314.0" y="1456.0"/>
      <point x="560.0" y="1456.0" type="qcurve" smooth="yes"/>
      <point x="906.5" y="1456.0" type="line"/>
    </contour>
    <contour>
      <point x="1083.5" y="1459.0" type="line"/>
      <point x="1323.5" y="1459.0" type="line"/>
      <point x="1323.5" y="-198.0" type="line"/>
      <point x="1083.5" y="-198.0" type="line"/>
    </contour>
  </outline>
</glyph>
<glyph name="periodcentered" format="2">
  <advance width="730"/>
  <unicode hex="00B7"/>
  <outline>
    <contour>
      <point x="164.15" y="751.0" type="qcurve" smooth="yes"/>
      <point x="164.15" y="828.4"/>
      <point x="268.15" y="937.7"/>
      <point x="364.0" y="937.7" type="qcurve" smooth="yes"/>
      <point x="461.85" y="937.7"/>
      <point x="565.85" y="828.4"/>
      <point x="565.85" y="751.0" type="qcurve" smooth="yes"/>
      <point x="565.85" y="672.6"/>
      <point x="461.85" y="563.3"/>
      <point x="364.0" y="563.3" type="qcurve" smooth="yes"/>
      <point x="268.15" y="563.3"/>
      <point x="164.15" y="672.6"/>
    </contour>
  </outline>
</glyph>
<glyph name="cedilla" format="2">
  <advance width="1024"/>
  <unicode hex="00B8"/>
  <outline>
    <contour>
      <point x="416.35" y="20.0" type="line"/>
      <point x="600.35" y="20.0" type="line"/>
      <point x="570.35" y="-81.0" type="line"/>
      <point x="666.35" y="-92.0"/>
      <point x="789.35" y="-173.0"/>
      <point x="789.35" y="-262.15" type="qcurve" smooth="yes"/>
      <point x="789.35" y="-364.0"/>
      <point x="573.35" y="-489.0"/>
      <point x="319.35" y="-487.0" type="qcurve"/>
      <point x="308.85" y="-345.5" type="line"/>
      <point x="436.1" y="-345.2"/>
      <point x="524.85" y="-308.5"/>
      <point x="524.85" y="-264.0" type="qcurve" smooth="yes"/>
      <point x="524.85" y="-223.5"/>
      <point x="450.15" y="-193.85"/>
      <point x="369.35" y="-187.0" type="qcurve"/>
    </contour>
  </outline>
</glyph>
<glyph name="onesuperior" format="2">
  <advance width="832"/>
  <unicode hex="00B9"/>
  <outline>
    <contour>
      <point x="102.3" y="1109.05" type="line"/>
      <point x="102.3" y="1358.55" type="line"/>
      <point x="469.5" y="1486.0" type="line"/>
      <point x="642.0" y="1486.0" type="line"/>
      <point x="642.0" y="621.0" type="line"/>
      <point x="336.0" y="621.0" type="line"/>
      <point x="336.0" y="1193.0" type="line"/>
    </contour>
  </outline>
</glyph>
<glyph name="ordmasculine" format="2">
	<unicode hex="00BA"/>
	<advance width="1117"/>
	<outline>
		<contour>
			<point x="105" y="1066" type="qcurve" smooth="yes"/>
			<point x="105" y="1153" type="line" smooth="yes"/>
			<point x="105" y="1317"/>
			<point x="348" y="1529"/>
			<point x="554" y="1529" type="qcurve" smooth="yes"/>
			<point x="761" y="1529"/>
			<point x="1003" y="1317"/>
			<point x="1003" y="1153" type="qcurve" smooth="yes"/>
			<point x="1003" y="1066" type="line" smooth="yes"/>
			<point x="1003" y="902"/>
			<point x="762" y="691"/>
			<point x="557" y="691" type="qcurve" smooth="yes"/>
			<point x="350" y="691"/>
			<point x="105" y="902"/>
		</contour>
		<contour>
			<point x="369" y="1153" type="qcurve" smooth="yes"/>
			<point x="369" y="1066" type="line" smooth="yes"/>
			<point x="369" y="967"/>
			<point x="458" y="879"/>
			<point x="557" y="879" type="qcurve" smooth="yes"/>
			<point x="653" y="879"/>
			<point x="739" y="967"/>
			<point x="739" y="1066" type="qcurve" smooth="yes"/>
			<point x="739" y="1153" type="line" smooth="yes"/>
			<point x="739" y="1251"/>
			<point x="652" y="1339"/>
			<point x="554" y="1339" type="qcurve" smooth="yes"/>
			<point x="456" y="1339"/>
			<point x="369" y="1251"/>
		</contour>
	</outline>
	<guideline x="0" y="1975" angle="0" identifier="Jnt0R9CyOf"/>
</glyph>
<glyph name="questiondown" format="2">
  <advance width="1254"/>
  <unicode hex="00BF"/>
  <guideline x="0" y="-181.0" angle="0" identifier="apukwP5ffL"/>
  <guideline x="0" y="921.0" angle="0" identifier="5ZPZZL8Rim"/>
  <outline>
    <contour>
      <point x="878.1" y="999.85" type="qcurve" smooth="yes"/>
      <point x="878.1" y="930.45"/>
      <point x="774.4" y="830.85"/>
      <point x="677.0" y="830.85" type="qcurve" smooth="yes"/>
      <point x="580.45" y="830.85"/>
      <point x="476.9" y="930.45"/>
      <point x="476.9" y="999.85" type="qcurve" smooth="yes"/>
      <point x="476.9" y="1070.4"/>
      <point x="580.45" y="1170.0"/>
      <point x="677.0" y="1170.0" type="qcurve" smooth="yes"/>
      <point x="774.4" y="1170.0"/>
      <point x="878.1" y="1070.4"/>
    </contour>
    <contour>
      <point x="1161.0" y="106.30000000000001" type="line"/>
      <point x="1161.0" y="71.65" type="line" smooth="yes"/>
      <point x="1161.0" y="-117.55"/>
      <point x="880.75" y="-328.0"/>
      <point x="643.15" y="-328.0" type="qcurve" smooth="yes"/>
      <point x="400.2" y="-328.0"/>
      <point x="127.1" y="-107.55"/>
      <point x="127.1" y="76.6" type="qcurve" smooth="yes"/>
      <point x="127.1" y="210.3"/>
      <point x="245.6" y="396.85"/>
      <point x="353.35" y="463.05" type="qcurve" smooth="yes"/>
      <point x="453.6" y="523.9"/>
      <point x="511.6" y="639.35"/>
      <point x="511.6" y="702.7" type="qcurve" smooth="yes"/>
      <point x="511.6" y="712.7" type="line"/>
      <point x="850.65" y="712.7" type="line"/>
      <point x="850.65" y="702.7" type="line" smooth="yes"/>
      <point x="850.65" y="582.3"/>
      <point x="759.75" y="415.35"/>
      <point x="650.5" y="335.95" type="qcurve" smooth="yes"/>
      <point x="545.85" y="269.2"/>
      <point x="467.79999999999995" y="168.2"/>
      <point x="467.79999999999995" y="80.5" type="qcurve" smooth="yes"/>
      <point x="467.79999999999995" y="-7.950000000000003"/>
      <point x="555.25" y="-96.75"/>
      <point x="642.25" y="-96.75" type="qcurve" smooth="yes"/>
      <point x="729.1" y="-96.75"/>
      <point x="823.55" y="-9.600000000000001"/>
      <point x="823.55" y="71.65" type="qcurve" smooth="yes"/>
      <point x="823.55" y="106.30000000000001" type="line"/>
    </contour>
  </outline>
</glyph>
<glyph name="multiply" format="2">
  <advance width="1346"/>
  <unicode hex="00D7"/>
  <outline>
    <contour>
      <point x="367.0" y="117.0" type="line"/>
      <point x="130.0" y="354.0" type="line"/>
      <point x="991.0" y="1213.0" type="line"/>
      <point x="1228.0" y="976.0" type="line"/>
    </contour>
    <contour>
      <point x="991.0" y="120.0" type="line"/>
      <point x="134.0" y="979.0" type="line"/>
      <point x="366.0" y="1211.0" type="line"/>
      <point x="1223.0" y="352.0" type="line"/>
    </contour>
  </outline>
</glyph>
<glyph name="Thorn" format="2">
  <advance width="1398"/>
  <unicode hex="00DE"/>
  <guideline x="0" y="901.0" angle="0" identifier="i9jYwjBDP4"/>
  <guideline x="0" y="555.0" angle="0" identifier="T8KKW8oxop"/>
  <outline>
    <contour>
      <point x="167.6" y="1456.0" type="line"/>
      <point x="499.5" y="1456.0" type="line"/>
      <point x="499.5" y="1217.5" type="line"/>
      <point x="731.0" y="1217.5" type="line" smooth="yes"/>
      <point x="1019.0" y="1217.5"/>
      <point x="1327.5" y="955.0"/>
      <point x="1327.5" y="740.0" type="qcurve" smooth="yes"/>
      <point x="1327.5" y="524.0"/>
      <point x="1017.5" y="257.5"/>
      <point x="731.0" y="258.5" type="qcurve" smooth="yes"/>
      <point x="499.5" y="258.5" type="line"/>
      <point x="499.5" y="0.0" type="line"/>
      <point x="167.6" y="0.0" type="line"/>
    </contour>
    <contour>
      <point x="731.0" y="981.5" type="qcurve" smooth="yes"/>
      <point x="499.5" y="981.5" type="line"/>
      <point x="499.5" y="494.5" type="line"/>
      <point x="731.0" y="494.5" type="line" smooth="yes"/>
      <point x="877.7" y="494.5"/>
      <point x="997.5" y="635.0"/>
      <point x="997.5" y="740.0" type="qcurve" smooth="yes"/>
      <point x="997.5" y="844.0"/>
      <point x="878.0" y="981.5"/>
    </contour>
  </outline>
</glyph>
<glyph name="germandbls" format="2">
	<unicode hex="00DF"/>
	<advance width="1611"/>
	<outline>
		<contour>
			<point name="hr00" x="460" y="1092" type="qcurve"/>
			<point x="460" y="0" type="line"/>
			<point x="148" y="0" type="line"/>
			<point x="148" y="1092" type="line" smooth="yes"/>
			<point x="148" y="1305"/>
			<point x="477" y="1534"/>
			<point x="783" y="1534" type="qcurve"/>
			<point x="1054" y="1534"/>
			<point x="1345" y="1369"/>
			<point x="1345" y="1215" type="qcurve" smooth="yes"/>
			<point x="1345" y="1127"/>
			<point x="1291" y="1016"/>
			<point x="1251" y="973" type="qcurve" smooth="yes"/>
			<point x="1217" y="935"/>
			<point x="1153" y="859"/>
			<point x="1153" y="830" type="qcurve" smooth="yes"/>
			<point x="1153" y="782"/>
			<point x="1264" y="701"/>
			<point x="1351" y="639" type="qcurve" smooth="yes"/>
			<point x="1435" y="580"/>
			<point x="1553" y="415"/>
			<point x="1553" y="326" type="qcurve"/>
			<point x="1553" y="170"/>
			<point x="1295" y="-30"/>
			<point x="1037" y="-30" type="qcurve" smooth="yes"/>
			<point x="781" y="-30"/>
			<point x="512" y="170"/>
			<point x="512" y="335" type="qcurve" smooth="yes"/>
			<point x="512" y="340" type="line"/>
			<point x="824" y="340" type="line"/>
			<point x="824" y="335" type="line" smooth="yes"/>
			<point x="824" y="256"/>
			<point x="941" y="173"/>
			<point x="1037" y="173" type="qcurve" smooth="yes"/>
			<point x="1133" y="173"/>
			<point x="1237" y="248"/>
			<point x="1237" y="310" type="qcurve"/>
			<point x="1237" y="369"/>
			<point x="1142" y="466"/>
			<point x="1080" y="512" type="qcurve" smooth="yes"/>
			<point x="1003" y="569"/>
			<point x="818" y="706"/>
			<point x="818" y="797" type="qcurve" smooth="yes"/>
			<point x="818" y="871"/>
			<point x="907" y="982"/>
			<point x="941" y="1026" type="qcurve" smooth="yes"/>
			<point x="973" y="1066"/>
			<point x="1010" y="1149"/>
			<point x="1010" y="1204" type="qcurve" smooth="yes"/>
			<point x="1010" y="1257"/>
			<point x="890" y="1313"/>
			<point x="779" y="1313" type="qcurve"/>
			<point x="625" y="1313"/>
			<point x="460" y="1198"/>
		</contour>
	</outline>
</glyph>
<glyph name="divide" format="2">
  <advance width="1346"/>
  <unicode hex="00F7"/>
  <outline>
    <contour>
      <point x="435.15" y="1092.7" type="qcurve" smooth="yes"/>
      <point x="435.15" y="1183.25"/>
      <point x="549.0" y="1302.7"/>
      <point x="660.0" y="1302.7" type="qcurve" smooth="yes"/>
      <point x="769.85" y="1302.7"/>
      <point x="886.85" y="1183.25"/>
      <point x="886.85" y="1092.7" type="qcurve" smooth="yes"/>
      <point x="886.85" y="1005.3"/>
      <point x="769.85" y="888.0"/>
      <point x="660.0" y="888.0" type="qcurve" smooth="yes"/>
      <point x="549.0" y="888.0"/>
      <point x="435.15" y="1005.3"/>
    </contour>
    <contour>
      <point x="434.15" y="242.15" type="qcurve" smooth="yes"/>
      <point x="434.15" y="331.55"/>
      <point x="548.0" y="452.0"/>
      <point x="659.0" y="452.0" type="qcurve" smooth="yes"/>
      <point x="768.85" y="452.0"/>
      <point x="885.85" y="331.55"/>
      <point x="885.85" y="242.15" type="qcurve" smooth="yes"/>
      <point x="885.85" y="155.6"/>
      <point x="768.85" y="36.3"/>
      <point x="659.0" y="36.3" type="qcurve" smooth="yes"/>
      <point x="548.0" y="36.3"/>
      <point x="434.15" y="155.6"/>
    </contour>
    <contour>
      <point x="111.0" y="499.1" type="line"/>
      <point x="111.0" y="857.3617721518988" type="line"/>
      <point x="1235.0" y="857.3617721518988" type="line"/>
      <point x="1235.0" y="499.1" type="line"/>
    </contour>
  </outline>
</glyph>
<glyph name="thorn" format="2">
  <advance width="1359"/>
  <unicode hex="00FE"/>
  <outline>
    <contour>
      <point x="145.0" y="-416.15" type="line"/>
      <point x="145.0" y="1536.0" type="line"/>
      <point x="458.0" y="1536.0" type="line"/>
      <point x="458.0" y="991.55" type="line"/>
      <point x="498.65" y="1053.95"/>
      <point x="673.5" y="1136.0"/>
      <point x="782.95" y="1136.0" type="qcurve" smooth="yes"/>
      <point x="1006.8499999999999" y="1136.0"/>
      <point x="1276.25" y="818.0"/>
      <point x="1276.25" y="574.0" type="qcurve" smooth="yes"/>
      <point x="1276.25" y="542.0" type="line" smooth="yes"/>
      <point x="1276.25" y="298.0"/>
      <point x="1006.8499999999999" y="-20.0"/>
      <point x="782.95" y="-20.0" type="qcurve" smooth="yes"/>
      <point x="673.35" y="-20.0"/>
      <point x="507.75" y="48.8"/>
      <point x="470.1" y="112.95" type="qcurve"/>
      <point x="466.64632911392414" y="112.95" type="line"/>
      <point x="466.0" y="-416.15" type="line"/>
    </contour>
    <contour>
      <point x="466.0" y="376.6" type="line"/>
      <point x="492.95000000000005" y="312.8"/>
      <point x="615.55" y="215.05"/>
      <point x="699.8" y="215.05" type="qcurve" smooth="yes"/>
      <point x="826.25" y="215.05"/>
      <point x="945.8" y="403.2"/>
      <point x="945.8" y="542.0" type="qcurve" smooth="yes"/>
      <point x="945.8" y="574.0" type="line" smooth="yes"/>
      <point x="945.8" y="711.8"/>
      <point x="826.25" y="900.95"/>
      <point x="699.8" y="900.95" type="qcurve" smooth="yes"/>
      <point x="615.55" y="900.95"/>
      <point x="492.95000000000005" y="802.2"/>
      <point x="466.0" y="739.4" type="qcurve"/>
    </contour>
  </outline>
</glyph>
<glyph name="kgreenlandic" format="2">
  <advance width="1259"/>
  <unicode hex="0138"/>
  <outline>
    <contour>
      <point x="466.0" y="1125.2316455696202" type="line"/>
      <point x="466.0" y="0.0" type="line"/>
      <point x="145.0" y="0.0" type="line"/>
      <point x="145.0" y="1125.2316455696202" type="line"/>
    </contour>
    <contour>
      <point x="1238.6930379746836" y="1125.2316455696202" type="line"/>
      <point x="642.0" y="434.0" type="line"/>
      <point x="292.0" y="434.0" type="line"/>
      <point x="292.0" y="683.0" type="line"/>
      <point x="501.70000000000005" y="683.0" type="line"/>
      <point x="882.3930379746836" y="1125.2316455696202" type="line"/>
    </contour>
    <contour>
      <point x="858.5" y="0.0" type="line"/>
      <point x="477.5" y="490.0" type="line"/>
      <point x="729.45" y="628.8" type="line"/>
      <point x="1279.5" y="0.0" type="line"/>
    </contour>
  </outline>
</glyph>
<glyph name="OE" format="2">
  <advance width="2128"/>
  <unicode hex="0152"/>
  <outline>
    <contour>
      <point x="760.0" y="1477.0" type="qcurve" smooth="yes"/>
      <point x="832.0" y="1477.0"/>
      <point x="996.0" y="1466.0"/>
      <point x="1086.0" y="1456.0" type="qcurve"/>
      <point x="2050.0" y="1456.0" type="line"/>
      <point x="2050.0" y="1218.55" type="line"/>
      <point x="1329.55" y="1218.55" type="line"/>
      <point x="1329.55" y="868.5" type="line"/>
      <point x="1954.0" y="868.5" type="line"/>
      <point x="1954.0" y="632.5" type="line"/>
      <point x="1329.55" y="632.5" type="line"/>
      <point x="1329.55" y="236.3" type="line"/>
      <point x="2060.0" y="236.3" type="line"/>
      <point x="2060.0" y="0.0" type="line"/>
      <point x="1086.0" y="0.0" type="line"/>
      <point x="983.0" y="-10.0"/>
      <point x="796.0" y="-21.0"/>
      <point x="716.0" y="-21.0" type="qcurve" smooth="yes"/>
      <point x="489.0" y="-21.0"/>
      <point x="112.0" y="340.0"/>
      <point x="112.0" y="682.0" type="qcurve" smooth="yes"/>
      <point x="112.0" y="772.0" type="line" smooth="yes"/>
      <point x="112.0" y="1108.3"/>
      <point x="486.0" y="1477.0"/>
    </contour>
    <contour>
      <point x="438.6" y="682.0" type="line" smooth="yes"/>
      <point x="438.6" y="474.5"/>
      <point x="618.0" y="204.5"/>
      <point x="762.0" y="204.5" type="qcurve" smooth="yes"/>
      <point x="835.0" y="204.5"/>
      <point x="953.5" y="212.5"/>
      <point x="1001.5" y="219.5" type="qcurve"/>
      <point x="1001.5" y="1236.5" type="line"/>
      <point x="944.5" y="1243.5"/>
      <point x="827.0" y="1251.5"/>
      <point x="764.0" y="1251.5" type="qcurve" smooth="yes"/>
      <point x="619.0" y="1251.5"/>
      <point x="438.6" y="986.0"/>
      <point x="438.6" y="774.0" type="qcurve" smooth="yes"/>
    </contour>
  </outline>
</glyph>
<glyph name="oe" format="2">
	<unicode hex="0153"/>
	<advance width="2113"/>
	<outline>
		<contour>
			<point x="406" y="574" type="qcurve" smooth="yes"/>
			<point x="406" y="542" type="line" smooth="yes"/>
			<point x="406" y="396"/>
			<point x="542" y="195"/>
			<point x="676" y="195" type="qcurve" smooth="yes"/>
			<point x="810" y="195"/>
			<point x="946" y="396"/>
			<point x="946" y="542" type="qcurve" smooth="yes"/>
			<point x="946" y="574" type="line" smooth="yes"/>
			<point x="946" y="719"/>
			<point x="810" y="921"/>
			<point x="676" y="921" type="qcurve" smooth="yes"/>
			<point x="542" y="921"/>
			<point x="406" y="719"/>
		</contour>
		<contour>
			<point x="1102" y="987" type="qcurve"/>
			<point x="1175" y="1062"/>
			<point x="1384" y="1146"/>
			<point x="1511" y="1146" type="qcurve" smooth="yes"/>
			<point x="1770" y="1146"/>
			<point x="2049" y="846"/>
			<point x="2049" y="592" type="qcurve" smooth="yes"/>
			<point x="2049" y="477" type="line"/>
			<point x="1171" y="477" type="line"/>
			<point x="1171" y="683" type="line"/>
			<point x="1736" y="683" type="line"/>
			<point x="1736" y="690" type="line"/>
			<point x="1737" y="768"/>
			<point x="1627" y="933"/>
			<point x="1503" y="933" type="qcurve" smooth="yes"/>
			<point x="1387" y="933"/>
			<point x="1257" y="725"/>
			<point x="1257" y="574" type="qcurve" smooth="yes"/>
			<point x="1257" y="542" type="line" smooth="yes"/>
			<point x="1257" y="391"/>
			<point x="1395" y="183"/>
			<point x="1539" y="183" type="qcurve" smooth="yes"/>
			<point x="1633" y="183"/>
			<point x="1770" y="272"/>
			<point x="1812" y="333" type="qcurve"/>
			<point x="2017" y="175" type="line"/>
			<point x="1967" y="96"/>
			<point x="1714" y="-30"/>
			<point x="1539" y="-30" type="qcurve" smooth="yes"/>
			<point x="1397" y="-30"/>
			<point x="1175" y="53"/>
			<point x="1101" y="128" type="qcurve"/>
			<point x="1026" y="53"/>
			<point x="810" y="-30"/>
			<point x="676" y="-30" type="qcurve" smooth="yes"/>
			<point x="407" y="-30"/>
			<point x="85" y="290"/>
			<point x="85" y="542" type="qcurve" smooth="yes"/>
			<point x="85" y="574" type="line" smooth="yes"/>
			<point x="85" y="826"/>
			<point x="407" y="1146"/>
			<point x="676" y="1146" type="qcurve" smooth="yes"/>
			<point x="811" y="1146"/>
			<point x="1027" y="1062"/>
		</contour>
	</outline>
</glyph>
<glyph name="Schwa" format="2">
  <advance width="1577"/>
  <unicode hex="018F"/>
  <outline>
    <contour>
      <point x="61.3" y="1198.55" type="line"/>
      <point x="170.2" y="1351.05"/>
      <point x="524.0" y="1519.0"/>
      <point x="743.0" y="1519.0" type="qcurve" smooth="yes"/>
      <point x="1121.65" y="1519.0"/>
      <point x="1528.0" y="1145.65"/>
      <point x="1528.0" y="789.0" type="qcurve" smooth="yes"/>
      <point x="1528.0" y="432.0"/>
      <point x="1104.25" y="-30.0"/>
      <point x="769.0" y="-30.0" type="qcurve" smooth="yes"/>
      <point x="480.0" y="-30.0"/>
      <point x="105.05" y="313.0"/>
      <point x="105.35" y="578.0" type="qcurve" smooth="yes"/>
      <point x="105.35" y="759.0" type="line"/>
      <point x="1286.0" y="759.0" type="line"/>
      <point x="1286.0" y="549.5" type="line"/>
      <point x="743.0" y="557.5" type="line"/>
      <point x="414.5" y="551.5" type="line"/>
      <point x="414.5" y="525.0" type="line" smooth="yes"/>
      <point x="414.5" y="384.0"/>
      <point x="617.0" y="202.5"/>
      <point x="778.0" y="202.5" type="qcurve" smooth="yes"/>
      <point x="965.0" y="202.5"/>
      <point x="1205.0" y="511.0"/>
      <point x="1203.0" y="756.0" type="qcurve" smooth="yes"/>
      <point x="1201.0" y="1015.0"/>
      <point x="954.3" y="1286.5"/>
      <point x="727.0" y="1286.5" type="qcurve" smooth="yes"/>
      <point x="571.0" y="1286.5"/>
      <point x="338.7" y="1168.5"/>
      <point x="270.2" y="1060.0" type="qcurve"/>
    </contour>
  </outline>
</glyph>
<glyph name="florin" format="2">
	<unicode hex="0192"/>
	<advance width="1085"/>
	<outline>
		<contour>
			<point x="954" y="917" type="line"/>
			<point x="954" y="702" type="line"/>
			<point x="649" y="702" type="line"/>
			<point x="649" y="111" type="line" smooth="yes"/>
			<point x="649" y="-173"/>
			<point x="374" y="-437"/>
			<point x="111" y="-437" type="qcurve" smooth="yes"/>
			<point x="78" y="-437"/>
			<point x="21" y="-430"/>
			<point x="-9" y="-420" type="qcurve"/>
			<point x="6" y="-222" type="line"/>
			<point x="22" y="-227"/>
			<point x="96" y="-233"/>
			<point x="111" y="-233" type="qcurve" smooth="yes"/>
			<point x="241" y="-233"/>
			<point x="337" y="-92"/>
			<point x="337" y="111" type="qcurve" smooth="yes"/>
			<point x="337" y="702" type="line"/>
			<point x="139" y="702" type="line"/>
			<point x="139" y="917" type="line"/>
			<point x="337" y="917" type="line"/>
			<point x="337" y="1063" type="line" smooth="yes"/>
			<point x="337" y="1270"/>
			<point x="585" y="1487"/>
			<point x="799" y="1487" type="qcurve" smooth="yes"/>
			<point x="892" y="1487"/>
			<point x="1043" y="1435"/>
			<point x="1090" y="1387" type="qcurve"/>
			<point x="984" y="1206" type="line"/>
			<point x="952" y="1235"/>
			<point x="865" y="1267"/>
			<point x="817" y="1267" type="qcurve" smooth="yes"/>
			<point x="737" y="1267"/>
			<point x="649" y="1165"/>
			<point x="649" y="1063" type="qcurve" smooth="yes"/>
			<point x="649" y="917" type="line"/>
		</contour>
	</outline>
</glyph>
<glyph name="schwa" format="2">
  <advance width="1242"/>
  <unicode hex="0259"/>
  <outline>
    <contour>
      <point x="1159.3337974683545" y="573.85" type="qcurve" smooth="yes"/>
      <point x="1159.3337974683545" y="541.85" type="line" smooth="yes"/>
      <point x="1159.3337974683545" y="289.85"/>
      <point x="846.3337974683544" y="-30.15"/>
      <point x="593.3837974683544" y="-30.15" type="qcurve" smooth="yes"/>
      <point x="335.2837974683544" y="-30.15"/>
      <point x="52.23379746835443" y="269.85"/>
      <point x="52.533797468354436" y="523.85" type="qcurve" smooth="yes"/>
      <point x="52.533797468354436" y="643.35" type="line"/>
      <point x="929.1837974683544" y="643.35" type="line"/>
      <point x="929.1837974683544" y="432.05" type="line"/>
      <point x="373.0837974683544" y="432.05" type="line"/>
      <point x="374.2337974683544" y="476.45" type="line"/>
      <point x="373.0837974683544" y="349.95"/>
      <point x="479.7837974683544" y="191.10000000000002"/>
      <point x="602.5837974683544" y="191.10000000000002" type="qcurve" smooth="yes"/>
      <point x="713.6337974683544" y="191.10000000000002"/>
      <point x="842.7337974683544" y="394.3"/>
      <point x="842.7337974683544" y="541.85" type="qcurve" smooth="yes"/>
      <point x="842.7337974683544" y="573.85" type="line" smooth="yes"/>
      <point x="842.7337974683544" y="721.4"/>
      <point x="704.2837974683545" y="923.55"/>
      <point x="566.1337974683544" y="923.55" type="qcurve" smooth="yes"/>
      <point x="475.2837974683544" y="923.55"/>
      <point x="339.4837974683544" y="836.05"/>
      <point x="298.38379746835443" y="775.35" type="qcurve"/>
      <point x="85.43379746835444" y="939.2" type="line"/>
      <point x="135.58379746835442" y="1021.8"/>
      <point x="392.0337974683544" y="1146.0"/>
      <point x="566.1337974683544" y="1146.0" type="qcurve" smooth="yes"/>
      <point x="851.9837974683544" y="1146.0"/>
      <point x="1159.3337974683545" y="825.85"/>
    </contour>
  </outline>
</glyph>
<glyph name="primemod" format="2">
  <advance width="599"/>
  <unicode hex="02B9"/>
  <outline>
    <contour>
      <point x="193.0" y="1502.0" type="line"/>
      <point x="545.0" y="1502.0" type="line"/>
      <point x="384.0" y="765.0" type="line"/>
      <point x="118.0" y="771.0" type="line"/>
    </contour>
  </outline>
</glyph>
<glyph name="doubleprimemod" format="2">
  <advance width="1129"/>
  <unicode hex="02BA"/>
  <outline>
    <contour>
      <point x="193.0" y="1502.0" type="line"/>
      <point x="535.0" y="1502.0" type="line"/>
      <point x="374.0" y="765.0" type="line"/>
      <point x="118.0" y="771.0" type="line"/>
    </contour>
    <contour>
      <point x="733.0" y="1502.0" type="line"/>
      <point x="1075.0" y="1502.0" type="line"/>
      <point x="914.0" y="765.0" type="line"/>
      <point x="658.0" y="771.0" type="line"/>
    </contour>
  </outline>
</glyph>
<glyph name="apostrophemod" format="2">
	<unicode hex="02BC"/>
	<advance width="684"/>
	<outline>
		<contour>
			<point x="135" y="906" type="line"/>
			<point x="188" y="943"/>
			<point x="314" y="1070"/>
			<point x="336" y="1158" type="qcurve"/>
			<point x="235" y="1158"/>
			<point x="138" y="1267"/>
			<point x="138" y="1351" type="qcurve" smooth="yes"/>
			<point x="138" y="1435"/>
			<point x="260" y="1546"/>
			<point x="355" y="1546" type="qcurve" smooth="yes"/>
			<point x="441" y="1546"/>
			<point x="586" y="1408"/>
			<point x="586" y="1296" type="qcurve" smooth="yes"/>
			<point x="586" y="1121"/>
			<point x="363" y="880"/>
			<point x="215" y="810" type="qcurve"/>
		</contour>
	</outline>
</glyph>
<glyph name="circumflex" format="2">
  <advance width="1024"/>
  <unicode hex="02C6"/>
  <outline>
    <contour>
      <point x="596.0" y="1684.0" type="line"/>
      <point x="916.0" y="1280.0" type="line"/>
      <point x="651.0" y="1280.0" type="line"/>
      <point x="511.0" y="1428.0" type="line"/>
      <point x="373.0" y="1280.0" type="line"/>
      <point x="110.0" y="1280.0" type="line"/>
      <point x="427.0" y="1684.0" type="line"/>
    </contour>
  </outline>
</glyph>
<glyph name="breve" format="2">
  <advance width="1022"/>
  <unicode hex="02D8"/>
  <outline>
    <contour>
      <point x="721" y="1660" type="qcurve"/>
      <point x="902" y="1565" type="line"/>
      <point x="873" y="1476"/>
      <point x="663" y="1276"/>
      <point x="514" y="1276" type="qcurve" smooth="yes"/>
      <point x="378" y="1276"/>
      <point x="162" y="1458"/>
      <point x="123" y="1565" type="qcurve"/>
      <point x="299" y="1660" type="line"/>
      <point x="331" y="1609"/>
      <point x="444" y="1524"/>
      <point x="514" y="1524" type="qcurve" smooth="yes"/>
      <point x="588" y="1524"/>
      <point x="689" y="1607"/>
    </contour>
  </outline>
</glyph>
<glyph name="tilde" format="2">
  <advance width="1024"/>
  <unicode hex="02DC"/>
  <outline>
    <contour>
      <point x="115.8" y="1426.3" type="line"/>
      <point x="152.2" y="1513.5"/>
      <point x="308.1" y="1647.85"/>
      <point x="383.1" y="1647.85" type="qcurve" smooth="yes"/>
      <point x="430.25" y="1647.85"/>
      <point x="513.85" y="1621.85"/>
      <point x="556.3" y="1593.85" type="qcurve" smooth="yes"/>
      <point x="593.6" y="1569.85"/>
      <point x="684.35" y="1521.85"/>
      <point x="726.65" y="1521.85" type="qcurve" smooth="yes"/>
      <point x="773.1" y="1521.85"/>
      <point x="850.85" y="1580.85"/>
      <point x="877.0" y="1620.85" type="qcurve"/>
      <point x="972.9" y="1474.8" type="line"/>
      <point x="929.45" y="1377.45"/>
      <point x="780.6" y="1278.35"/>
      <point x="714.1" y="1278.35" type="qcurve" smooth="yes"/>
      <point x="658.5" y="1278.35"/>
      <point x="553.5" y="1325.6"/>
      <point x="518.5" y="1346.6" type="qcurve" smooth="yes"/>
      <point x="479.5" y="1366.6"/>
      <point x="403.0" y="1407.35"/>
      <point x="369.0" y="1407.35" type="qcurve" smooth="yes"/>
      <point x="317.0" y="1407.35"/>
      <point x="226.0" y="1325.35"/>
      <point x="204.0" y="1293.35" type="qcurve"/>
    </contour>
  </outline>
</glyph>
<glyph name="hungarumlaut" format="2">
  <advance width="1024"/>
  <unicode hex="02DD"/>
  <outline>
    <contour>
      <point x="66.3" y="1424.75" type="line"/>
      <point x="337.35" y="1778.45" type="line"/>
      <point x="613.85" y="1611.45" type="line"/>
      <point x="270.85" y="1278.05" type="line"/>
    </contour>
    <contour>
      <point x="536.45" y="1424.6" type="line"/>
      <point x="807.5" y="1778.3" type="line"/>
      <point x="1084.0" y="1611.3" type="line"/>
      <point x="741.0" y="1277.9" type="line"/>
    </contour>
  </outline>
</glyph>
<glyph name="hookabovecomb" format="2">
  <advance width="1024"/>
  <unicode hex="0309"/>
  <anchor x="512.0" y="1115.8" name="_top"/>
  <anchor x="512.0" y="1761.0" name="top"/>
  <outline>
    <contour>
      <point x="422.0" y="1280.0" type="line"/>
      <point x="422.0" y="1320.0" type="line" smooth="yes"/>
      <point x="422.0" y="1396.0"/>
      <point x="493.0" y="1474.0"/>
      <point x="558.0" y="1480.0" type="qcurve" smooth="yes"/>
      <point x="593.0" y="1484.0"/>
      <point x="621.0" y="1507.0"/>
      <point x="621.0" y="1534.0" type="qcurve" smooth="yes"/>
      <point x="621.0" y="1559.0"/>
      <point x="581.0" y="1583.0"/>
      <point x="546.0" y="1583.0" type="qcurve" smooth="yes"/>
      <point x="504.0" y="1583.0"/>
      <point x="387.0" y="1549.0"/>
      <point x="376.0" y="1540.0" type="qcurve"/>
      <point x="305.0" y="1699.0" type="line"/>
      <point x="343.0" y="1719.0"/>
      <point x="507.0" y="1761.0"/>
      <point x="593.0" y="1761.0" type="qcurve" smooth="yes"/>
      <point x="721.0" y="1761.0"/>
      <point x="854.0" y="1645.0"/>
      <point x="854.0" y="1547.0" type="qcurve" smooth="yes"/>
      <point x="854.0" y="1444.0"/>
      <point x="718.0" y="1323.0"/>
      <point x="586.0" y="1312.0" type="qcurve"/>
      <point x="586.0" y="1280.0" type="line"/>
    </contour>
  </outline>
</glyph>
<glyph name="breveinvertedcomb" format="2">
  <advance width="1024"/>
  <unicode hex="030F"/>
  <anchor x="512.0" y="1115.8" name="_top"/>
  <anchor x="512.0" y="1582.0" name="top"/>
  <outline>
    <contour>
      <point x="307.15" y="1274.35" type="qcurve"/>
      <point x="118.8" y="1371.75" type="line"/>
      <point x="148.25" y="1461.8"/>
      <point x="360.35" y="1663.3"/>
      <point x="510.85" y="1663.3" type="qcurve" smooth="yes"/>
      <point x="648.05" y="1663.3"/>
      <point x="866.3" y="1479.8"/>
      <point x="905.9" y="1371.75" type="qcurve"/>
      <point x="722.55" y="1274.35" type="line"/>
      <point x="691.0" y="1324.6"/>
      <point x="579.65" y="1408.4"/>
      <point x="510.85" y="1408.4" type="qcurve" smooth="yes"/>
      <point x="438.05" y="1408.4"/>
      <point x="338.7" y="1326.6"/>
    </contour>
  </outline>
</glyph>
<glyph name="horncomb" format="2">
  <advance width="1024"/>
  <unicode hex="031B"/>
  <anchor x="71" y="1116" name="_topright"/>
  <anchor x="71.0" y="1397" name="topright"/>
  <outline>
    <contour>
      <point x="0.0" y="1116.0" type="line"/>
      <point x="89.0" y="1116.0" type="line" smooth="yes"/>
      <point x="141.0" y="1116.0"/>
      <point x="217.0" y="1156.0"/>
      <point x="217.0" y="1216.0" type="qcurve" smooth="yes"/>
      <point x="217.0" y="1270.0"/>
      <point x="204.0" y="1355.0"/>
      <point x="193.0" y="1397.0" type="qcurve"/>
      <point x="394.0" y="1397.0" type="line"/>
      <point x="418.0" y="1354.0"/>
      <point x="458.0" y="1218.0"/>
      <point x="458.0" y="1134.0" type="qcurve" smooth="yes"/>
      <point x="458.0" y="1018.0"/>
      <point x="289.0" y="906.0"/>
      <point x="173.0" y="906.0" type="qcurve" smooth="yes"/>
      <point x="118.0" y="906.0"/>
      <point x="31.0" y="922.0"/>
      <point x="0.0" y="934.0" type="qcurve"/>
    </contour>
  </outline>
</glyph>
<glyph name="dotbelowcomb" format="2">
  <advance width="1024"/>
  <unicode hex="0323"/>
  <anchor x="512.0" y="0" name="_bottom"/>
  <anchor x="512.0" y="-526.0" name="bottom"/>
  <outline>
    <contour>
      <point x="318.0" y="-351.0" type="qcurve" smooth="yes"/>
      <point x="318.0" y="-276.0"/>
      <point x="419.0" y="-176.0"/>
      <point x="513.0" y="-176.0" type="qcurve" smooth="yes"/>
      <point x="606.0" y="-176.0"/>
      <point x="708.0" y="-276.0"/>
      <point x="708.0" y="-351.0" type="qcurve" smooth="yes"/>
      <point x="708.0" y="-425.0"/>
      <point x="606.0" y="-526.0"/>
      <point x="512.0" y="-526.0" type="qcurve" smooth="yes"/>
      <point x="418.0" y="-526.0"/>
      <point x="318.0" y="-425.0"/>
    </contour>
  </outline>
</glyph>
<glyph name="dieresisbelowcomb" format="2">
  <advance width="1024"/>
  <unicode hex="0324"/>
  <anchor x="512.0" y="0" name="_bottom"/>
  <anchor x="512.0" y="-441.0" name="bottom"/>
  <outline>
    <contour>
      <point x="161.65" y="-328.0" type="qcurve" smooth="yes"/>
      <point x="161.65" y="-270.9"/>
      <point x="223.9" y="-209.8"/>
      <point x="282.0" y="-209.8" type="qcurve" smooth="yes"/>
      <point x="336.95" y="-209.8"/>
      <point x="402.35" y="-275.05"/>
      <point x="402.35" y="-328.0" type="qcurve" smooth="yes"/>
      <point x="402.35" y="-384.1"/>
      <point x="341.1" y="-445.20000000000005"/>
      <point x="282.0" y="-445.20000000000005" type="qcurve" smooth="yes"/>
      <point x="227.05" y="-445.20000000000005"/>
      <point x="161.65" y="-380.95"/>
    </contour>
    <contour>
      <point x="621.65" y="-328.0" type="qcurve" smooth="yes"/>
      <point x="621.65" y="-270.9"/>
      <point x="683.9" y="-209.8"/>
      <point x="742.0" y="-209.8" type="qcurve" smooth="yes"/>
      <point x="796.95" y="-209.8"/>
      <point x="862.35" y="-275.05"/>
      <point x="862.35" y="-328.0" type="qcurve" smooth="yes"/>
      <point x="862.35" y="-384.1"/>
      <point x="801.1" y="-445.20000000000005"/>
      <point x="742.0" y="-445.20000000000005" type="qcurve" smooth="yes"/>
      <point x="687.05" y="-445.20000000000005"/>
      <point x="621.65" y="-380.95"/>
    </contour>
  </outline>
</glyph>
<glyph name="commaaccentcomb" format="2">
  <advance width="1024"/>
  <unicode hex="0326"/>
  <anchor x="512.0" y="0" name="_bottom"/>
  <anchor x="512.0" y="-600.0" name="bottom"/>
  <outline>
    <contour>
      <point x="290.0" y="-597.0" type="line"/>
      <point x="323.0" y="-481.0"/>
      <point x="363.0" y="-326.0"/>
      <point x="387.0" y="-185.0" type="qcurve"/>
      <point x="764.0" y="-182.0" type="line"/>
      <point x="624.0" y="-600.0" type="line"/>
    </contour>
  </outline>
</glyph>
<glyph name="brevebelowcomb" format="2">
  <advance width="1024"/>
  <unicode hex="032E"/>
  <anchor x="512.0" y="0" name="_bottom"/>
  <anchor x="512.0" y="-463.0" name="bottom"/>
  <outline>
    <contour>
      <point x="801.95" y="-122.35" type="qcurve"/>
      <point x="902.0" y="-197.3" type="line"/>
      <point x="862.4" y="-297.8"/>
      <point x="658.25" y="-467.2"/>
      <point x="512.0" y="-467.2" type="qcurve" smooth="yes"/>
      <point x="382.05" y="-467.2"/>
      <point x="171.75" y="-311.95"/>
      <point x="123.0" y="-196.3" type="qcurve"/>
      <point x="230.05" y="-122.35" type="line"/>
      <point x="272.9" y="-185.65"/>
      <point x="417.3" y="-290.1"/>
      <point x="512.0" y="-290.1" type="qcurve" smooth="yes"/>
      <point x="613.7" y="-290.1"/>
      <point x="758.95" y="-190.65"/>
    </contour>
  </outline>
</glyph>
<glyph name="numeralsign" format="2">
  <advance width="643"/>
  <unicode hex="0374"/>
  <outline>
    <contour>
      <point x="267.06835443037977" y="1032.4" type="line"/>
      <point x="50.91835443037975" y="1076.35" type="line"/>
      <point x="170.01835443037976" y="1584.75" type="line"/>
      <point x="500.71835443037975" y="1524.2" type="line"/>
    </contour>
  </outline>
</glyph>
<glyph name="tonos" format="2">
  <advance width="892"/>
  <unicode hex="0384"/>
  <outline>
    <contour>
      <point x="436.5" y="1299.75" type="line"/>
      <point x="229.75" y="1356.25" type="line"/>
      <point x="335.0" y="1816.75" type="line"/>
      <point x="665.25" y="1732.25" type="line"/>
    </contour>
  </outline>
</glyph>
<glyph name="dieresistonos" format="2">
  <advance width="1189"/>
  <unicode hex="0385"/>
  <outline>
    <contour>
      <point x="219.5" y="1315.75" type="qcurve" smooth="yes"/>
      <point x="139.0" y="1315.75"/>
      <point x="53.5" y="1403.25"/>
      <point x="53.5" y="1468.25" type="qcurve" smooth="yes"/>
      <point x="53.5" y="1533.75"/>
      <point x="140.0" y="1620.0"/>
      <point x="220.5" y="1620.0" type="qcurve" smooth="yes"/>
      <point x="298.75" y="1620.0"/>
      <point x="387.25" y="1533.75"/>
      <point x="387.25" y="1468.25" type="qcurve" smooth="yes"/>
      <point x="387.25" y="1403.25"/>
      <point x="298.75" y="1315.75"/>
    </contour>
    <contour>
      <point x="676.75" y="1290.75" type="line"/>
      <point x="488.5" y="1311.0" type="line"/>
      <point x="497.75" y="1765.0" type="line"/>
      <point x="812.75" y="1765.0" type="line"/>
    </contour>
    <contour>
      <point x="987.5" y="1316.5" type="qcurve" smooth="yes"/>
      <point x="908.25" y="1316.5"/>
      <point x="820.5" y="1404.0"/>
      <point x="820.5" y="1469.0" type="qcurve" smooth="yes"/>
      <point x="820.5" y="1534.5"/>
      <point x="909.25" y="1620.75"/>
      <point x="988.5" y="1620.75" type="qcurve" smooth="yes"/>
      <point x="1068.0" y="1620.75"/>
      <point x="1155.25" y="1534.5"/>
      <point x="1155.25" y="1469.0" type="qcurve" smooth="yes"/>
      <point x="1155.25" y="1404.0"/>
      <point x="1068.0" y="1316.5"/>
    </contour>
  </outline>
</glyph>
<glyph name="Delta" format="2">
  <advance width="1321"/>
  <unicode hex="0394"/>
  <outline>
    <contour>
      <point x="61.0" y="1" type="line"/>
      <point x="61.0" y="188.0" type="line"/>
      <point x="472" y="1460.0" type="line"/>
      <point x="848" y="1460.0" type="line"/>
      <point x="1260" y="188" type="line"/>
      <point x="1260" y="0.0" type="line"/>
    </contour>
    <contour>
      <point x="382" y="297" type="line"/>
      <point x="892" y="297" type="line"/>
      <point x="685" y="1006" type="line" smooth="yes"/>
      <point x="673" y="1047"/>
      <point x="649.0" y="1127"/>
      <point x="641.0" y="1162" type="qcurve"/>
      <point x="633" y="1162" type="line"/>
      <point x="626.0" y="1127"/>
      <point x="602" y="1049"/>
      <point x="590" y="1007" type="qcurve" smooth="yes"/>
    </contour>
  </outline>
</glyph>
<glyph name="Theta" format="2">
  <advance width="1612"/>
  <unicode hex="0398"/>
  <outline>
    <contour>
      <point x="806" y="-30" type="qcurve" smooth="yes"/>
      <point x="498" y="-30"/>
      <point x="115" y="349"/>
      <point x="115" y="687" type="qcurve" smooth="yes"/>
      <point x="115" y="769" type="line" smooth="yes"/>
      <point x="115" y="1107"/>
      <point x="498" y="1486"/>
      <point x="806" y="1486" type="qcurve" smooth="yes"/>
      <point x="1113" y="1486"/>
      <point x="1497" y="1107"/>
      <point x="1497" y="769" type="qcurve" smooth="yes"/>
      <point x="1497" y="687" type="line" smooth="yes"/>
      <point x="1497" y="349"/>
      <point x="1113" y="-30"/>
    </contour>
    <contour>
      <point x="806" y="206" type="qcurve" smooth="yes"/>
      <point x="974" y="206"/>
      <point x="1166" y="462"/>
      <point x="1166" y="687" type="qcurve" smooth="yes"/>
      <point x="1166" y="769" type="line" smooth="yes"/>
      <point x="1166" y="994"/>
      <point x="974" y="1250"/>
      <point x="806" y="1250" type="qcurve" smooth="yes"/>
      <point x="638" y="1250"/>
      <point x="445" y="994"/>
      <point x="445" y="769" type="qcurve" smooth="yes"/>
      <point x="445" y="687" type="line" smooth="yes"/>
      <point x="445" y="462"/>
      <point x="638" y="206"/>
    </contour>
    <contour>
      <point x="611" y="578.0" type="line"/>
      <point x="611" y="878.0" type="line"/>
      <point x="1000" y="878.0" type="line"/>
      <point x="1000" y="578.0" type="line"/>
    </contour>
  </outline>
</glyph>
<glyph name="Xi" format="2">
  <advance width="1387"/>
  <unicode hex="039E"/>
  <outline>
    <contour>
      <point x="167.5" y="0.0" type="line"/>
      <point x="167.5" y="264.5" type="line"/>
      <point x="1219.5" y="264.5" type="line"/>
      <point x="1219.5" y="0.0" type="line"/>
    </contour>
    <contour>
      <point x="276.5" y="624.85" type="line"/>
      <point x="276.5" y="879.05" type="line"/>
      <point x="1111.5" y="879.05" type="line"/>
      <point x="1111.5" y="624.85" type="line"/>
    </contour>
    <contour>
      <point x="167.5" y="1191.5" type="line"/>
      <point x="167.5" y="1456.0" type="line"/>
      <point x="1219.5" y="1456.0" type="line"/>
      <point x="1219.5" y="1191.5" type="line"/>
    </contour>
  </outline>
</glyph>
<glyph name="Sigma" format="2">
  <advance width="1291"/>
  <unicode hex="03A3"/>
  <outline>
    <contour>
      <point x="32" y="0" type="line"/>
      <point x="32" y="175" type="line"/>
      <point x="485" y="718" type="line"/>
      <point x="483" y="651" type="line"/>
      <point x="45" y="1250" type="line"/>
      <point x="45" y="1456" type="line"/>
      <point x="1189" y="1456" type="line"/>
      <point x="1189" y="1229" type="line"/>
      <point x="448" y="1229" type="line"/>
      <point x="443" y="1316" type="line"/>
      <point x="861" y="740" type="line"/>
      <point x="861" y="708" type="line"/>
      <point x="365" y="86" type="line"/>
      <point x="363" y="227" type="line"/>
      <point x="1223" y="227" type="line"/>
      <point x="1223" y="0" type="line"/>
    </contour>
  </outline>
</glyph>
<glyph name="Psi" format="2">
  <advance width="1839"/>
  <unicode hex="03A8"/>
  <outline>
    <contour>
      <point x="753.75" y="0.0" type="line"/>
      <point x="753.75" y="1456.0" type="line"/>
      <point x="1086.1" y="1456.0" type="line"/>
      <point x="1086.1" y="0.0" type="line"/>
    </contour>
    <contour>
      <point x="893.1" y="327.75" type="line"/>
      <point x="836.65" y="327.75" type="line" smooth="yes"/>
      <point x="460.35" y="327.75"/>
      <point x="122.2" y="612.25"/>
      <point x="122.2" y="928.0" type="qcurve" smooth="yes"/>
      <point x="122.45" y="1456.0" type="line"/>
      <point x="453.5" y="1456.0" type="line"/>
      <point x="453.5" y="904.1" type="line" smooth="yes"/>
      <point x="453.5" y="721.55"/>
      <point x="625.95" y="560.9"/>
      <point x="815.05" y="563.9" type="qcurve" smooth="yes"/>
      <point x="893.1" y="563.9" type="line"/>
    </contour>
    <contour>
      <point x="932.75" y="327.75" type="line"/>
      <point x="932.75" y="563.9" type="line"/>
      <point x="1025.25" y="563.9" type="line" smooth="yes"/>
      <point x="1214.65" y="563.9"/>
      <point x="1387.35" y="724.55"/>
      <point x="1387.35" y="904.1" type="qcurve" smooth="yes"/>
      <point x="1387.35" y="1456.0" type="line"/>
      <point x="1718.65" y="1456.0" type="line"/>
      <point x="1718.65" y="928.0" type="line" smooth="yes"/>
      <point x="1718.65" y="612.25"/>
      <point x="1373.65" y="327.75"/>
      <point x="989.3499999999999" y="327.75" type="qcurve" smooth="yes"/>
    </contour>
  </outline>
</glyph>
<glyph name="Omega" format="2">
  <advance width="1615"/>
  <unicode hex="03A9"/>
  <anchor x="78.8" y="1456.0" name="GRK_topleft"/>
  <outline>
    <contour>
      <point x="111.7" y="0.0" type="line"/>
      <point x="111.7" y="215.3" type="line"/>
      <point x="471.15" y="215.3" type="line"/>
      <point x="471.15" y="297.9" type="line"/>
      <point x="298.9" y="342.45"/>
      <point x="111.7" y="637.5"/>
      <point x="111.7" y="867.0" type="qcurve"/>
      <point x="111.7" y="868.8" type="line"/>
      <point x="111.7" y="1167.3"/>
      <point x="471.5" y="1486.0"/>
      <point x="806.15" y="1486.0" type="qcurve"/>
      <point x="1141.8" y="1486.0"/>
      <point x="1502.3" y="1167.3"/>
      <point x="1502.3" y="868.8" type="qcurve"/>
      <point x="1502.3" y="867.0" type="line"/>
      <point x="1502.3" y="638.5"/>
      <point x="1311.1" y="343.45"/>
      <point x="1135.7" y="297.9" type="qcurve"/>
      <point x="1135.7" y="215.3" type="line"/>
      <point x="1503.3" y="215.3" type="line"/>
      <point x="1503.3" y="0.0" type="line"/>
      <point x="868.55" y="0.0" type="line"/>
      <point x="868.55" y="429.45000000000005" type="line"/>
      <point x="1008.15" y="450.15"/>
      <point x="1159.55" y="663.35"/>
      <point x="1159.55" y="845.25" type="qcurve"/>
      <point x="1159.55" y="856.2" type="line"/>
      <point x="1159.55" y="1040.85"/>
      <point x="975.15" y="1240.25"/>
      <point x="804.0" y="1240.25" type="qcurve"/>
      <point x="634.0" y="1240.25"/>
      <point x="451.45000000000005" y="1040.85"/>
      <point x="451.45000000000005" y="856.2" type="qcurve"/>
      <point x="451.45000000000005" y="845.25" type="line"/>
      <point x="451.45000000000005" y="663.35"/>
      <point x="601.85" y="450.15"/>
      <point x="739.3" y="429.45000000000005" type="qcurve"/>
      <point x="739.3" y="0.0" type="line"/>
    </contour>
  </outline>
</glyph>
<glyph name="alpha" format="2">
  <advance width="1475"/>
  <unicode hex="03B1"/>
  <anchor x="568.55" y="1095.0" name="GRK_top"/>
  <outline>
    <contour>
      <point x="595.15" y="-20.0" type="qcurve" smooth="yes"/>
      <point x="350.5" y="-20.0"/>
      <point x="85.0" y="265.55"/>
      <point x="85.0" y="532.15" type="qcurve" smooth="yes"/>
      <point x="85.0" y="564.15" type="line" smooth="yes"/>
      <point x="85.0" y="841.05"/>
      <point x="343.8" y="1136.0"/>
      <point x="581.6" y="1136.0" type="qcurve" smooth="yes"/>
      <point x="687.7" y="1136.0"/>
      <point x="851.8" y="1060.55"/>
      <point x="901.1" y="988.55" type="qcurve"/>
      <point x="901.95" y="988.55" type="line"/>
      <point x="907.8" y="1116.0" type="line"/>
      <point x="1216.25" y="1116.0" type="line"/>
      <point x="1216.25" y="382.85" type="line" smooth="yes"/>
      <point x="1216.25" y="307.6"/>
      <point x="1288.65" y="224.39999999999998"/>
      <point x="1355.6" y="224.39999999999998" type="qcurve"/>
      <point x="1374.8" y="224.39999999999998"/>
      <point x="1416.25" y="236.3"/>
      <point x="1431.35" y="243.14999999999998" type="qcurve"/>
      <point x="1431.35" y="-1.25" type="line"/>
      <point x="1416.65" y="-11.4"/>
      <point x="1314.1" y="-30.0"/>
      <point x="1233.9" y="-30.0" type="qcurve" smooth="yes"/>
      <point x="1106.753670886076" y="-30.0"/>
      <point x="964.1536708860759" y="70.15"/>
      <point x="955.7036708860759" y="164.3886075949367" type="qcurve"/>
      <point x="949.7036708860759" y="164.3886075949367" type="line"/>
      <point x="897.4459493670886" y="75.6"/>
      <point x="717.15" y="-20.0"/>
    </contour>
    <contour>
      <point x="684.6" y="215.05" type="qcurve" smooth="yes"/>
      <point x="739.05" y="215.05"/>
      <point x="868.85" y="297.5"/>
      <point x="895.25" y="376.45" type="qcurve"/>
      <point x="895.25" y="719.55" type="line"/>
      <point x="876.3613924050633" y="799.6194936708861"/>
      <point x="747.480506329114" y="900.95"/>
      <point x="689.05" y="900.95" type="qcurve" smooth="yes"/>
      <point x="558.3" y="900.95"/>
      <point x="415.3" y="727.0"/>
      <point x="415.3" y="561.45" type="qcurve" smooth="yes"/>
      <point x="415.3" y="527.85" type="line" smooth="yes"/>
      <point x="415.3" y="372.75"/>
      <point x="557.05" y="215.05"/>
    </contour>
  </outline>
</glyph>
<glyph name="beta" format="2">
  <advance width="1359"/>
  <unicode hex="03B2"/>
  <outline>
    <contour>
      <point x="146.5" y="-417.0" type="line"/>
      <point x="146.5" y="1071.0" type="line" smooth="yes"/>
      <point x="146.5" y="1307.1"/>
      <point x="424.75" y="1556.0"/>
      <point x="684.2" y="1556.0" type="qcurve" smooth="yes"/>
      <point x="922.7882278481012" y="1556.0"/>
      <point x="1184.773164556962" y="1348.323164556962"/>
      <point x="1184.773164556962" y="1154.0154430379748" type="qcurve"/>
      <point x="1184.773164556962" y="1024.9088607594936"/>
      <point x="1077.8048101265822" y="854.3772151898734"/>
      <point x="968.6727848101266" y="835.8227848101266" type="qcurve"/>
      <point x="968.6727848101266" y="855.0" type="line"/>
      <point x="1119.4117721518987" y="839.9727848101265"/>
      <point x="1274.75" y="636.4418987341772"/>
      <point x="1274.75" y="466.0" type="qcurve" smooth="yes"/>
      <point x="1274.75" y="234.25"/>
      <point x="1021.0999999999999" y="-19.85"/>
      <point x="781.65" y="-19.85" type="qcurve" smooth="yes"/>
      <point x="670.5" y="-19.85"/>
      <point x="506.95000000000005" y="41.45"/>
      <point x="467.5" y="95.45" type="qcurve"/>
      <point x="467.5" y="-417.0" type="line"/>
    </contour>
    <contour>
      <point x="737.0272151898735" y="215.05" type="qcurve"/>
      <point x="833.7" y="215.05"/>
      <point x="944.15" y="334.0"/>
      <point x="944.15" y="446.3727848101266" type="qcurve"/>
      <point x="944.15" y="568.6955696202532"/>
      <point x="804.3" y="706.4455696202532"/>
      <point x="678.05" y="708.4455696202532" type="qcurve" smooth="yes"/>
      <point x="609.8463291139241" y="708.4455696202532" type="line"/>
      <point x="609.8463291139241" y="947.65" type="line"/>
      <point x="672.9" y="947.65" type="line" smooth="yes"/>
      <point x="778.4154430379747" y="947.65"/>
      <point x="891.9613924050633" y="1053.7044303797468"/>
      <point x="891.9613924050633" y="1145.15" type="qcurve" smooth="yes"/>
      <point x="891.9613924050633" y="1230.173164556962"/>
      <point x="793.0841772151899" y="1320.95"/>
      <point x="708.0" y="1320.95" type="qcurve" smooth="yes"/>
      <point x="593.05" y="1320.95"/>
      <point x="467.5" y="1193.9"/>
      <point x="467.5" y="1077.75" type="qcurve" smooth="yes"/>
      <point x="467.5" y="376.45" type="line"/>
      <point x="488.29999999999995" y="297.95"/>
      <point x="627.9" y="215.05"/>
    </contour>
  </outline>
</glyph>
<glyph name="delta" format="2">
  <advance width="1353"/>
  <unicode hex="03B4"/>
  <outline>
    <contour>
      <point x="669.0040506329113" y="-31.0" type="qcurve" smooth="yes"/>
      <point x="384.13455696202533" y="-31.15"/>
      <point x="82.75" y="244.15848101265823"/>
      <point x="82.75" y="492.21215189873413" type="qcurve" smooth="yes"/>
      <point x="82.75" y="510.11215189873417" type="line" smooth="yes"/>
      <point x="82.75" y="732.4662025316455"/>
      <point x="380.25405063291134" y="994.5893670886077"/>
      <point x="655.3459493670887" y="1015.1084810126582" type="qcurve"/>
      <point x="808.7724050632911" y="882.7893670886076" type="line"/>
      <point x="610.1988607594936" y="849.6731645569621"/>
      <point x="412.5845569620253" y="647.9996202531645"/>
      <point x="412.5845569620253" y="495.44632911392404" type="qcurve" smooth="yes"/>
      <point x="412.5845569620253" y="479.44632911392404" type="line" smooth="yes"/>
      <point x="412.5845569620253" y="342.3691139240506"/>
      <point x="549.1581012658228" y="199.153670886076"/>
      <point x="671.4849367088608" y="202.91911392405063" type="qcurve"/>
      <point x="803.1889873417722" y="206.37683544303798"/>
      <point x="940.5654430379747" y="346.98493670886074"/>
      <point x="940.5654430379747" y="466.5305063291139" type="qcurve" smooth="yes"/>
      <point x="940.5654430379747" y="500.8077215189873" type="line" smooth="yes"/>
      <point x="940.5654430379747" y="591.8"/>
      <point x="782.3996202531646" y="776.3349367088608"/>
      <point x="636.7724050632911" y="849.7158227848101" type="qcurve" smooth="yes"/>
      <point x="468.6308860759494" y="934.023164556962"/>
      <point x="288.71582278481014" y="1124.4"/>
      <point x="288.8735443037975" y="1221.25" type="qcurve" smooth="yes"/>
      <point x="288.71582278481014" y="1364.7"/>
      <point x="538.0926582278481" y="1545.0"/>
      <point x="772.0496202531646" y="1545.0" type="qcurve" smooth="yes"/>
      <point x="915.1691139240506" y="1545.0"/>
      <point x="1130.469493670886" y="1504.3845569620253"/>
      <point x="1180.926835443038" y="1468.15" type="qcurve"/>
      <point x="1139.0845569620253" y="1261.0577215189874" type="line"/>
      <point x="1073.9272151898733" y="1292.6077215189873"/>
      <point x="900.2540506329113" y="1317.0577215189874"/>
      <point x="815.9345569620253" y="1317.0577215189874" type="qcurve" smooth="yes"/>
      <point x="710.8886075949367" y="1317.0577215189874"/>
      <point x="611.0698734177215" y="1281.9040506329113"/>
      <point x="611.0698734177215" y="1235.9922784810128" type="qcurve" smooth="yes"/>
      <point x="611.0698734177215" y="1181.8922784810127"/>
      <point x="786.4662025316455" y="1076.5540506329114"/>
      <point x="938.1430379746836" y="991.8308860759494" type="qcurve" smooth="yes"/>
      <point x="1087.699240506329" y="906.0853164556961"/>
      <point x="1269.25" y="661.3011392405064"/>
      <point x="1269.25" y="511.45848101265824" type="qcurve" smooth="yes"/>
      <point x="1269.25" y="485.7812658227848" type="line" smooth="yes"/>
      <point x="1269.25" y="243.2007594936709"/>
      <point x="961.5312658227848" y="-30.85"/>
    </contour>
  </outline>
</glyph>
<glyph name="zeta" format="2">
  <advance width="1098"/>
  <unicode hex="03B6"/>
  <outline>
    <contour>
      <point x="603.2569620253165" y="-348.0" type="line"/>
      <point x="643.8032911392405" y="-257.28784810126587"/>
      <point x="669.5451898734177" y="-182.33784810126582"/>
      <point x="669.5451898734177" y="-144.31506329113924" type="qcurve" smooth="yes"/>
      <point x="669.5451898734177" y="-109.16506329113925"/>
      <point x="617.2635443037975" y="-53.3"/>
      <point x="537.6367088607595" y="-39.68455696202532" type="qcurve" smooth="yes"/>
      <point x="537.2032911392406" y="-40.79632911392405" type="line" smooth="yes"/>
      <point x="293.54556962025316" y="-0.16544303797468451"/>
      <point x="60.25" y="211.19227848101266"/>
      <point x="60.25" y="378.82278481012656" type="qcurve"/>
      <point x="60.25" y="515.747088607595"/>
      <point x="258.54898734177215" y="863.5232911392405"/>
      <point x="416.14594936708863" y="1062.9" type="qcurve" smooth="yes"/>
      <point x="616.7455696202531" y="1323.0191139240508" type="line"/>
      <point x="635.3724050632911" y="1288.3727848101266" type="line"/>
      <point x="90.2" y="1288.3727848101266" type="line"/>
      <point x="90.2" y="1526.0" type="line"/>
      <point x="997.8499999999999" y="1526.0" type="line"/>
      <point x="997.8499999999999" y="1357.4044303797468" type="line"/>
      <point x="696.05" y="965.3" type="line" smooth="yes"/>
      <point x="568.1710126582278" y="801.51"/>
      <point x="406.3922784810127" y="535.6959493670886"/>
      <point x="406.3922784810127" y="435.66101265822783" type="qcurve"/>
      <point x="407.3922784810127" y="364.9727848101266"/>
      <point x="509.180506329114" y="281.19594936708864"/>
      <point x="681.6882278481013" y="243.06506329113924" type="qcurve" smooth="yes"/>
      <point x="748.9911392405063" y="228.35367088607597" type="line" smooth="yes"/>
      <point x="873.9911392405063" y="199.16506329113923"/>
      <point x="992.6911392405063" y="59.338607594936704"/>
      <point x="992.6911392405063" y="-68.1" type="qcurve" smooth="yes"/>
      <point x="992.5334177215191" y="-134.9459493670886"/>
      <point x="935.087088607595" y="-320.7"/>
      <point x="909.237088607595" y="-348.0" type="qcurve"/>
    </contour>
  </outline>
</glyph>
<glyph name="eta" format="2">
  <advance width="1329"/>
  <unicode hex="03B7"/>
  <anchor x="583.65" y="1095.0" name="GRK_top"/>
  <outline>
    <contour>
      <point x="872.0" y="-415.85" type="line"/>
      <point x="872.0" y="671.95" type="line" smooth="yes"/>
      <point x="872.0" y="795.2"/>
      <point x="779.95" y="899.4"/>
      <point x="690.85" y="899.4" type="qcurve" smooth="yes"/>
      <point x="616.45" y="899.4"/>
      <point x="500.65" y="807.75"/>
      <point x="466.0" y="735.95" type="qcurve"/>
      <point x="466.0" y="0.0" type="line"/>
      <point x="145.0" y="0.0" type="line"/>
      <point x="145.0" y="1115.85" type="line"/>
      <point x="450.29999999999995" y="1115.85" type="line"/>
      <point x="458.15" y="988.55" type="line"/>
      <point x="463.15" y="988.55" type="line"/>
      <point x="514.85" y="1061.85"/>
      <point x="685.85" y="1136.0"/>
      <point x="787.25" y="1136.0" type="qcurve" smooth="yes"/>
      <point x="971.05" y="1136.0"/>
      <point x="1194.0" y="923.2"/>
      <point x="1194.0" y="668.45" type="qcurve" smooth="yes"/>
      <point x="1194.0" y="-415.85" type="line"/>
    </contour>
  </outline>
</glyph>
<glyph name="theta" format="2">
  <advance width="1353"/>
  <unicode hex="03B8"/>
  <outline>
    <contour>
      <point x="677.85" y="-30.0" type="qcurve" smooth="yes"/>
      <point x="391.1" y="-30.0"/>
      <point x="82.75" y="307.65"/>
      <point x="82.75" y="623.65" type="qcurve"/>
      <point x="82.75" y="912.35" type="line"/>
      <point x="82.75" y="1223.35"/>
      <point x="392.1" y="1556.0"/>
      <point x="680.0" y="1556.0" type="qcurve" smooth="yes"/>
      <point x="963.6" y="1556.0"/>
      <point x="1270.1" y="1223.35"/>
      <point x="1270.1" y="912.35" type="qcurve"/>
      <point x="1270.1" y="623.65" type="line"/>
      <point x="1270.1" y="307.65"/>
      <point x="962.45" y="-30.0"/>
    </contour>
    <contour>
      <point x="677.6922784810126" y="205.05" type="qcurve" smooth="yes"/>
      <point x="805.1422784810126" y="205.05"/>
      <point x="940.1" y="371.6"/>
      <point x="940.1" y="531.15" type="qcurve"/>
      <point x="940.1" y="1000.85" type="line" smooth="yes"/>
      <point x="938.3805063291139" y="1157.25"/>
      <point x="804.1422784810126" y="1320.95"/>
      <point x="675.6922784810126" y="1320.95" type="qcurve" smooth="yes"/>
      <point x="547.9422784810126" y="1320.95"/>
      <point x="412.74227848101265" y="1157.25"/>
      <point x="412.74227848101265" y="1000.85" type="qcurve" smooth="yes"/>
      <point x="412.74227848101265" y="531.15" type="line" smooth="yes"/>
      <point x="412.74227848101265" y="371.6"/>
      <point x="548.9422784810126" y="205.05"/>
    </contour>
    <contour>
      <point x="266.853670886076" y="637.5963291139241" type="line"/>
      <point x="266.853670886076" y="876.5121518987343" type="line"/>
      <point x="1079.4602531645571" y="876.5121518987343" type="line"/>
      <point x="1079.4602531645571" y="637.5963291139241" type="line"/>
    </contour>
  </outline>
</glyph>
<glyph name="iota" format="2">
  <advance width="724"/>
  <unicode hex="03B9"/>
  <anchor x="334.9389873417722" y="1116.0" name="GRK_top"/>
  <outline>
    <contour>
      <point x="531.9" y="-29.0" type="qcurve" smooth="yes"/>
      <point x="353.5" y="-29.0"/>
      <point x="157.0" y="187.05"/>
      <point x="154.0" y="388.4" type="qcurve" smooth="yes"/>
      <point x="154.0" y="1116.0" type="line"/>
      <point x="476.0" y="1116.0" type="line"/>
      <point x="476.0" y="400.4" type="line" smooth="yes"/>
      <point x="476.0" y="315.4"/>
      <point x="549.2" y="224.39999999999998"/>
      <point x="614.25" y="224.39999999999998" type="qcurve" smooth="yes"/>
      <point x="632.35" y="224.39999999999998"/>
      <point x="672.15" y="235.55"/>
      <point x="688.1" y="242.39999999999998" type="qcurve"/>
      <point x="688.1" y="1.0" type="line"/>
      <point x="666.7" y="-11.0"/>
      <point x="579.85" y="-29.0"/>
    </contour>
  </outline>
</glyph>
<glyph name="xi" format="2">
  <advance width="1136"/>
  <unicode hex="03BE"/>
  <outline>
    <contour>
      <point x="612.0" y="-348.0" type="line"/>
      <point x="651" y="-263"/>
      <point x="680" y="-187"/>
      <point x="680" y="-145" type="qcurve" smooth="yes"/>
      <point x="680" y="-110.0"/>
      <point x="635" y="-53"/>
      <point x="557.0" y="-40.0" type="qcurve" smooth="yes"/>
      <point x="539" y="-37" type="line" smooth="yes"/>
      <point x="297" y="3"/>
      <point x="61.0" y="213.0"/>
      <point x="61.0" y="381" type="qcurve" smooth="yes"/>
      <point x="61.0" y="538"/>
      <point x="254.0" y="755"/>
      <point x="404.0" y="767" type="qcurve"/>
      <point x="404" y="758.0" type="line"/>
      <point x="274" y="772.0"/>
      <point x="108" y="933.0"/>
      <point x="110" y="1043.0" type="qcurve"/>
      <point x="110" y="1162.0"/>
      <point x="341" y="1332"/>
      <point x="519" y="1334" type="qcurve"/>
      <point x="519" y="1301.0" type="line"/>
      <point x="92" y="1301.0" type="line"/>
      <point x="92" y="1526.0" type="line"/>
      <point x="972" y="1526.0" type="line"/>
      <point x="972" y="1302" type="line"/>
      <point x="735" y="1304"/>
      <point x="430" y="1167.0"/>
      <point x="430" y="1059.0" type="qcurve" smooth="yes"/>
      <point x="430" y="990.0"/>
      <point x="605" y="899.0"/>
      <point x="741" y="898.0" type="qcurve" smooth="yes"/>
      <point x="908" y="898.0" type="line"/>
      <point x="908" y="645.0" type="line"/>
      <point x="741" y="645.0" type="line" smooth="yes"/>
      <point x="591" y="645"/>
      <point x="398.0" y="563"/>
      <point x="398.0" y="437" type="qcurve" smooth="yes"/>
      <point x="398.0" y="364"/>
      <point x="501" y="279"/>
      <point x="678" y="240" type="qcurve" smooth="yes"/>
      <point x="755" y="223" type="line" smooth="yes"/>
      <point x="880" y="194"/>
      <point x="993" y="56"/>
      <point x="993" y="-69" type="qcurve" smooth="yes"/>
      <point x="993" y="-138"/>
      <point x="938.0" y="-321.0"/>
      <point x="912" y="-348.0" type="qcurve"/>
    </contour>
  </outline>
</glyph>
<glyph name="pi" format="2">
  <advance width="1495"/>
  <unicode hex="03C0"/>
  <outline>
    <contour>
      <point x="5.0" y="792.0" type="line"/>
      <point x="5.0" y="1095.0" type="line"/>
      <point x="1356" y="1095.0" type="line"/>
      <point x="1356" y="792.0" type="line"/>
    </contour>
    <contour>
      <point x="149" y="0.0" type="line"/>
      <point x="149" y="933" type="line"/>
      <point x="460.0" y="933" type="line"/>
      <point x="460.0" y="0.0" type="line"/>
    </contour>
    <contour>
      <point x="1184" y="-29.0" type="qcurve" smooth="yes"/>
      <point x="1037" y="-29.0"/>
      <point x="879.0" y="154"/>
      <point x="879.0" y="325" type="qcurve"/>
      <point x="879.0" y="933" type="line"/>
      <point x="1191" y="933" type="line"/>
      <point x="1191" y="371.0" type="line"/>
      <point x="1191" y="296.0"/>
      <point x="1236" y="216"/>
      <point x="1277" y="216" type="qcurve"/>
      <point x="1302" y="216"/>
      <point x="1339" y="227.0"/>
      <point x="1357" y="235" type="qcurve"/>
      <point x="1357" y="1" type="line"/>
      <point x="1335" y="-11"/>
      <point x="1232" y="-29.0"/>
    </contour>
  </outline>
</glyph>
<glyph name="rho" format="2">
  <advance width="1369"/>
  <unicode hex="03C1"/>
  <outline>
    <contour>
      <point x="145.0" y="-416.0" type="line"/>
      <point x="145.0" y="588.65" type="line" smooth="yes"/>
      <point x="145.0" y="854.2"/>
      <point x="438.15" y="1136.75"/>
      <point x="712.85" y="1136.75" type="qcurve" smooth="yes"/>
      <point x="1017.6" y="1136.75"/>
      <point x="1276.25" y="827.6"/>
      <point x="1276.25" y="566.7" type="qcurve" smooth="yes"/>
      <point x="1276.25" y="532.4" type="line" smooth="yes"/>
      <point x="1276.25" y="263.75"/>
      <point x="1006.55" y="-20.0"/>
      <point x="792.45" y="-20.0" type="qcurve" smooth="yes"/>
      <point x="689.55" y="-20.0"/>
      <point x="519.35" y="41.1"/>
      <point x="466.0" y="97.45" type="qcurve"/>
      <point x="466.0" y="-416.0" type="line"/>
    </contour>
    <contour>
      <point x="711.4" y="215.05" type="qcurve" smooth="yes"/>
      <point x="822.65" y="215.05"/>
      <point x="945.8" y="375.95"/>
      <point x="945.8" y="534.2" type="qcurve" smooth="yes"/>
      <point x="945.8" y="571.35" type="line" smooth="yes"/>
      <point x="945.8" y="732.6"/>
      <point x="811.75" y="899.95"/>
      <point x="688.8" y="899.95" type="qcurve" smooth="yes"/>
      <point x="578.0" y="899.95"/>
      <point x="465.0" y="744.75"/>
      <point x="466.0" y="601.9" type="qcurve" smooth="yes"/>
      <point x="466.0" y="339.45" type="line"/>
      <point x="486.1" y="278.95"/>
      <point x="615.1" y="215.05"/>
    </contour>
  </outline>
</glyph>
<glyph name="finalsigma" format="2">
  <advance width="1304"/>
  <unicode hex="03C2"/>
  <outline>
    <contour>
      <point x="636.2158227848101" y="-348.0" type="line"/>
      <point x="676.6121518987342" y="-257.28784810126587"/>
      <point x="702.5040506329113" y="-182.7878481012658"/>
      <point x="702.5040506329113" y="-144.01506329113923" type="qcurve"/>
      <point x="702.5040506329113" y="-109.76506329113924"/>
      <point x="651.7301265822786" y="-53.42683544303797"/>
      <point x="574.3455696202532" y="-40.58455696202532" type="qcurve" smooth="yes"/>
      <point x="553.252911392405" y="-36.96911392405063" type="line" smooth="yes"/>
      <point x="320.5610126582278" y="0.6345569620253144"/>
      <point x="82.75" y="267.71506329113924"/>
      <point x="82.75" y="517.3227848101266" type="qcurve" smooth="yes"/>
      <point x="82.75" y="570.15" type="line" smooth="yes"/>
      <point x="82.75" y="839.3617721518988"/>
      <point x="411.98822784810125" y="1146.15"/>
      <point x="705.7955696202532" y="1146.15" type="qcurve" smooth="yes"/>
      <point x="973.6069620253164" y="1146.15"/>
      <point x="1267.8955696202531" y="914.3048101265823"/>
      <point x="1267.8955696202531" y="685.05" type="qcurve" smooth="yes"/>
      <point x="1267.8955696202531" y="673.05" type="line"/>
      <point x="936.4455696202532" y="673.05" type="line"/>
      <point x="936.4455696202532" y="700.65" type="line" smooth="yes"/>
      <point x="936.4455696202532" y="806.45"/>
      <point x="812.6727848101266" y="917.85"/>
      <point x="696.6955696202532" y="917.85" type="qcurve"/>
      <point x="566.2882278481012" y="917.85"/>
      <point x="413.05" y="736.0382278481012"/>
      <point x="413.05" y="565.1227848101266" type="qcurve" smooth="yes"/>
      <point x="413.05" y="528.0455696202532" type="line" smooth="yes"/>
      <point x="413.05" y="412.1110126582278"/>
      <point x="544.8032911392405" y="280.98455696202535"/>
      <point x="701.05" y="246.25367088607595" type="qcurve" smooth="yes"/>
      <point x="781.5" y="228.50367088607595" type="line" smooth="yes"/>
      <point x="908.0154430379747" y="199.35367088607597"/>
      <point x="1024.15" y="59.03860759493671"/>
      <point x="1024.15" y="-67.8" type="qcurve"/>
      <point x="1023.9922784810128" y="-134.4959493670886"/>
      <point x="967.1459493670886" y="-318.9"/>
      <point x="940.8459493670887" y="-348.0" type="qcurve"/>
    </contour>
  </outline>
</glyph>
<glyph name="sigma" format="2">
  <advance width="1488"/>
  <unicode hex="03C3"/>
  <outline>
    <contour>
      <point x="677.0" y="-30.0" type="qcurve" smooth="yes"/>
      <point x="419.0" y="-30.0"/>
      <point x="85" y="282"/>
      <point x="85" y="523" type="qcurve" smooth="yes"/>
      <point x="85" y="555" type="line" smooth="yes"/>
      <point x="85" y="815"/>
      <point x="420" y="1095.0"/>
      <point x="732" y="1095.0" type="qcurve"/>
      <point x="1396" y="1095.0" type="line"/>
      <point x="1396" y="894.0" type="line"/>
      <point x="1058" y="894.0" type="line"/>
      <point x="1058" y="964" type="line"/>
      <point x="1150" y="924"/>
      <point x="1268" y="690"/>
      <point x="1268" y="548.0" type="qcurve" smooth="yes"/>
      <point x="1268" y="516.0" type="line" smooth="yes"/>
      <point x="1268" y="278"/>
      <point x="935.0" y="-30.0"/>
    </contour>
    <contour>
      <point x="679.0" y="195" type="qcurve" smooth="yes"/>
      <point x="796.0" y="195"/>
      <point x="948" y="367"/>
      <point x="948" y="500" type="qcurve" smooth="yes"/>
      <point x="948" y="576" type="line" smooth="yes"/>
      <point x="948" y="688"/>
      <point x="861.0" y="881.0"/>
      <point x="793.0" y="918.0" type="qcurve"/>
      <point x="625.0" y="928.0"/>
      <point x="407" y="733"/>
      <point x="407" y="571" type="qcurve" smooth="yes"/>
      <point x="407" y="498" type="line" smooth="yes"/>
      <point x="407" y="366"/>
      <point x="560.0" y="195"/>
    </contour>
  </outline>
</glyph>
<glyph name="tau" format="2">
  <advance width="972"/>
  <unicode hex="03C4"/>
  <outline>
    <contour>
      <point x="-1.5" y="858.3727848101266" type="line"/>
      <point x="-1.5" y="1095.0" type="line"/>
      <point x="938.25" y="1095.0" type="line"/>
      <point x="938.25" y="858.3727848101266" type="line"/>
    </contour>
    <contour>
      <point x="661.15" y="-29.0" type="qcurve" smooth="yes"/>
      <point x="482.75" y="-29.0"/>
      <point x="286.25" y="187.05"/>
      <point x="283.25" y="388.4" type="qcurve" smooth="yes"/>
      <point x="283.25" y="999.55" type="line"/>
      <point x="605.25" y="999.55" type="line"/>
      <point x="605.25" y="400.4" type="line" smooth="yes"/>
      <point x="605.25" y="315.4"/>
      <point x="678.45" y="224.39999999999998"/>
      <point x="743.5" y="224.39999999999998" type="qcurve" smooth="yes"/>
      <point x="761.6" y="224.39999999999998"/>
      <point x="801.4" y="235.55"/>
      <point x="817.35" y="242.39999999999998" type="qcurve"/>
      <point x="817.35" y="1.0" type="line"/>
      <point x="795.95" y="-11.0"/>
      <point x="709.1" y="-29.0"/>
    </contour>
  </outline>
</glyph>
<glyph name="chi" format="2">
  <advance width="1079"/>
  <unicode hex="03C7"/>
  <outline>
    <contour>
      <point x="682.2125316455696" y="-416.0" type="line"/>
      <point x="412.5125316455696" y="217.14999999999998" type="line"/>
      <point x="412.0048101265823" y="217.14999999999998" type="line"/>
      <point x="36.32759493670886" y="1116.0" type="line"/>
      <point x="416.1775949367089" y="1116.0" type="line"/>
      <point x="658.0048101265822" y="506.15" type="line"/>
      <point x="660.0548101265823" y="506.15" type="line"/>
      <point x="1061.9048101265823" y="-416.0" type="line"/>
    </contour>
    <contour>
      <point x="16.873164556962024" y="-416.0" type="line"/>
      <point x="413.6775949367089" y="509.15" type="line"/>
      <point x="488.50443037974685" y="509.15" type="line"/>
      <point x="728.6588607594937" y="1116.0" type="line"/>
      <point x="1043.2048101265823" y="1116.0" type="line"/>
      <point x="672.4503797468354" y="233.14999999999998" type="line"/>
      <point x="595.8463291139241" y="233.14999999999998" type="line"/>
      <point x="331.41911392405063" y="-416.0" type="line"/>
    </contour>
  </outline>
</glyph>
<glyph name="psi" format="2">
  <advance width="1776"/>
  <unicode hex="03C8"/>
  <outline>
    <contour>
      <point x="732" y="-416" type="line"/>
      <point x="732" y="-21" type="line"/>
      <point x="435" y="-26"/>
      <point x="115" y="237"/>
      <point x="115" y="487" type="qcurve" smooth="yes"/>
      <point x="115" y="1095" type="line"/>
      <point x="436" y="1095" type="line"/>
      <point x="436" y="497" type="line" smooth="yes"/>
      <point x="436" y="358"/>
      <point x="589" y="207"/>
      <point x="732" y="205" type="qcurve"/>
      <point x="732" y="1536" type="line"/>
      <point x="1044" y="1536" type="line"/>
      <point x="1044" y="204" type="line"/>
      <point x="1189" y="205"/>
      <point x="1342" y="357"/>
      <point x="1340" y="497" type="qcurve" smooth="yes"/>
      <point x="1340" y="1095" type="line"/>
      <point x="1661" y="1095" type="line"/>
      <point x="1661" y="487" type="line" smooth="yes"/>
      <point x="1661" y="237"/>
      <point x="1341" y="-26"/>
      <point x="1044" y="-21" type="qcurve"/>
      <point x="1044" y="-416" type="line"/>
    </contour>
  </outline>
</glyph>
<glyph name="omega" format="2">
  <advance width="1717"/>
  <unicode hex="03C9"/>
  <anchor x="839.0" y="1095.0" name="GRK_top"/>
  <outline>
    <contour>
      <point x="499.20000000000005" y="-30.0" type="qcurve" smooth="yes"/>
      <point x="280.0" y="-30.0"/>
      <point x="84.1" y="251.85"/>
      <point x="84.1" y="506.25" type="qcurve"/>
      <point x="84.1" y="719.25"/>
      <point x="186.45" y="1025.0"/>
      <point x="282.25" y="1095.0" type="qcurve"/>
      <point x="569.5" y="1095.0" type="line"/>
      <point x="496.65" y="997.75"/>
      <point x="415.4" y="682.35"/>
      <point x="415.4" y="489.35" type="qcurve"/>
      <point x="415.4" y="359.25"/>
      <point x="497.4" y="215.45"/>
      <point x="574.15" y="215.45" type="qcurve"/>
      <point x="634.55" y="215.45"/>
      <point x="698.5" y="307.75"/>
      <point x="698.5" y="401.0" type="qcurve" smooth="yes"/>
      <point x="698.5" y="784.5" type="line"/>
      <point x="1019.5" y="784.5" type="line"/>
      <point x="1019.5" y="401.0" type="line" smooth="yes"/>
      <point x="1019.5" y="307.75"/>
      <point x="1084.6" y="215.45"/>
      <point x="1145.0" y="215.45" type="qcurve"/>
      <point x="1220.6" y="215.45"/>
      <point x="1301.6" y="359.25"/>
      <point x="1301.6" y="489.35" type="qcurve"/>
      <point x="1301.6" y="681.35"/>
      <point x="1221.5" y="996.75"/>
      <point x="1148.65" y="1095.0" type="qcurve"/>
      <point x="1434.75" y="1095.0" type="line"/>
      <point x="1530.7" y="1023.8499999999999"/>
      <point x="1632.9" y="718.25"/>
      <point x="1632.9" y="506.4" type="qcurve"/>
      <point x="1632.9" y="257.4"/>
      <point x="1444.7" y="-30.0"/>
      <point x="1209.95" y="-30.0" type="qcurve" smooth="yes"/>
      <point x="1075.1" y="-30.0"/>
      <point x="894.55" y="81.85"/>
      <point x="848.85" y="214.4" type="qcurve"/>
      <point x="870.3" y="214.4" type="line"/>
      <point x="826.75" y="88.0"/>
      <point x="644.35" y="-30.0"/>
    </contour>
  </outline>
</glyph>
<glyph name="Ieukran" format="2">
  <advance width="1495"/>
  <unicode hex="0404"/>
  <outline>
    <contour>
      <point x="284.8" y="868.65" type="line"/>
      <point x="952.7" y="868.65" type="line"/>
      <point x="952.7" y="632.2" type="line"/>
      <point x="284.8" y="632.2" type="line"/>
    </contour>
    <contour>
      <point x="115.0" y="687.0" type="qcurve" smooth="yes"/>
      <point x="115.0" y="769.0" type="line" smooth="yes"/>
      <point x="115.0" y="1107.0"/>
      <point x="512.15" y="1486.0"/>
      <point x="808.45" y="1486.0" type="qcurve" smooth="yes"/>
      <point x="1108.66832460733" y="1486.0"/>
      <point x="1439.5314315532999" y="1195.04236064435"/>
      <point x="1451.3" y="974.8" type="qcurve" smooth="yes"/>
      <point x="1451.3" y="963.3" type="line"/>
      <point x="1112.4" y="963.3" type="line"/>
      <point x="1111.4" y="974.8" type="line" smooth="yes"/>
      <point x="1107.5421735751002" y="1081.379654658485"/>
      <point x="957.42095238095" y="1240.25"/>
      <point x="808.45" y="1240.25" type="qcurve" smooth="yes"/>
      <point x="654.2" y="1240.25"/>
      <point x="454.75" y="986.05"/>
      <point x="454.75" y="765.55" type="qcurve" smooth="yes"/>
      <point x="454.75" y="688.2" type="line" smooth="yes"/>
      <point x="454.75" y="466.65"/>
      <point x="654.35" y="215.75"/>
      <point x="808.45" y="215.75" type="qcurve" smooth="yes"/>
      <point x="959.07095238095" y="215.75"/>
      <point x="1109.7921735751002" y="374.4696990725"/>
      <point x="1111.55" y="480.9" type="qcurve" smooth="yes"/>
      <point x="1112.4" y="492.70000000000005" type="line"/>
      <point x="1451.3" y="492.70000000000005" type="line"/>
      <point x="1451.45" y="481.20000000000005" type="line" smooth="yes"/>
      <point x="1442.6814315533" y="260.8507696982"/>
      <point x="1108.66832460733" y="-30.0"/>
      <point x="808.45" y="-30.0" type="qcurve" smooth="yes"/>
      <point x="512.15" y="-30.0"/>
      <point x="115.0" y="349.0"/>
    </contour>
  </outline>
</glyph>
<glyph name="Lje" format="2">
  <advance width="2236"/>
  <unicode hex="0409"/>
  <outline>
    <contour>
      <point x="313.95" y="1456.0" type="line"/>
      <point x="1334.2" y="1456.0" type="line"/>
      <point x="1334.2" y="947.35" type="line"/>
      <point x="1573.35" y="947.35" type="line" smooth="yes"/>
      <point x="1857.6" y="947.35"/>
      <point x="2163.85" y="687.85"/>
      <point x="2163.85" y="471.0" type="qcurve" smooth="yes"/>
      <point x="2163.85" y="255.14999999999998"/>
      <point x="1857.6" y="0.0"/>
      <point x="1573.35" y="0.0" type="qcurve" smooth="yes"/>
      <point x="1002.9" y="0.0" type="line"/>
      <point x="1002.9" y="1219.55" type="line"/>
      <point x="583.25" y="1219.55" type="line"/>
      <point x="546.7" y="536.95" type="line" smooth="yes"/>
      <point x="531.85" y="264.85"/>
      <point x="354.3" y="-30.0"/>
      <point x="136.6" y="-30.0" type="qcurve" smooth="yes"/>
      <point x="101.6" y="-30.0"/>
      <point x="40.0" y="-19.0"/>
      <point x="10.0" y="-5.0" type="qcurve"/>
      <point x="10.0" y="288.9" type="line"/>
      <point x="37.0" y="277.9"/>
      <point x="80.1" y="270.9"/>
      <point x="102.25" y="270.9" type="qcurve" smooth="yes"/>
      <point x="192.8" y="270.9"/>
      <point x="258.25" y="420.35"/>
      <point x="266.25" y="573.75" type="qcurve" smooth="yes"/>
    </contour>
    <contour>
      <point x="1334.2" y="710.9" type="line"/>
      <point x="1334.2" y="236.45" type="line"/>
      <point x="1573.35" y="236.45" type="line" smooth="yes"/>
      <point x="1715.85" y="236.45"/>
      <point x="1832.7" y="370.5"/>
      <point x="1832.7" y="471.0" type="qcurve" smooth="yes"/>
      <point x="1832.7" y="572.5"/>
      <point x="1715.85" y="710.9"/>
      <point x="1573.35" y="710.9" type="qcurve" smooth="yes"/>
    </contour>
  </outline>
</glyph>
<glyph name="Nje" format="2">
  <advance width="2320"/>
  <unicode hex="040A"/>
  <outline>
    <contour>
      <point x="167.6" y="0.0" type="line"/>
      <point x="167.6" y="1456.0" type="line"/>
      <point x="498.9" y="1456.0" type="line"/>
      <point x="498.9" y="916.0" type="line"/>
      <point x="1089.6" y="916.0" type="line"/>
      <point x="1089.6" y="1456.0" type="line"/>
      <point x="1420.9" y="1456.0" type="line"/>
      <point x="1420.9" y="916.0" type="line"/>
      <point x="1657.35" y="916.0" type="line" smooth="yes"/>
      <point x="1941.6" y="916.0"/>
      <point x="2247.85" y="664.8"/>
      <point x="2247.85" y="455.25" type="qcurve" smooth="yes"/>
      <point x="2247.85" y="246.97074235809998"/>
      <point x="1941.6" y="0.0"/>
      <point x="1657.35" y="0.0" type="qcurve" smooth="yes"/>
      <point x="1089.6" y="0.0" type="line"/>
      <point x="1089.6" y="679.55" type="line"/>
      <point x="498.9" y="679.55" type="line"/>
      <point x="498.9" y="0.0" type="line"/>
    </contour>
    <contour>
      <point x="1420.9" y="679.55" type="line"/>
      <point x="1420.9" y="236.45" type="line"/>
      <point x="1657.35" y="236.45" type="line" smooth="yes"/>
      <point x="1799.85" y="236.45"/>
      <point x="1916.7" y="361.2"/>
      <point x="1916.7" y="455.25" type="qcurve" smooth="yes"/>
      <point x="1916.7" y="550.45"/>
      <point x="1799.85" y="679.55"/>
      <point x="1657.35" y="679.55" type="qcurve" smooth="yes"/>
    </contour>
  </outline>
</glyph>
<glyph name="Tshe" format="2">
  <advance width="1808"/>
  <unicode hex="040B"/>
  <outline>
    <contour>
      <point x="1326.7" y="0.0" type="line"/>
      <point x="1326.7" y="385.3" type="line" smooth="yes"/>
      <point x="1326.7" y="536.05"/>
      <point x="1174.573770491805" y="648.95"/>
      <point x="1038.35" y="648.95" type="qcurve" smooth="yes"/>
      <point x="897.79054054054" y="648.95"/>
      <point x="722.9" y="612.6"/>
      <point x="637.15" y="585.75" type="qcurve"/>
      <point x="637.15" y="827.2" type="line"/>
      <point x="725.9" y="853.9"/>
      <point x="930.07692307693" y="894.4"/>
      <point x="1090.2" y="894.4" type="qcurve" smooth="yes"/>
      <point x="1392.261202185795" y="894.4"/>
      <point x="1658.0" y="651.75"/>
      <point x="1658.0" y="408.75" type="qcurve" smooth="yes"/>
      <point x="1658.0" y="0.0" type="line"/>
    </contour>
    <contour>
      <point x="24.0" y="1219.55" type="line"/>
      <point x="24.0" y="1456.0" type="line"/>
      <point x="1270.3" y="1456.0" type="line"/>
      <point x="1270.3" y="1219.55" type="line"/>
      <point x="802.8" y="1219.55" type="line"/>
      <point x="802.8" y="0.0" type="line"/>
      <point x="471.5" y="0.0" type="line"/>
      <point x="471.5" y="1219.55" type="line"/>
    </contour>
  </outline>
</glyph>
<glyph name="Ghe" format="2">
  <advance width="1206"/>
  <unicode hex="0413"/>
  <outline>
    <contour>
      <point x="170.0" y="0.0" type="line"/>
      <point x="170.0" y="1456.0" type="line"/>
      <point x="1182.0" y="1456.0" type="line"/>
      <point x="1182.0" y="1219.55" type="line"/>
      <point x="501.29999999999995" y="1219.55" type="line"/>
      <point x="501.29999999999995" y="0.0" type="line"/>
    </contour>
  </outline>
</glyph>
<glyph name="Zhe" format="2">
  <advance width="2000"/>
  <unicode hex="0416"/>
  <outline>
    <contour>
      <point x="831.05" y="0.0" type="line"/>
      <point x="831.05" y="1456.0" type="line"/>
      <point x="1162.35" y="1456.0" type="line"/>
      <point x="1162.35" y="0.0" type="line"/>
    </contour>
    <contour>
      <point x="1629.75" y="0.0" type="line"/>
      <point x="1209.75" y="696.9" type="line"/>
      <point x="1430.55" y="926.9" type="line"/>
      <point x="2025.25" y="0.0" type="line"/>
    </contour>
    <contour>
      <point x="997.45" y="868.65" type="line"/>
      <point x="1251.9" y="868.65" type="line"/>
      <point x="1661.85" y="1456.0" type="line"/>
      <point x="1994.9499999999998" y="1456.0" type="line"/>
      <point x="1398.5" y="632.2" type="line"/>
      <point x="997.45" y="632.2" type="line"/>
    </contour>
    <contour>
      <point x="-25.1" y="0.0" type="line"/>
      <point x="567.8" y="926.15" type="line"/>
      <point x="784.1" y="696.6" type="line"/>
      <point x="363.8" y="0.0" type="line"/>
    </contour>
    <contour>
      <point x="997.45" y="868.65" type="line"/>
      <point x="997.45" y="632.2" type="line"/>
      <point x="590.55" y="632.2" type="line"/>
      <point x="-6.050000000000001" y="1456.0" type="line"/>
      <point x="330.8" y="1456.0" type="line"/>
      <point x="741.2" y="868.65" type="line"/>
    </contour>
  </outline>
</glyph>
<glyph name="Ze" format="2">
  <advance width="1415"/>
  <unicode hex="0417"/>
  <outline>
    <contour>
      <point x="711.35" y="215.75" type="qcurve" smooth="yes"/>
      <point x="862.15" y="215.60000000000002"/>
      <point x="987.0" y="327.6"/>
      <point x="987.0" y="423.0" type="qcurve" smooth="yes"/>
      <point x="987.0" y="518.2"/>
      <point x="868.35" y="630.75"/>
      <point x="753.8" y="630.75" type="qcurve" smooth="yes"/>
      <point x="545.0" y="630.75" type="line"/>
      <point x="545.0" y="866.0" type="line"/>
      <point x="755.3" y="866.0" type="line" smooth="yes"/>
      <point x="855.55" y="866.0"/>
      <point x="948.0" y="965.40256410256"/>
      <point x="948.0" y="1053.5" type="qcurve" smooth="yes"/>
      <point x="948.0" y="1137.31011904762"/>
      <point x="830.45" y="1238.25"/>
      <point x="713.15" y="1238.25" type="qcurve" smooth="yes"/>
      <point x="574.2" y="1238.25"/>
      <point x="426.85" y="1102.55"/>
      <point x="426.85" y="1001.3" type="qcurve" smooth="yes"/>
      <point x="426.85" y="991.6" type="line"/>
      <point x="85.55" y="991.6" type="line"/>
      <point x="85.55" y="1001.6" type="line" smooth="yes"/>
      <point x="85.55" y="1218.4"/>
      <point x="431.5" y="1486.0"/>
      <point x="713.45" y="1486.0" type="qcurve" smooth="yes"/>
      <point x="999.0" y="1486.0"/>
      <point x="1279.75" y="1265.08762019231"/>
      <point x="1279.6" y="1073.5" type="qcurve" smooth="yes"/>
      <point x="1279.45" y="966.398013245035"/>
      <point x="1158.874731142575" y="798.091015517365"/>
      <point x="1057.6" y="767.25" type="qcurve"/>
      <point x="1057.6" y="763.25" type="line"/>
      <point x="1170.3" y="733.85"/>
      <point x="1318.6" y="552.3"/>
      <point x="1318.6" y="420.0" type="qcurve" smooth="yes"/>
      <point x="1318.6" y="207.15"/>
      <point x="994.8" y="-30.0"/>
      <point x="711.35" y="-30.0" type="qcurve" smooth="yes"/>
      <point x="398.6" y="-30.0"/>
      <point x="70.0" y="252.6"/>
      <point x="70.0" y="455.4" type="qcurve" smooth="yes"/>
      <point x="70.0" y="465.4" type="line"/>
      <point x="412.3" y="465.4" type="line"/>
      <point x="412.3" y="455.4" type="line" smooth="yes"/>
      <point x="412.3" y="365.1"/>
      <point x="566.9" y="215.89999999999998"/>
    </contour>
  </outline>
</glyph>
<glyph name="Pe" format="2">
  <advance width="1612"/>
  <unicode hex="041F"/>
  <outline>
    <contour>
      <point x="167.6" y="0.0" type="line"/>
      <point x="167.6" y="1456.0" type="line"/>
      <point x="1444.4" y="1456.0" type="line"/>
      <point x="1444.4" y="0.0" type="line"/>
      <point x="1113.1" y="0.0" type="line"/>
      <point x="1113.1" y="1219.55" type="line"/>
      <point x="498.9" y="1219.55" type="line"/>
      <point x="498.9" y="0.0" type="line"/>
    </contour>
  </outline>
</glyph>
<glyph name="Ef" format="2">
  <advance width="1992"/>
  <unicode hex="0424"/>
  <outline>
    <contour>
      <point x="1162.25" y="1476.0" type="line"/>
      <point x="1162.25" y="1293.0" type="line"/>
      <point x="1193.25" y="1293.0" type="line" smooth="yes"/>
      <point x="1541.1" y="1293.0"/>
      <point x="1898.8" y="996.15"/>
      <point x="1898.8" y="738.3" type="qcurve" smooth="yes"/>
      <point x="1898.8" y="480.15"/>
      <point x="1541.1" y="184.0"/>
      <point x="1193.25" y="184.0" type="qcurve" smooth="yes"/>
      <point x="1162.25" y="184.0" type="line"/>
      <point x="1162.25" y="-20.0" type="line"/>
      <point x="829.9" y="-20.0" type="line"/>
      <point x="829.9" y="184.0" type="line"/>
      <point x="799.9" y="184.0" type="line" smooth="yes"/>
      <point x="451.05" y="184.0"/>
      <point x="93.35" y="480.15"/>
      <point x="93.35" y="738.15" type="qcurve" smooth="yes"/>
      <point x="93.35" y="996.15"/>
      <point x="451.05" y="1293.0"/>
      <point x="799.9" y="1293.0" type="qcurve" smooth="yes"/>
      <point x="829.9" y="1293.0" type="line"/>
      <point x="829.9" y="1476.0" type="line"/>
    </contour>
    <contour>
      <point x="1193.25" y="1055.5" type="qcurve" smooth="yes"/>
      <point x="1162.25" y="1055.5" type="line"/>
      <point x="1162.25" y="421.5" type="line"/>
      <point x="1193.25" y="421.5" type="line" smooth="yes"/>
      <point x="1401.4" y="421.5"/>
      <point x="1566.45" y="584.4"/>
      <point x="1566.45" y="738.6" type="qcurve" smooth="yes"/>
      <point x="1566.45" y="890.35"/>
      <point x="1400.95" y="1055.5"/>
    </contour>
    <contour>
      <point x="799.9" y="1055.5" type="line" smooth="yes"/>
      <point x="590.75" y="1055.5"/>
      <point x="425.7" y="891.75"/>
      <point x="425.7" y="737.85" type="qcurve" smooth="yes"/>
      <point x="425.7" y="585.8"/>
      <point x="590.75" y="421.5"/>
      <point x="799.9" y="421.5" type="qcurve" smooth="yes"/>
      <point x="829.9" y="421.5" type="line"/>
      <point x="829.9" y="1055.5" type="line"/>
    </contour>
  </outline>
</glyph>
<glyph name="Che" format="2">
  <advance width="1572"/>
  <unicode hex="0427"/>
  <guideline x="1123.0" y="741.0" angle="90.0" identifier="nfCxFSb4p1"/>
  <outline>
    <contour>
      <point x="481.29999999999995" y="1029.2" type="line" smooth="yes"/>
      <point x="481.29999999999995" y="878.45"/>
      <point x="647.869335347425" y="765.55"/>
      <point x="795.05" y="765.55" type="qcurve" smooth="yes"/>
      <point x="945.2415116279" y="765.55"/>
      <point x="1136.916591318985" y="799.14298417699"/>
      <point x="1238.75" y="830.4" type="qcurve"/>
      <point x="1238.75" y="588.95" type="line"/>
      <point x="1142.5560183123202" y="560.19277912591"/>
      <point x="915.14213483146" y="520.1"/>
      <point x="742.8" y="520.1" type="qcurve" smooth="yes"/>
      <point x="429.254347826085" y="520.1"/>
      <point x="150.0" y="761.55"/>
      <point x="150.0" y="1005.75" type="qcurve" smooth="yes"/>
      <point x="150.0" y="1456.0" type="line"/>
      <point x="481.29999999999995" y="1456.0" type="line"/>
    </contour>
    <contour>
      <point x="1404.4" y="1456.0" type="line"/>
      <point x="1404.4" y="0.0" type="line"/>
      <point x="1073.1" y="0.0" type="line"/>
      <point x="1073.1" y="1456.0" type="line"/>
    </contour>
  </outline>
</glyph>
<glyph name="Hard" format="2">
  <advance width="1588"/>
  <unicode hex="042A"/>
  <outline>
    <contour>
      <point x="24.0" y="1219.55" type="line"/>
      <point x="24.0" y="1456.0" type="line"/>
      <point x="692.05" y="1456.0" type="line"/>
      <point x="692.05" y="947.35" type="line"/>
      <point x="925.3499999999999" y="947.35" type="line" smooth="yes"/>
      <point x="1209.6" y="947.35"/>
      <point x="1515.85" y="687.85"/>
      <point x="1515.85" y="471.0" type="qcurve" smooth="yes"/>
      <point x="1515.85" y="255.14999999999998"/>
      <point x="1209.6" y="0.0"/>
      <point x="925.3499999999999" y="0.0" type="qcurve" smooth="yes"/>
      <point x="360.75" y="0.0" type="line"/>
      <point x="360.75" y="1219.55" type="line"/>
    </contour>
    <contour>
      <point x="692.05" y="710.9" type="line"/>
      <point x="692.05" y="236.45" type="line"/>
      <point x="925.35" y="236.45" type="line" smooth="yes"/>
      <point x="1067.7" y="236.45"/>
      <point x="1184.55" y="370.5"/>
      <point x="1184.55" y="471.0" type="qcurve" smooth="yes"/>
      <point x="1184.55" y="572.5"/>
      <point x="1067.7" y="710.9"/>
      <point x="925.35" y="710.9" type="qcurve" smooth="yes"/>
    </contour>
  </outline>
</glyph>
<glyph name="Ya" format="2">
  <advance width="1403"/>
  <unicode hex="042F"/>
  <outline>
    <contour>
      <point x="1235.4" y="0.0" type="line"/>
      <point x="1235.4" y="1456.0" type="line"/>
      <point x="669.7" y="1456.0" type="line" smooth="yes"/>
      <point x="387.35" y="1456.0"/>
      <point x="78.35" y="1202.6"/>
      <point x="78.35" y="990.5" type="qcurve" smooth="yes"/>
      <point x="78.35" y="810.01978922717"/>
      <point x="305.296236721745" y="575.10052889316"/>
      <point x="544.5" y="545.9" type="qcurve"/>
      <point x="611.05" y="517.85" type="line"/>
      <point x="904.1" y="517.85" type="line"/>
      <point x="904.1" y="0.0" type="line"/>
    </contour>
    <contour>
      <point x="904.1" y="754.6" type="line"/>
      <point x="669.7" y="754.6" type="line" smooth="yes"/>
      <point x="525.45" y="754.6"/>
      <point x="409.65" y="892.6"/>
      <point x="409.65" y="990.5" type="qcurve" smooth="yes"/>
      <point x="409.65" y="1087.25"/>
      <point x="525.45" y="1219.25"/>
      <point x="669.7" y="1219.25" type="qcurve" smooth="yes"/>
      <point x="904.1" y="1219.25" type="line"/>
    </contour>
    <contour>
      <point x="432.6" y="0.0" type="line"/>
      <point x="749.25" y="671.55" type="line"/>
      <point x="384.75" y="671.55" type="line"/>
      <point x="61.8" y="0.0" type="line"/>
    </contour>
  </outline>
</glyph>
<glyph name="ghe" format="2">
  <advance width="979"/>
  <unicode hex="0433"/>
  <outline>
    <contour>
      <point x="144.1" y="1116.0" type="line"/>
      <point x="940.5" y="1116.0" type="line"/>
      <point x="940.5" y="885.5" type="line"/>
      <point x="465.1" y="885.5" type="line"/>
      <point x="465.1" y="0.0" type="line"/>
      <point x="144.1" y="0.0" type="line"/>
    </contour>
  </outline>
</glyph>
<glyph name="ka" format="2">
	<unicode hex="043A"/>
	<advance width="1240"/>
	<outline>
		<contour>
			<point x="870" y="0" type="line"/>
			<point x="472" y="540" type="line"/>
			<point x="656" y="769" type="line"/>
			<point x="1256" y="0" type="line"/>
		</contour>
		<contour>
			<point x="304" y="675" type="line"/>
			<point x="535" y="675" type="line"/>
			<point x="870" y="1116" type="line"/>
			<point x="1205" y="1116" type="line"/>
			<point x="684" y="455" type="line"/>
			<point x="304" y="455" type="line"/>
		</contour>
		<contour>
			<point x="460" y="1116" type="line"/>
			<point x="460" y="0" type="line"/>
			<point x="148" y="0" type="line"/>
			<point x="148" y="1116" type="line"/>
		</contour>
	</outline>
	<guideline x="241" y="553" angle="90" identifier="lmgRx0QBdK"/>
	<guideline x="241" y="553" angle="90" identifier="Ocpo8ZnAqy"/>
	<guideline x="241" y="553" angle="90" identifier="s2MO7v5sI3"/>
	<guideline x="241" y="553" angle="90" identifier="FPXPVYbfLS"/>
	<guideline x="241" y="553" angle="90" identifier="7eGbwurAlF"/>
	<guideline x="544" y="931" angle="90" identifier="ZO3cKdkVsM"/>
</glyph>
<glyph name="el" format="2">
  <advance width="1326"/>
  <unicode hex="043B"/>
  <outline>
    <contour>
      <point x="529.25" y="885.5" type="line"/>
      <point x="511.4" y="478.8" type="line" smooth="yes"/>
      <point x="500.1" y="216.3"/>
      <point x="331.0" y="-31.2"/>
      <point x="132.45" y="-31.2" type="qcurve" smooth="yes"/>
      <point x="94.30000000000001" y="-31.2"/>
      <point x="41.0" y="-20.2"/>
      <point x="20.0" y="-11.2" type="qcurve"/>
      <point x="20.0" y="274.8" type="line"/>
      <point x="38.0" y="267.8"/>
      <point x="78.15" y="259.8"/>
      <point x="101.3" y="259.8" type="qcurve" smooth="yes"/>
      <point x="170.05" y="259.8"/>
      <point x="229.4" y="365.5"/>
      <point x="236.4" y="509.4" type="qcurve" smooth="yes"/>
      <point x="263.7" y="1116.0" type="line"/>
      <point x="1182.35" y="1116.0" type="line"/>
      <point x="1182.35" y="0.0" type="line"/>
      <point x="861.35" y="0.0" type="line"/>
      <point x="861.35" y="885.5" type="line"/>
    </contour>
  </outline>
</glyph>
<glyph name="em" format="2">
  <advance width="1722"/>
  <unicode hex="043C"/>
  <outline>
    <contour>
      <point x="144.25" y="0.0" type="line"/>
      <point x="144.25" y="1116.0" type="line"/>
      <point x="554.15" y="1116.0" type="line"/>
      <point x="810.3" y="506.5" type="line" smooth="yes"/>
      <point x="835.05" y="448.70000000000005"/>
      <point x="855.2" y="389.4"/>
      <point x="862.8" y="360.5" type="qcurve"/>
      <point x="873.8" y="360.5" type="line"/>
      <point x="880.25" y="390.4"/>
      <point x="898.0" y="447.15"/>
      <point x="922.75" y="504.79999999999995" type="qcurve" smooth="yes"/>
      <point x="1182.1" y="1116.0" type="line"/>
      <point x="1577.75" y="1116.0" type="line"/>
      <point x="1577.75" y="0.0" type="line"/>
      <point x="1256.3" y="0.0" type="line"/>
      <point x="1256.3" y="618.75" type="line" smooth="yes"/>
      <point x="1256.3" y="681.75"/>
      <point x="1260.3" y="736.75"/>
      <point x="1262.3" y="758.75" type="qcurve"/>
      <point x="1252.3" y="758.75" type="line"/>
      <point x="1245.3" y="736.75"/>
      <point x="1227.15" y="682.05"/>
      <point x="1202.0" y="621.75" type="qcurve" smooth="yes"/>
      <point x="939.35" y="0.0" type="line"/>
      <point x="727.05" y="0.0" type="line"/>
      <point x="463.70000000000005" y="624.75" type="line" smooth="yes"/>
      <point x="440.4" y="680.2"/>
      <point x="422.25" y="736.75"/>
      <point x="416.25" y="758.75" type="qcurve"/>
      <point x="404.25" y="758.75" type="line"/>
      <point x="406.25" y="736.75"/>
      <point x="410.1" y="682.75"/>
      <point x="410.1" y="625.75" type="qcurve" smooth="yes"/>
      <point x="410.1" y="0.0" type="line"/>
    </contour>
  </outline>
</glyph>
<glyph name="te" format="2">
	<unicode hex="0442"/>
	<advance width="1100"/>
	<outline>
		<contour>
			<point x="40" y="896" type="line"/>
			<point x="40" y="1116" type="line"/>
			<point x="1060" y="1116" type="line"/>
			<point x="1060" y="896" type="line"/>
			<point x="706" y="896" type="line"/>
			<point x="706" y="0" type="line"/>
			<point x="394" y="0" type="line"/>
			<point x="394" y="896" type="line"/>
		</contour>
	</outline>
</glyph>
<glyph name="ef" format="2">
  <advance width="1716"/>
  <unicode hex="0444"/>
  <outline>
    <contour>
      <point x="413.05" y="539.0" type="line" smooth="yes"/>
      <point x="413.05" y="399.35"/>
      <point x="561.186701145285" y="212.728956178415"/>
      <point x="697.5" y="205.05" type="qcurve"/>
      <point x="697.5" y="910.95" type="line"/>
      <point x="561.186701145285" y="903.271043821585"/>
      <point x="413.05" y="717.65"/>
      <point x="413.05" y="578.0" type="qcurve" smooth="yes"/>
    </contour>
    <contour>
      <point x="1302.95" y="577.0" type="line" smooth="yes"/>
      <point x="1302.95" y="717.65"/>
      <point x="1154.812988769285" y="903.418430301685"/>
      <point x="1018.5" y="910.95" type="qcurve"/>
      <point x="1018.5" y="205.05" type="line"/>
      <point x="1154.813298854715" y="212.728956178415"/>
      <point x="1302.95" y="399.35"/>
      <point x="1302.95" y="538.0" type="qcurve" smooth="yes"/>
    </contour>
    <contour>
      <point x="697.5" y="-30.0" type="line"/>
      <point x="421.92822748282" y="-19.013967126925"/>
      <point x="82.75" y="288.0"/>
      <point x="82.75" y="539.0" type="qcurve" smooth="yes"/>
      <point x="82.75" y="578.0" type="line" smooth="yes"/>
      <point x="82.75" y="828.0"/>
      <point x="421.92822748282" y="1135.013967126925"/>
      <point x="697.5" y="1146.0" type="qcurve"/>
      <point x="697.5" y="1536.0" type="line"/>
      <point x="1018.5" y="1536.0" type="line"/>
      <point x="1018.5" y="1146.0" type="line"/>
      <point x="1294.07177251718" y="1135.013967126925"/>
      <point x="1633.25" y="832.0"/>
      <point x="1633.25" y="577.0" type="qcurve" smooth="yes"/>
      <point x="1633.25" y="538.0" type="line" smooth="yes"/>
      <point x="1633.25" y="292.0"/>
      <point x="1294.07177251718" y="-19.013967126925"/>
      <point x="1018.5" y="-30.0" type="qcurve"/>
      <point x="1018.5" y="-416.0" type="line"/>
      <point x="697.5" y="-416.0" type="line"/>
    </contour>
  </outline>
</glyph>
